0
SECTION
2
HEADER
9
$INSUNITS
70
4
9
$ACADVER
1
AC1014
9
$HANDSEED
5
FFFF
0
ENDSEC
0
SECTION
2
TABLES
0
TABLE
2
VPORT
5
8
100
AcDbSymbolTable
0
ENDTAB
0
TABLE
2
LTYPE
5
5
100
AcDbSymbolTable
0
LTYPE
5
14
100
AcDbSymbolTableRecord
100
AcDbLinetypeTableRecord
2
BYBLOCK
70
0
0
LTYPE
5
15
100
AcDbSymbolTableRecord
100
AcDbLinetypeTableRecord
2
BYLAYER
70
0
0
ENDTAB
0
TABLE
2
LAYER
5
2
100
AcDbSymbolTable
70
2
0
LAYER
5
50
100
AcDbSymbolTableRecord
100
AcDbLayerTableRecord
2
0
70
0
6
CONTINUOUS
0
ENDTAB
0
TABLE
2
STYLE
5
3
100
AcDbSymbolTable
70
1
0
STYLE
5
11
100
AcDbSymbolTableRecord
100
AcDbTextStyleTableRecord
2
STANDARD
70
0
0
ENDTAB
0
TABLE
2
VIEW
5
6
100
AcDbSymbolTable
70
0
0
ENDTAB
0
TABLE
2
UCS
5
7
100
AcDbSymbolTable
70
0
0
ENDTAB
0
TABLE
2
APPID
5
9
100
AcDbSymbolTable
70
2
0
APPID
5
12
100
AcDbSymbolTableRecord
100
AcDbRegAppTableRecord
2
ACAD
70
0
0
ENDTAB
0
TABLE
2
DIMSTYLE
5
A
100
AcDbSymbolTable
70
1
0
ENDTAB
0
TABLE
2
BLOCK_RECORD
5
1
100
AcDbSymbolTable
70
1
0
BLOCK_RECORD
5
1F
100
AcDbSymbolTableRecord
100
AcDbBlockTableRecord
2
*MODEL_SPACE
0
BLOCK_RECORD
5
1B
100
AcDbSymbolTableRecord
100
AcDbBlockTableRecord
2
*PAPER_SPACE
0
ENDTAB
0
ENDSEC
0
SECTION
2
BLOCKS
0
BLOCK
5
20
100
AcDbEntity
100
AcDbBlockBegin
2
*MODEL_SPACE
0
ENDBLK
5
21
100
AcDbEntity
100
AcDbBlockEnd
0
BLOCK
5
1C
100
AcDbEntity
100
AcDbBlockBegin
2
*PAPER_SPACE
0
ENDBLK
5
1D
100
AcDbEntity
100
AcDbBlockEnd
0
ENDSEC
0
SECTION
2
ENTITIES
0
LWPOLYLINE
5
100
100
AcDbEntity
8
0
100
AcDbPolyline
90
24
70
1
43
0.0
10
-79.202392018231848
20
-123.72624836771081
10
-79.575225131064627
20
-123.44024822733651
10
-80.009376546876453
20
-123.2604896156726
10
-80.475259564148857
20
-123.19922278503903
10
-80.941125025162833
20
-123.26062296869492
10
-81.375224968629311
20
-123.44050584559301
10
-81.747976200785189
20
-123.72661269494309
10
-82.033976341159516
20
-124.09944580777588
10
-82.213734952823359
20
-124.5335972235878
10
-82.275001783457071
20
-124.99948024086021
10
-82.213601599801081
20
-125.46534570187411
10
-82.033718722903018
20
-125.89944564534065
10
-81.747611873552898
20
-126.27219687749651
10
-81.374778760720119
20
-126.55819701787081
10
-80.940627344908279
20
-126.7379556295347
10
-80.474744327635861
20
-126.79922246016829
10
-80.008878866621899
20
-126.73782227651242
10
-79.574778923155407
20
-126.5579393996143
10
-79.202027690999572
20
-126.27183255026424
10
-78.916027550625216
20
-125.89899943743141
10
-78.736268938961359
20
-125.46484802161953
10
-78.675002108327675
20
-124.99896500434716
10
-78.736402291983666
20
-124.53309954333321
10
-78.916285168881728
20
-124.09899959986667
0
LWPOLYLINE
5
101
100
AcDbEntity
8
0
100
AcDbPolyline
90
4
70
1
43
0.0
10
223.27859850982611
20
-150.68176967407345
10
229.77859798982615
20
-150.68176967407345
10
229.77859798982615
20
-141.68177039407337
10
223.2785985098262
20
-141.68177039407337
0
LWPOLYLINE
5
102
100
AcDbEntity
8
0
100
AcDbPolyline
90
24
70
1
43
0.0
10
261.11867617805899
20
-145.95229192437182
10
261.29843478972282
20
-145.51814050856004
10
261.35970162035647
20
-145.05225749128766
10
261.29830143670051
20
-144.58639203027366
10
261.11841855980242
20
-144.15229208680717
10
260.83231171045236
20
-143.77954085465137
10
260.45947859761958
20
-143.49354071427692
10
260.02532718180771
20
-143.31378210261317
10
259.55944416453531
20
-143.25251527197943
10
259.09357870352142
20
-143.31391545563545
10
258.65947876005487
20
-143.49379833253357
10
258.28672752789907
20
-143.77990518188358
10
258.00072738752476
20
-144.15273829471647
10
257.82096877586093
20
-144.58688971052825
10
257.75970194522699
20
-145.05277272780066
10
257.82110212888313
20
-145.51863818881463
10
258.0009850057811
20
-145.95273813228107
10
258.28709185513134
20
-146.32548936443692
10
258.65992496796395
20
-146.61148950481132
10
259.09407638377593
20
-146.79124811647515
10
259.55995940104833
20
-146.85251494710886
10
260.02582486206222
20
-146.79111476345284
10
260.45992480552877
20
-146.61123188655472
10
260.83267603768462
20
-146.32512503720474
0
LWPOLYLINE
5
103
100
AcDbEntity
8
0
100
AcDbPolyline
90
24
70
1
43
0.0
10
-57.93706618289518
20
-128.2938609469918
10
-58.371017525741223
20
-128.47360947860875
10
-58.743659991837376
20
-128.75954809971131
10
-59.029598612940006
20
-129.13219056580749
10
-59.209347144556872
20
-129.56614190865352
10
-59.270656021306756
20
-130.031829061373
10
-59.209347144556872
20
-130.49751621409251
10
-59.029598612940013
20
-130.93146755693851
10
-58.743659991837383
20
-131.30411002303472
10
-58.371017525741223
20
-131.59004864413728
10
-57.93706618289518
20
-131.76979717575421
10
-57.471379030175683
20
-131.831106052504
10
-57.005691877456201
20
-131.76979717575421
10
-56.571740534610143
20
-131.59004864413728
10
-56.199098068513997
20
-131.30411002303472
10
-55.91315944741136
20
-130.93146755693851
10
-55.733410915794501
20
-130.49751621409251
10
-55.672102039044624
20
-130.031829061373
10
-55.733410915794501
20
-129.56614190865352
10
-55.91315944741136
20
-129.13219056580755
10
-56.199098068513997
20
-128.75954809971134
10
-56.571740534610143
20
-128.47360947860875
10
-57.005691877456201
20
-128.2938609469918
10
-57.471379030175683
20
-128.23255207024189
0
LWPOLYLINE
5
104
100
AcDbEntity
8
0
100
AcDbPolyline
90
24
70
1
43
0.0
10
241.24443226312457
20
-465.51090681968054
10
241.30569909375822
20
-465.04502380240814
10
241.24429891010232
20
-464.5791583413943
10
241.06441603320428
20
-464.14505839792776
10
240.77830918385422
20
-463.77230716577185
10
240.40547607102141
20
-463.48630702539759
10
239.97132465520963
20
-463.30654841373359
10
239.50544163793708
20
-463.24528158309994
10
239.03957617692322
20
-463.30668176675596
10
238.60547623345673
20
-463.48656464365405
10
238.23272500130082
20
-463.77267149300405
10
237.94672486092651
20
-464.145504605837
10
237.76696624926268
20
-464.57965602164876
10
237.70569941862902
20
-465.04553903892133
10
237.76709960228493
20
-465.51140449993511
10
237.94698247918305
20
-465.94550444340166
10
238.23308932853314
20
-466.31825567555751
10
238.60592244136592
20
-466.60425581593182
10
239.04007385717767
20
-466.78401442759582
10
239.50595687445008
20
-466.84528125822936
10
239.97182233546411
20
-466.7838810745734
10
240.40592227893057
20
-466.60399819767525
10
240.77867351108637
20
-466.31789134832525
10
241.06467365146079
20
-465.94505823549235
0
LWPOLYLINE
5
105
100
AcDbEntity
8
0
100
AcDbPolyline
90
46
70
1
43
0.0
10
209.52859960982602
20
-145.03182786137313
10
179.52860200982585
20
-145.03182786137313
10
174.52860240982588
20
-140.03182826137316
10
174.52860240982574
20
-124.96628600380117
10
174.36656649011246
20
-123.73550100022914
10
173.86620238081065
20
-122.52751518142804
10
173.07023802896865
20
-121.49019424223027
10
172.03291708977076
20
-120.69422989038816
10
170.82493127096973
20
-120.19386578108634
10
169.52860280982591
20
-120.02320090148316
10
168.23227434868187
20
-120.19386578108634
10
167.02428852988083
20
-120.69422989038813
10
165.98696759068304
20
-121.49019424223027
10
165.19100323884089
20
-122.52751518142816
10
164.69063912953914
20
-123.73550100022908
10
164.52860320982575
20
-124.96628600380134
10
164.52860320982575
20
-140.03182826137314
10
159.52860360982567
20
-145.0318278613731
10
114.52860720982544
20
-145.03182786137313
10
89.52860920982522
20
-120.03182986137304
10
79.528610009825229
20
-120.03182986137304
10
54.528612009825054
20
-145.03182786137313
10
9.528615609824751
20
-145.03182786137307
10
4.5286160098247308
20
-140.03182826137311
10
4.5286160098245354
20
-124.96628600380113
10
4.3665800901111673
20
-123.73550100022911
10
3.8662159808094465
20
-122.52751518142823
10
3.0702516289672666
20
-121.49019424223034
10
2.0329306897694366
20
-120.6942298903881
10
0.82494487096852254
20
-120.1938657810864
10
-0.47138359017547593
20
-120.02320090148319
10
-1.7677120513192435
20
-120.1938657810864
10
-2.9756978701202819
20
-120.6942298903881
10
-4.0130188093181118
20
-121.4901942422303
10
-4.8089831611602918
20
-122.52751518142819
10
-5.3093472704620304
20
-123.73550100022911
10
-5.4713831901753984
20
-124.96628600380113
10
-5.4713831901753629
20
-140.03182826137311
10
-10.471382790175383
20
-145.0318278613731
10
-40.471380390175568
20
-145.03182786137307
10
-45.471379990175592
20
-150.03182746137304
10
-45.47137999017562
20
-430.03180506137494
10
-40.471380390175611
20
-435.03180466137508
10
209.52859960982602
20
-435.03180466137508
10
214.52859920982618
20
-430.03180506137505
10
214.52859920982618
20
-150.03182746137315
0
LWPOLYLINE
5
106
100
AcDbEntity
8
0
100
AcDbPolyline
90
24
70
1
43
0.0
10
240.8188317724796
20
-146.32512503720474
10
241.10483191285397
20
-145.95229192437182
10
241.2845905245178
20
-145.51814050856004
10
241.34585735515145
20
-145.05225749128766
10
241.28445717149555
20
-144.58639203027366
10
241.10457429459757
20
-144.15229208680717
10
240.81846744524734
20
-143.77954085465137
10
240.44563433241456
20
-143.49354071427692
10
240.01148291660272
20
-143.31378210261317
10
239.5455998993304
20
-143.25251527197943
10
239.07973443831628
20
-143.31391545563545
10
238.64563449484996
20
-143.49379833253357
10
238.27288326269405
20
-143.77990518188358
10
237.98688312231974
20
-144.15273829471647
10
237.80712451065583
20
-144.58688971052825
10
237.74585768002211
20
-145.05277272780063
10
237.8072578636781
20
-145.51863818881463
10
237.98714074057619
20
-145.95273813228104
10
238.27324758992631
20
-146.32548936443692
10
238.64608070275915
20
-146.61148950481132
10
239.0802321185709
20
-146.79124811647515
10
239.54611513584331
20
-146.85251494710886
10
240.0119805968572
20
-146.79111476345284
10
240.44608054032381
20
-146.61123188655472
0
LWPOLYLINE
5
107
100
AcDbEntity
8
0
100
AcDbPolyline
90
24
70
1
43
0.0
10
227.40358615433081
20
-446.58555000584101
10
227.7763373864866
20
-446.29944315649095
10
228.06233752686097
20
-445.92661004365817
10
228.24209613852489
20
-445.49245862784636
10
228.3033629691586
20
-445.02657561057384
10
228.24196278550261
20
-444.56071014955995
10
228.06207990860452
20
-444.12661020609346
10
227.7759730592544
20
-443.75385897393755
10
227.40313994642156
20
-443.46785883356324
10
226.96898853060981
20
-443.28810022189936
10
226.5031055133374
20
-443.2268333912657
10
226.03724005232337
20
-443.28823357492178
10
225.60314010885705
20
-443.4681164518197
10
225.23038887670111
20
-443.75422330116982
10
224.94438873632669
20
-444.12705641400265
10
224.76463012466292
20
-444.56120782981441
10
224.7033632940292
20
-445.02709084708692
10
224.76476347768516
20
-445.49295630810082
10
224.94464635458314
20
-445.92705625156731
10
225.23075320393338
20
-446.29980748372327
10
225.60358631676607
20
-446.58580762409758
10
226.03773773257799
20
-446.76556623576147
10
226.5036207498504
20
-446.82683306639501
10
226.96948621086443
20
-446.76543288273905
0
LWPOLYLINE
5
108
100
AcDbEntity
8
0
100
AcDbPolyline
90
24
70
1
43
0.0
10
248.28016972252874
20
-126.31164509923192
10
248.65300283536172
20
-126.59764523960632
10
249.0871542511735
20
-126.77740385127012
10
249.55303726844585
20
-126.83867068190384
10
250.01890272945985
20
-126.77727049824784
10
250.4530026729264
20
-126.59738762134985
10
250.82575390508219
20
-126.31128077199978
10
251.11175404545648
20
-125.93844765916693
10
251.29151265712039
20
-125.50429624335507
10
251.35277948775405
20
-125.03841322608267
10
251.29137930409811
20
-124.57254776506875
10
251.1114964272
20
-124.13844782160223
10
250.8253895778499
20
-123.76569658944632
10
250.4525564650171
20
-123.47969644907207
10
250.01840504920528
20
-123.29993783740815
10
249.55252203193282
20
-123.23867100677444
10
249.08665657091888
20
-123.30007119043043
10
248.65255662745241
20
-123.47995406732856
10
248.27980539529653
20
-123.76606091667864
10
247.99380525492234
20
-124.13889402951142
10
247.81404664325839
20
-124.57304544532323
10
247.75277981262468
20
-125.03892846259563
10
247.8141799962807
20
-125.50479392360967
10
247.99406287317865
20
-125.93889386707616
0
LWPOLYLINE
5
109
100
AcDbEntity
8
0
100
AcDbPolyline
90
24
70
1
43
0.0
10
261.32414728559252
20
-465.04502380240814
10
261.26274710193672
20
-464.5791583413943
10
261.08286422503858
20
-464.14505839792776
10
260.79675737568834
20
-463.77230716577185
10
260.42392426285573
20
-463.48630702539759
10
259.98977284704392
20
-463.30654841373359
10
259.52388982977146
20
-463.24528158309994
10
259.0580243687574
20
-463.30668176675596
10
258.62392442529091
20
-463.48656464365405
10
258.25117319313512
20
-463.77267149300405
10
257.96517305276086
20
-464.145504605837
10
257.78541444109692
20
-464.57965602164876
10
257.72414761046326
20
-465.04553903892133
10
257.78554779411922
20
-465.51140449993511
10
257.9654306710172
20
-465.94550444340166
10
258.25153752036738
20
-466.31825567555751
10
258.62437063320021
20
-466.60425581593182
10
259.05852204901191
20
-466.78401442759582
10
259.52440506628443
20
-466.84528125822936
10
259.99027052729843
20
-466.7838810745734
10
260.42437047076487
20
-466.60399819767525
10
260.79712170292066
20
-466.31789134832525
10
261.08312184329515
20
-465.94505823549235
10
261.26288045495892
20
-465.51090681968054
0
LWPOLYLINE
5
110
100
AcDbEntity
8
0
100
AcDbPolyline
90
24
70
1
43
0.0
10
228.34541150766796
20
-130.04187429238391
10
228.28401132401197
20
-129.57600883136993
10
228.10412844711402
20
-129.14190888790341
10
227.81802159776385
20
-128.76915765574765
10
227.44518848493107
20
-128.48315751537325
10
227.01103706911931
20
-128.30339890370936
10
226.54515405184682
20
-128.24213207307577
10
226.07928859083287
20
-128.30353225673164
10
225.64518864736635
20
-128.48341513362976
10
225.27243741521048
20
-128.76952198297982
10
224.98643727483619
20
-129.14235509581263
10
224.80667866317225
20
-129.57650651162453
10
224.74541183253862
20
-130.0423895288969
10
224.80681201619456
20
-130.50825498991085
10
224.98669489309265
20
-130.94235493337732
10
225.27280174244277
20
-131.31510616553322
10
225.64563485527566
20
-131.60110630590754
10
226.07978627108736
20
-131.78086491757145
10
226.54566928835982
20
-131.84213174820516
10
227.01153474937377
20
-131.78073156454917
10
227.44563469284026
20
-131.60084868765108
10
227.81838592499605
20
-131.31474183830093
10
228.10438606537048
20
-130.94190872546815
10
228.28414467703425
20
-130.50775730965637
0
LWPOLYLINE
5
111
100
AcDbEntity
8
0
100
AcDbPolyline
90
24
70
1
43
0.0
10
-50.471379590175616
20
-109.23183072537292
10
-50.937253834090185
20
-109.29316423314592
10
-51.371379518175587
20
-109.47298497926863
10
-51.744171694488003
20
-109.75903847706053
10
-52.030225192279964
20
-110.13183065337287
10
-52.210045938402622
20
-110.56595633745832
10
-52.271379446175615
20
-111.03183058137287
10
-52.210045938402622
20
-111.49770482528751
10
-52.030225192279957
20
-111.93183050937293
10
-51.744171694488003
20
-112.30462268568533
10
-51.371379518175644
20
-112.59067618347726
10
-50.937253834090185
20
-112.77049692959989
10
-50.471379590175609
20
-112.83183043737289
10
-50.005505346261032
20
-112.77049692959989
10
-49.57137966217563
20
-112.59067618347721
10
-49.198587485863214
20
-112.30462268568533
10
-48.91253398807126
20
-111.93183050937293
10
-48.732713241948595
20
-111.49770482528751
10
-48.671379734175602
20
-111.03183058137287
10
-48.732713241948595
20
-110.56595633745832
10
-48.91253398807126
20
-110.13183065337287
10
-49.198587485863214
20
-109.7590384770605
10
-49.571379662175588
20
-109.47298497926859
10
-50.005505346261032
20
-109.29316423314592
0
LWPOLYLINE
5
112
100
AcDbEntity
8
0
100
AcDbPolyline
90
24
70
1
43
0.0
10
226.96898853060972
20
-288.28995473657164
10
226.50310551333732
20
-288.22868790593799
10
226.03724005232345
20
-288.29008808959395
10
225.60314010885691
20
-288.46997096649204
10
225.23038887670106
20
-288.75607781584216
10
224.94438873632669
20
-289.12891092867494
10
224.76463012466283
20
-289.56306234448681
10
224.70336329402912
20
-290.02894536175921
10
224.76476347768516
20
-290.49481082277316
10
224.9446463545832
20
-290.92891076623965
10
225.23075320393326
20
-291.3016619983955
10
225.60358631676615
20
-291.58766213876982
10
226.03773773257791
20
-291.7674207504337
10
226.5036207498504
20
-291.82868758106736
10
226.96948621086426
20
-291.76728739741139
10
227.40358615433081
20
-291.5874045205133
10
227.77633738648666
20
-291.30129767116324
10
228.06233752686103
20
-290.9284645583304
10
228.2420961385248
20
-290.49431314251854
10
228.30336296915851
20
-290.02843012524613
10
228.24196278550261
20
-289.56256466423218
10
228.06207990860443
20
-289.12846472076569
10
227.77597305925434
20
-288.7557134886099
10
227.40313994642165
20
-288.46971334823553
0
LWPOLYLINE
5
113
100
AcDbEntity
8
0
100
AcDbPolyline
90
24
70
1
43
0.0
10
38.628613281824954
20
-112.59067618347726
10
39.062738965910398
20
-112.77049692959989
10
39.528613209824982
20
-112.83183043737289
10
39.994487453739573
20
-112.77049692959991
10
40.428613137824968
20
-112.59067618347726
10
40.801405314137384
20
-112.30462268568533
10
41.087458811929345
20
-111.93183050937293
10
41.267279558051996
20
-111.49770482528751
10
41.328613065824996
20
-111.03183058137287
10
41.267279558051996
20
-110.56595633745832
10
41.087458811929345
20
-110.13183065337287
10
40.801405314137362
20
-109.7590384770605
10
40.42861313782501
20
-109.47298497926859
10
39.994487453739552
20
-109.29316423314592
10
39.528613209824961
20
-109.23183072537292
10
39.062738965910398
20
-109.29316423314592
10
38.628613281825004
20
-109.47298497926863
10
38.255821105512581
20
-109.75903847706053
10
37.969767607720627
20
-110.13183065337287
10
37.789946861597983
20
-110.56595633745832
10
37.728613353824976
20
-111.03183058137287
10
37.789946861597983
20
-111.49770482528751
10
37.969767607720627
20
-111.93183050937293
10
38.255821105512595
20
-112.30462268568533
0
LWPOLYLINE
5
114
100
AcDbEntity
8
0
100
AcDbPolyline
90
24
70
1
43
0.0
10
128.62860608182555
20
-112.59067618347729
10
129.06273176591097
20
-112.77049692959991
10
129.52860600982558
20
-112.83183043737296
10
129.99448025374019
20
-112.77049692959994
10
130.42860593782555
20
-112.59067618347729
10
130.80139811413798
20
-112.30462268568537
10
131.08745161192982
20
-111.93183050937296
10
131.26727235805254
20
-111.49770482528754
10
131.32860586582558
20
-111.0318305813729
10
131.26727235805254
20
-110.56595633745836
10
131.08745161192982
20
-110.1318306533729
10
130.80139811413798
20
-109.75903847706053
10
130.42860593782555
20
-109.47298497926866
10
129.99448025374014
20
-109.29316423314596
10
129.52860600982552
20
-109.23183072537296
10
129.06273176591097
20
-109.29316423314596
10
128.62860608182555
20
-109.47298497926866
10
128.25581390551312
20
-109.75903847706057
10
127.96976040772121
20
-110.1318306533729
10
127.78993966159858
20
-110.56595633745836
10
127.72860615382554
20
-111.0318305813729
10
127.78993966159858
20
-111.49770482528754
10
127.96976040772121
20
-111.93183050937296
10
128.25581390551312
20
-112.30462268568537
0
LWPOLYLINE
5
115
100
AcDbEntity
8
0
100
AcDbPolyline
90
24
70
1
43
0.0
10
218.62859888182618
20
-112.59067618347729
10
219.06272456591154
20
-112.77049692959991
10
219.52859880982624
20
-112.83183043737293
10
219.99447305374076
20
-112.77049692959991
10
220.42859873782604
20
-112.59067618347726
10
220.80139091413849
20
-112.30462268568537
10
221.08744441193045
20
-111.93183050937296
10
221.26726515805316
20
-111.49770482528754
10
221.32859866582621
20
-111.0318305813729
10
221.26726515805316
20
-110.56595633745836
10
221.08744441193045
20
-110.1318306533729
10
220.80139091413849
20
-109.75903847706053
10
220.42859873782604
20
-109.47298497926866
10
219.99447305374076
20
-109.29316423314596
10
219.52859880982624
20
-109.23183072537296
10
219.06272456591154
20
-109.29316423314596
10
218.62859888182618
20
-109.47298497926866
10
218.25580670551369
20
-109.75903847706053
10
217.96975320772177
20
-110.1318306533729
10
217.78993246159914
20
-110.56595633745836
10
217.72859895382624
20
-111.0318305813729
10
217.78993246159914
20
-111.49770482528754
10
217.96975320772177
20
-111.93183050937296
10
218.25580670551369
20
-112.30462268568537
0
LWPOLYLINE
5
116
100
AcDbEntity
8
0
100
AcDbPolyline
90
24
70
1
43
0.0
10
-88.710374940787631
20
-464.58905400882247
10
-88.890257817685679
20
-464.15495406535581
10
-89.176364667035827
20
-463.78220283320013
10
-89.549197779868607
20
-463.49620269282582
10
-89.983349195680404
20
-463.31644408116188
10
-90.449232212952808
20
-463.25517725052816
10
-90.915097673966798
20
-463.31657743418418
10
-91.349197617433305
20
-463.49646031108222
10
-91.72194884958914
20
-463.78256716043239
10
-92.007948989963481
20
-464.15540027326517
10
-92.187707601627338
20
-464.58955168907698
10
-92.248974432261036
20
-465.05543470634939
10
-92.18757424860506
20
-465.52130016736339
10
-92.007691371706983
20
-465.95540011082988
10
-91.721584522356849
20
-466.32815134298568
10
-91.348751409524056
20
-466.61415148336005
10
-90.914599993712244
20
-466.79391009502388
10
-90.44871697643984
20
-466.85517692565759
10
-89.982851515425864
20
-466.79377674200168
10
-89.548751571959372
20
-466.61389386510348
10
-89.176000339803522
20
-466.32778701575347
10
-88.890000199429196
20
-465.95495390292058
10
-88.710241587765353
20
-465.52080248710877
10
-88.64897475713164
20
-465.05491946983636
0
LWPOLYLINE
5
117
100
AcDbEntity
8
0
100
AcDbPolyline
90
4
70
1
43
0.0
10
229.77859798982607
20
-465.77457353887041
10
229.77859798982607
20
-456.77457425887036
10
223.27859850982611
20
-456.77457425887036
10
223.27859850982611
20
-465.77457353887041
0
LWPOLYLINE
5
118
100
AcDbEntity
8
0
100
AcDbPolyline
90
4
70
1
43
0.0
10
-54.221379290175726
20
-456.7745742588703
10
-60.721378770175733
20
-456.7745742588703
10
-60.721378770175733
20
-465.77457353887041
10
-54.221379290175726
20
-465.77457353887041
0
LWPOLYLINE
5
119
100
AcDbEntity
8
0
100
AcDbPolyline
90
24
70
1
43
0.0
10
-69.212969999290848
20
-143.7498880200275
10
-69.585803112123642
20
-143.46388787965321
10
-70.019954527935468
20
-143.2841292679893
10
-70.485837545207858
20
-143.22286243735562
10
-70.951703006221848
20
-143.28426262101164
10
-71.38580294968834
20
-143.46414549790973
10
-71.758554181844175
20
-143.75025234725979
10
-72.044554322218502
20
-144.1230854600926
10
-72.224312933882373
20
-144.55723687590441
10
-72.285579764516058
20
-145.02311989317681
10
-72.224179580860081
20
-145.48898535419079
10
-72.044296703962033
20
-145.9230852976572
10
-71.758189854611899
20
-146.29583652981322
10
-71.385356741779106
20
-146.58183667018741
10
-70.951205325967294
20
-146.7615952818513
10
-70.48532230869489
20
-146.82286211248504
10
-70.0194568476809
20
-146.76146192882902
10
-69.585356904214407
20
-146.58157905193104
10
-69.212605672058572
20
-146.2954722025809
10
-68.926605531684245
20
-145.92263908974812
10
-68.746846920020374
20
-145.48848767393619
10
-68.68558008938669
20
-145.02260465666384
10
-68.746980273042666
20
-144.55673919564981
10
-68.926863149940729
20
-144.12263925218332
0
LWPOLYLINE
5
120
100
AcDbEntity
8
0
100
AcDbPolyline
90
26
70
1
43
0.0
10
253.50212628936839
20
-119.06865079588876
10
254.53740238695616
20
-118.93235411194877
10
255.50212612936832
20
-118.53275245389835
10
256.33055318784039
20
-117.89707801436073
10
256.96622762737798
20
-117.06865095588878
10
257.36582928542822
20
-116.10392721347677
10
257.50212596936831
20
-115.06865111588877
10
257.36582928542822
20
-114.03337501830077
10
256.96622762737798
20
-113.06865127588878
10
256.33055318784034
20
-112.24022421741665
10
255.50212612936826
20
-111.60454977787907
10
254.53740238695616
20
-111.20494811982873
10
253.50212628936839
20
-111.06865143588863
10
245.43929626299382
20
-111.06865143588863
10
244.47088111455898
20
-111.20494811982873
10
243.50615737214702
20
-111.6045497778791
10
242.67773031367506
20
-112.24022421741668
10
242.04205587413747
20
-113.06865127588878
10
241.64245421608689
20
-114.03337501830077
10
241.50615753214703
20
-115.06865111588877
10
241.64245421608697
20
-116.10392721347677
10
242.04205587413747
20
-117.06865095588878
10
242.67773031367506
20
-117.89707801436073
10
243.50615737214702
20
-118.53275245389835
10
244.47088111455898
20
-118.93235411194877
10
245.50615721214706
20
-119.06865079588876
0
LWPOLYLINE
5
121
100
AcDbEntity
8
0
100
AcDbPolyline
90
24
70
1
43
0.0
10
-68.915930038315494
20
-464.1219386475388
10
-69.202036887665628
20
-463.74918741538295
10
-69.574870000498407
20
-463.46318727500864
10
-70.009021416310233
20
-463.28342866334469
10
-70.474904433582637
20
-463.22216183271109
10
-70.940769894596627
20
-463.28356201636711
10
-71.374869838063105
20
-463.46344489326509
10
-71.747621070218941
20
-463.74955174261521
10
-72.033621210593282
20
-464.12238485544805
10
-72.213379822257139
20
-464.55653627125992
10
-72.274646652890837
20
-465.02241928853221
10
-72.213246469234861
20
-465.48828474954621
10
-72.033363592336798
20
-465.9223846930127
10
-71.747256742986679
20
-466.29513592516849
10
-71.374423630153871
20
-466.58113606554286
10
-70.940272214342045
20
-466.76089467720669
10
-70.474389197069655
20
-466.82216150784052
10
-70.008523736055679
20
-466.7607613241845
10
-69.574423792589187
20
-466.58087844728641
10
-69.201672560433337
20
-466.29477159793629
10
-68.915672420058996
20
-465.92193848510357
10
-68.735913808395139
20
-465.48778706929164
10
-68.674646977761441
20
-465.02190405201929
10
-68.736047161417432
20
-464.55603859100535
0
LWPOLYLINE
5
122
100
AcDbEntity
8
0
100
AcDbPolyline
90
4
70
1
43
0.0
10
229.77859798982615
20
-433.47457612287036
10
229.77859798982615
20
-424.47457684287025
10
223.27859850982611
20
-424.47457684287025
10
223.27859850982611
20
-433.4745761228703
0
LWPOLYLINE
5
123
100
AcDbEntity
8
0
100
AcDbPolyline
90
4
70
1
43
0.0
10
223.27859850982611
20
-278.38181719337399
10
229.77859798982615
20
-278.38181719337399
10
229.77859798982615
20
-269.38181791337394
10
223.27859850982611
20
-269.38181791337394
0
LWPOLYLINE
5
124
100
AcDbEntity
8
0
100
AcDbPolyline
90
24
70
1
43
0.0
10
-92.203156971764315
20
-144.51244126146972
10
-92.264423802398014
20
-144.97832427874212
10
-92.203023618742037
20
-145.4441897397561
10
-92.023140741843989
20
-145.87828968322259
10
-91.737033892493841
20
-146.25104091537838
10
-91.364200779661047
20
-146.5370410557527
10
-90.930049363849221
20
-146.71679966741661
10
-90.464166346576818
20
-146.77806649805032
10
-89.998300885562827
20
-146.7166663143943
10
-89.564200942096349
20
-146.53678343749624
10
-89.191449709940514
20
-146.25067658814612
10
-88.905449569566173
20
-145.87784347531334
10
-88.725690957902316
20
-145.44369205950153
10
-88.664424127268617
20
-144.9778090422291
10
-88.725824310924608
20
-144.51194358121512
10
-88.905707187822685
20
-144.0778436377486
10
-89.191814037172804
20
-143.70509240559278
10
-89.564647150005584
20
-143.41909226521852
10
-89.998798565817395
20
-143.23933365355461
10
-90.464681583089828
20
-143.1780668229209
10
-90.93054704410379
20
-143.23946700657689
10
-91.364646987570268
20
-143.41934988347504
10
-91.737398219726103
20
-143.7054567328251
10
-92.023398360100472
20
-144.07828984565788
0
LWPOLYLINE
5
125
100
AcDbEntity
8
0
100
AcDbPolyline
90
4
70
1
43
0.0
10
-60.721378770175711
20
-278.38181719337393
10
-54.221379290175697
20
-278.38181719337393
10
-54.221379290175697
20
-269.38181791337394
10
-60.721378770175711
20
-269.38181791337394
0
LWPOLYLINE
5
126
100
AcDbEntity
8
0
100
AcDbPolyline
90
24
70
1
43
0.0
10
-56.59354526566873
20
-443.45557442125772
10
-57.028827275534574
20
-443.27857108172458
10
-57.495089245900949
20
-443.22025825887386
10
-57.96055619402172
20
-443.28460987521652
10
-58.3935073166029
20
-443.46724047444457
10
-58.764437710126231
20
-443.75570408303219
10
-59.048069081264501
20
-444.13034238276271
10
-59.225072420797666
20
-444.56562439262854
10
-59.283385243648333
20
-445.0318863629949
10
-59.219033627305777
20
-445.49735331111572
10
-59.0364030280777
20
-445.93030443369679
10
-58.747939419490095
20
-446.30123482722018
10
-58.373301119759581
20
-446.58486619835844
10
-57.938019109893744
20
-446.76186953789164
10
-57.471757139527362
20
-446.82018236074225
10
-57.006290191406592
20
-446.7558307443997
10
-56.573339068825419
20
-446.5732001451716
10
-56.202408675302081
20
-446.28473653658403
10
-55.918777304163811
20
-445.91009823685351
10
-55.741773964630653
20
-445.47481622698768
10
-55.683461141779986
20
-445.00855425662132
10
-55.747812758122549
20
-444.54308730850062
10
-55.930443357350612
20
-444.11013618591932
10
-56.218906965938224
20
-443.73920579239604
0
LWPOLYLINE
5
127
100
AcDbEntity
8
0
100
AcDbPolyline
90
24
70
1
43
0.0
10
-58.743630438634881
20
-288.75894018221749
10
-59.029630579009236
20
-289.13177329505027
10
-59.209389190673079
20
-289.56592471086213
10
-59.270656021306785
20
-290.03180772813454
10
-59.209255837650794
20
-290.49767318914849
10
-59.029372960752738
20
-290.93177313261498
10
-58.743266111402619
20
-291.30452436477083
10
-58.370432998569825
20
-291.59052450514514
10
-57.936281582758006
20
-291.77028311680903
10
-57.470398565485596
20
-291.83154994744268
10
-57.004533104471605
20
-291.77014976378678
10
-56.57043316100512
20
-291.59026688688863
10
-56.197681928849292
20
-291.30416003753857
10
-55.911681788474951
20
-290.93132692470579
10
-55.731923176811094
20
-290.49717550889392
10
-55.670656346177395
20
-290.03129249162151
10
-55.732056529833372
20
-289.56542703060757
10
-55.911939406731435
20
-289.13132708714107
10
-56.198046256081554
20
-288.75857585498522
10
-56.570879368914355
20
-288.47257571461091
10
-57.005030784726173
20
-288.29281710294703
10
-57.470913801998584
20
-288.23155027231331
10
-57.936779263012561
20
-288.29295045596933
10
-58.370879206479039
20
-288.47283333286737
0
LWPOLYLINE
5
128
100
AcDbEntity
8
0
100
AcDbPolyline
90
29
70
1
43
0.0
10
-76.035367640329824
20
-119.06865079588871
10
-75.000091542741941
20
-118.93235411194873
10
-74.035367800329851
20
-118.53275245389831
10
-73.206940741857736
20
-117.89707801436069
10
-72.571266302320197
20
-117.06865095588874
10
-72.171664644269924
20
-116.10392721347672
10
-72.035367960329808
20
-115.06865111588873
10
-72.171664644269924
20
-114.03337501830073
10
-72.571266302320197
20
-113.06865127588875
10
-73.206940741857736
20
-112.24022421741662
10
-74.035367800329851
20
-111.60454977787907
10
-75.000091542741941
20
-111.20494811982869
10
-76.035367640329824
20
-111.0686514358886
10
-80.191695033053747
20
-111.0686514358886
10
-80.471377190175843
20
-111.03183058137287
10
-80.751059347297925
20
-111.0686514358886
10
-84.098197666704394
20
-111.0686514358886
10
-85.066612815139109
20
-111.20494811982869
10
-86.031336557551157
20
-111.60454977787907
10
-86.859763616023088
20
-112.24022421741662
10
-87.495438055560669
20
-113.06865127588871
10
-87.895039713611141
20
-114.03337501830073
10
-88.031336397551058
20
-115.06865111588873
10
-87.895039713611141
20
-116.10392721347672
10
-87.495438055560669
20
-117.06865095588874
10
-86.859763616023088
20
-117.89707801436069
10
-86.031336557551143
20
-118.53275245389831
10
-85.066612815139109
20
-118.93235411194873
10
-84.031336717551085
20
-119.06865079588871
0
LWPOLYLINE
5
129
100
AcDbEntity
8
0
100
AcDbPolyline
90
4
70
1
43
0.0
10
-60.721378770175733
20
-433.4745761228703
10
-54.221379290175719
20
-433.4745761228703
10
-54.221379290175719
20
-424.47457684287019
10
-60.721378770175733
20
-424.47457684287019
0
LWPOLYLINE
5
130
100
AcDbEntity
8
0
100
AcDbPolyline
90
4
70
1
43
0.0
10
223.27859850982611
20
-310.68181460937421
10
229.77859798982615
20
-310.68181460937421
10
229.77859798982615
20
-301.68181532937416
10
223.27859850982611
20
-301.68181532937416
0
LWPOLYLINE
5
131
100
AcDbEntity
8
0
100
AcDbPolyline
90
4
70
1
43
0.0
10
-60.721378770175711
20
-301.6818153293741
10
-60.721378770175711
20
-310.68181460937416
10
-54.221379290175705
20
-310.68181460937416
10
-54.221379290175705
20
-301.6818153293741
0
LWPOLYLINE
5
132
100
AcDbEntity
8
0
100
AcDbPolyline
90
4
70
1
43
0.0
10
-54.221379290175676
20
-141.68177039407334
10
-60.72137877017569
20
-141.68177039407331
10
-60.72137877017569
20
-150.68176967407342
10
-54.221379290175676
20
-150.68176967407342
0
LWPOLYLINE
5
133
100
AcDbEntity
8
0
100
AcDbPolyline
90
12
70
1
43
0.0
10
269.52859480982636
20
-109.84008226189502
10
269.5285948098263
20
-470.03180186137524
10
264.52859520982645
20
-475.03180146137527
10
-95.471375990176
20
-475.03180146137527
10
-100.47137559017598
20
-470.03180186137524
10
-100.47137559017594
20
-110.03183066137285
10
-95.4713759901759
20
-105.03183106137288
10
-75.471377590175763
20
-105.03183106137288
10
-73.47137775017579
20
-107.0318309013729
10
242.52859696982631
20
-107.0318309013729
10
244.52859680982635
20
-105.03183106137288
10
264.52859520982651
20
-105.03183106137293
0
LWPOLYLINE
5
134
100
AcDbEntity
8
0
100
AcDbPolyline
90
24
70
1
43
0.0
10
3.0989696685681434
20
-320.03181386137419
10
3.1500809250456552
20
-320.42004239796972
10
3.2999315468145429
20
-320.78181380137426
10
3.5383094616411803
20
-321.09247394830118
10
3.8489696085681491
20
-321.3308518631278
10
4.2107410119726563
20
-321.48070248489671
10
4.5989695485681636
20
-321.53181374137426
10
4.9871980851636888
20
-321.48070248489671
10
5.3489694885681871
20
-321.3308518631278
10
5.6596296354951559
20
-321.09247394830118
10
5.8980075503218021
20
-320.78181380137426
10
6.047858172090681
20
-320.42004239796972
10
6.0989694285682106
20
-320.03181386137419
10
6.047858172090681
20
-319.64358532477866
10
5.8980075503217932
20
-319.28181392137418
10
5.6596296354951559
20
-318.9711537744472
10
5.3489694885681871
20
-318.73277585962057
10
4.9871980851636888
20
-318.58292523785167
10
4.5989695485681636
20
-318.53181398137417
10
4.2107410119726474
20
-318.58292523785167
10
3.848969608568158
20
-318.73277585962057
10
3.5383094616411803
20
-318.9711537744472
10
3.299931546814534
20
-319.28181392137418
10
3.1500809250456552
20
-319.64358532477866
0
LWPOLYLINE
5
135
100
AcDbEntity
8
0
100
AcDbPolyline
90
8
70
1
43
0.0
10
49.59896594856842
20
-295.03181586137407
10
29.598967548568318
20
-315.03181426137417
10
29.598967548568318
20
-325.03181346137421
10
49.59896594856842
20
-345.03181186137442
10
59.598965148568524
20
-345.03181186137442
10
79.598963548568648
20
-325.03181346137421
10
79.598963548568634
20
-315.03181426137422
10
59.598965148568524
20
-295.03181586137407
0
LWPOLYLINE
5
136
100
AcDbEntity
8
0
100
AcDbPolyline
90
24
70
1
43
0.0
10
100.46216898422443
20
-341.57673029199515
10
100.8349202163803
20
-341.29062344264514
10
101.12092035675462
20
-340.91779032981231
10
101.30067896841851
20
-340.48363891400044
10
101.36194579905219
20
-340.01775589672803
10
101.3005456153962
20
-339.55189043571409
10
101.12066273849813
20
-339.11779049224765
10
100.83455588914802
20
-338.74503926009169
10
100.4617227763152
20
-338.45903911971737
10
100.02757136050346
20
-338.27928050805349
10
99.561688343231054
20
-338.21801367741983
10
99.095822882217021
20
-338.2794138610758
10
98.661722938750529
20
-338.45929673797394
10
98.288971706594708
20
-338.74540358732395
10
98.002971566220339
20
-339.11823670015679
10
97.823212954556524
20
-339.55238811596865
10
97.761946123922812
20
-340.01827113324111
10
97.823346307578731
20
-340.48413659425501
10
98.003229184476837
20
-340.91823653772155
10
98.289336033827055
20
-341.2909877698774
10
98.662169146659693
20
-341.57698791025166
10
99.096320562471647
20
-341.7567465219156
10
99.562203579744022
20
-341.81801335254926
10
100.02806904075804
20
-341.75661316889324
0
LWPOLYLINE
5
137
100
AcDbEntity
8
0
100
AcDbPolyline
90
4
70
1
43
0.0
10
167.59895650856907
20
-395.03180786137472
10
127.59895970856891
20
-355.03181106137447
10
71.598964188568615
20
-355.03181106137447
10
31.598967388568333
20
-395.03180786137472
0
LWPOLYLINE
5
138
100
AcDbEntity
8
0
100
AcDbPolyline
90
24
70
1
43
0.0
10
100.02757136050342
20
-297.29948750432169
10
99.561688343231054
20
-297.23822067368803
10
99.095822882217021
20
-297.299620857344
10
98.661722938750529
20
-297.47950373424209
10
98.288971706594708
20
-297.76561058359215
10
98.002971566220339
20
-298.13844369642493
10
97.823212954556524
20
-298.5725951122368
10
97.761946123922812
20
-299.0384781295092
10
97.823346307578731
20
-299.50434359052315
10
98.003229184476837
20
-299.93844353398964
10
98.289336033827055
20
-300.31119476614555
10
98.662169146659693
20
-300.5971949065198
10
99.096320562471647
20
-300.77695351818369
10
99.562203579744022
20
-300.8382203488174
10
100.02806904075804
20
-300.77682016516144
10
100.46216898422443
20
-300.59693728826335
10
100.8349202163803
20
-300.31083043891323
10
101.12092035675462
20
-299.93799732608045
10
101.30067896841851
20
-299.50384591026858
10
101.36194579905219
20
-299.03796289299623
10
101.30054561539623
20
-298.57209743198223
10
101.12066273849813
20
-298.13799748851574
10
100.83455588914802
20
-297.76524625635989
10
100.4617227763152
20
-297.47924611598557
0
LWPOLYLINE
5
139
100
AcDbEntity
8
0
100
AcDbPolyline
90
4
70
1
43
0.0
10
31.5286138498249
20
-245.03181986137378
10
71.528610649825097
20
-285.03181666137402
10
127.59895970856891
20
-285.03181666137402
10
167.59895650856907
20
-245.03181986137375
0
LWPOLYLINE
5
140
100
AcDbEntity
8
0
100
AcDbPolyline
90
24
70
1
43
0.0
10
175.34895588856924
20
-283.73277865962041
10
174.9871844851647
20
-283.5829280378515
10
174.5989559485692
20
-283.531816781374
10
174.21072741197372
20
-283.5829280378515
10
173.84895600856925
20
-283.73277865962041
10
173.53829586164221
20
-283.97115657444704
10
173.29991794681561
20
-284.28181672137396
10
173.15006732504671
20
-284.64358812477849
10
173.09895606856924
20
-285.03181666137402
10
173.15006732504671
20
-285.4200451979695
10
173.29991794681561
20
-285.78181660137403
10
173.53829586164221
20
-286.09247674830101
10
173.84895600856925
20
-286.33085466312758
10
174.21072741197375
20
-286.48070528489649
10
174.5989559485692
20
-286.53181654137404
10
174.9871844851647
20
-286.48070528489649
10
175.34895588856924
20
-286.33085466312764
10
175.65961603549621
20
-286.09247674830101
10
175.89799395032293
20
-285.78181660137403
10
176.04784457209172
20
-285.4200451979695
10
176.09895582856922
20
-285.03181666137402
10
176.04784457209175
20
-284.64358812477849
10
175.89799395032293
20
-284.28181672137396
10
175.65961603549621
20
-283.97115657444704
0
LWPOLYLINE
5
141
100
AcDbEntity
8
0
100
AcDbPolyline
90
52
70
1
43
0.0
10
189.59895474856927
20
-274.03181754137393
10
189.56473419680219
20
-273.50971281426212
10
189.46265806462932
20
-272.99654144378593
10
189.29447290297304
20
-272.50108393437228
10
189.06305640657894
20
-272.03181770137394
10
188.7723681758612
20
-271.59677202014268
10
188.42738196704144
20
-271.20339064290187
10
188.03400058980063
20
-270.85840443408205
10
187.59895490856931
20
-270.56771620336428
10
187.12968867557097
20
-270.33629970697018
10
186.63423116615729
20
-270.16811454531393
10
186.12105979568111
20
-270.06603841314103
10
185.59895506856932
20
-270.03181786137395
10
183.59895522856931
20
-270.03181786137395
10
183.0768505014575
20
-270.06603841314103
10
182.56367913098128
20
-270.16811454531393
10
182.0682216215676
20
-270.33629970697018
10
181.59895538856932
20
-270.56771620336428
10
181.16390970733815
20
-270.85840443408205
10
180.77052833009731
20
-271.20339064290187
10
180.42554212127743
20
-271.59677202014268
10
180.13485389055973
20
-272.03181770137394
10
179.90343739416548
20
-272.50108393437228
10
179.73525223250925
20
-272.99654144378593
10
179.63317610033641
20
-273.50971281426212
10
179.59895554856928
20
-274.03181754137393
10
179.59895554856928
20
-297.03181570137411
10
179.63317610033641
20
-297.55392042848592
10
179.73525223250925
20
-298.06709179896211
10
179.90343739416548
20
-298.56254930837576
10
180.13485389055973
20
-299.0318155413741
10
180.42554212127743
20
-299.46686122260536
10
180.77052833009731
20
-299.86024259984612
10
181.16390970733815
20
-300.20522880866599
10
181.59895538856932
20
-300.49591703938376
10
182.06822162156766
20
-300.7273335357778
10
182.56367913098128
20
-300.89551869743411
10
183.0768505014575
20
-300.99759482960701
10
183.59895522856928
20
-301.03181538137414
10
185.59895506856932
20
-301.03181538137414
10
186.12105979568111
20
-300.99759482960701
10
186.63423116615729
20
-300.89551869743411
10
187.129688675571
20
-300.7273335357778
10
187.59895490856931
20
-300.49591703938376
10
188.03400058980063
20
-300.20522880866599
10
188.42738196704144
20
-299.86024259984612
10
188.7723681758612
20
-299.46686122260536
10
189.06305640657894
20
-299.0318155413741
10
189.29447290297304
20
-298.56254930837576
10
189.46265806462932
20
-298.06709179896211
10
189.56473419680219
20
-297.55392042848592
10
189.59895474856927
20
-297.03181570137411
0
LWPOLYLINE
5
142
100
AcDbEntity
8
0
100
AcDbPolyline
90
24
70
1
43
0.0
10
-6.1842040542851429
20
-214.24864785851935
10
-6.4702575520775163
20
-214.62144003483138
10
-6.6500782982007589
20
-215.0555657189166
10
-6.7114118059743033
20
-215.5214399628311
10
-6.6500782982018913
20
-215.98731420674574
10
-6.4702575520797723
20
-216.42143989083141
10
-6.1842040542883092
20
-216.79423206714418
10
-5.8114118779762158
20
-217.08028556493659
10
-5.3772861938910266
20
-217.26010631105979
10
-4.9114119499765074
20
-217.3214398188334
10
-4.4455377060618328
20
-217.26010631106092
10
-4.0114120219762084
20
-217.08028556493878
10
-3.6386198456634311
20
-216.79423206714733
10
-3.3525663478710577
20
-216.4214398908353
10
-3.1727456017478284
20
-215.98731420675009
10
-3.111412093974284
20
-215.52143996283553
10
-3.172745601746696
20
-215.05556571892089
10
-3.352566347868815
20
-214.62144003483525
10
-3.6386198456602736
20
-214.24864785852247
10
-4.011412021972367
20
-213.96259436073009
10
-4.4455377060575474
20
-213.7827736146069
10
-4.9114119499720843
20
-213.72144010683328
10
-5.3772861938867367
20
-213.78277361460573
10
-5.8114118779723745
20
-213.96259436072791
0
LWPOLYLINE
5
143
100
AcDbEntity
8
0
100
AcDbPolyline
90
24
70
1
43
0.0
10
23.09896806856824
20
-320.03181386137419
10
23.150079325045745
20
-320.42004239796972
10
23.299929946814622
20
-320.78181380137426
10
23.538307861641272
20
-321.09247394830118
10
23.848968008568221
20
-321.3308518631278
10
24.210739411972753
20
-321.48070248489671
10
24.598967948568262
20
-321.53181374137426
10
24.987196485163786
20
-321.48070248489671
10
25.348967888568296
20
-321.3308518631278
10
25.659628035495246
20
-321.09247394830118
10
25.898005950321902
20
-320.78181380137426
10
26.047856572090751
20
-320.42004239796972
10
26.098967828568298
20
-320.03181386137419
10
26.047856572090762
20
-319.64358532477866
10
25.898005950321902
20
-319.28181392137418
10
25.659628035495246
20
-318.9711537744472
10
25.348967888568296
20
-318.73277585962057
10
24.987196485163786
20
-318.58292523785167
10
24.598967948568262
20
-318.53181398137417
10
24.210739411972753
20
-318.58292523785167
10
23.848968008568228
20
-318.73277585962057
10
23.538307861641279
20
-318.9711537744472
10
23.299929946814622
20
-319.28181392137418
10
23.150079325045745
20
-319.64358532477866
0
LWPOLYLINE
5
144
100
AcDbEntity
8
0
100
AcDbPolyline
90
24
70
1
43
0.0
10
193.15006572504683
20
-284.64358812477849
10
193.0989544685693
20
-285.03181666137402
10
193.15006572504683
20
-285.4200451979695
10
193.29991634681579
20
-285.78181660137403
10
193.53829426164225
20
-286.09247674830107
10
193.84895440856945
20
-286.33085466312764
10
194.21072581197393
20
-286.48070528489649
10
194.59895434856929
20
-286.53181654137404
10
194.98718288516477
20
-286.48070528489649
10
195.3489542885693
20
-286.33085466312764
10
195.65961443549642
20
-286.09247674830107
10
195.89799235032291
20
-285.78181660137403
10
196.04784297209181
20
-285.4200451979695
10
196.09895422856943
20
-285.03181666137402
10
196.04784297209181
20
-284.64358812477849
10
195.89799235032291
20
-284.28181672137396
10
195.65961443549639
20
-283.97115657444704
10
195.3489542885693
20
-283.73277865962041
10
194.98718288516477
20
-283.5829280378515
10
194.59895434856929
20
-283.531816781374
10
194.21072581197393
20
-283.5829280378515
10
193.84895440856945
20
-283.73277865962041
10
193.53829426164228
20
-283.97115657444704
10
193.29991634681579
20
-284.28181672137396
0
LWPOLYLINE
5
145
100
AcDbEntity
8
0
100
AcDbPolyline
90
52
70
1
43
0.0
10
15.598968668568167
20
-334.89468906526696
10
16.121073395679993
20
-334.86046851349988
10
16.634244766156215
20
-334.75839238132698
10
17.129702275569862
20
-334.59020721967073
10
17.598968508568184
20
-334.35879072327657
10
18.034014189799414
20
-334.06810249255886
10
18.427395567040207
20
-333.72311628373899
10
18.77238177586004
20
-333.32973490649817
10
19.063070006577796
20
-332.89468922526692
10
19.294486502971946
20
-332.42542299226864
10
19.462671664628264
20
-331.92996548285498
10
19.564747796801136
20
-331.4167941123788
10
19.598968348568178
20
-330.89468938526693
10
19.598968348568189
20
-307.89469122526685
10
19.564747796801143
20
-307.37258649815499
10
19.462671664628274
20
-306.8594151276788
10
19.294486502971957
20
-306.36395761826515
10
19.063070006577803
20
-305.89469138526687
10
18.772381775860048
20
-305.45964570403561
10
18.427395567040215
20
-305.06626432679479
10
18.034014189799422
20
-304.72127811797492
10
17.598968508568191
20
-304.43058988725716
10
17.129702275569869
20
-304.19917339086311
10
16.634244766156225
20
-304.0309882292068
10
16.121073395680003
20
-303.92891209703396
10
15.598968668568176
20
-303.89469154526682
10
13.59896882856817
20
-303.89469154526682
10
13.076864101456334
20
-303.92891209703396
10
12.563692730980218
20
-304.0309882292068
10
12.068235221566557
20
-304.19917339086311
10
11.598968988568155
20
-304.43058988725716
10
11.163923307336914
20
-304.72127811797492
10
10.770541930096114
20
-305.06626432679479
10
10.425555721276298
20
-305.45964570403561
10
10.134867490558541
20
-305.89469138526687
10
9.9034509941644799
20
-306.36395761826515
10
9.7352658325081531
20
-306.8594151276788
10
9.6331897003352918
20
-307.37258649815499
10
9.5989691485681483
20
-307.89469122526685
10
9.5989691485681394
20
-330.89468938526693
10
9.6331897003352918
20
-331.4167941123788
10
9.7352658325081443
20
-331.92996548285493
10
9.9034509941644711
20
-332.42542299226864
10
10.134867490558532
20
-332.89468922526692
10
10.425555721276289
20
-333.32973490649817
10
10.770541930096105
20
-333.72311628373899
10
11.163923307336905
20
-334.06810249255886
10
11.598968988568146
20
-334.35879072327657
10
12.068235221566548
20
-334.59020721967073
10
12.563692730980209
20
-334.75839238132698
10
13.076864101456325
20
-334.86046851349988
10
13.598968828568161
20
-334.89468906526702
0
LWPOLYLINE
5
146
100
AcDbEntity
8
0
100
AcDbPolyline
90
24
70
1
43
0.0
10
196.04784297209181
20
-354.64358252477894
10
195.89799235032291
20
-354.28181112137446
10
195.65961443549642
20
-353.97115097444748
10
195.3489542885693
20
-353.73277305962085
10
194.98718288516477
20
-353.58292243785195
10
194.59895434856929
20
-353.53181118137445
10
194.21072581197393
20
-353.58292243785195
10
193.84895440856945
20
-353.73277305962085
10
193.53829426164228
20
-353.97115097444748
10
193.29991634681585
20
-354.28181112137446
10
193.15006572504683
20
-354.64358252477894
10
193.0989544685693
20
-355.03181106137447
10
193.15006572504683
20
-355.42003959797
10
193.29991634681579
20
-355.78181100137448
10
193.53829426164228
20
-356.09247114830146
10
193.84895440856945
20
-356.33084906312808
10
194.21072581197393
20
-356.48069968489699
10
194.59895434856929
20
-356.53181094137449
10
194.98718288516477
20
-356.48069968489699
10
195.3489542885693
20
-356.33084906312808
10
195.65961443549642
20
-356.09247114830146
10
195.89799235032297
20
-355.78181100137448
10
196.04784297209181
20
-355.42003959797
10
196.09895422856943
20
-355.03181106137447
0
LWPOLYLINE
5
147
100
AcDbEntity
8
0
100
AcDbPolyline
90
24
70
1
43
0.0
10
-5.8114118779724455
20
-426.10103336202093
10
-5.3772861938869143
20
-426.28085410814327
10
-4.9114119499722442
20
-426.34218761591598
10
-4.4455377060577073
20
-426.28085410814271
10
-4.0114120219724336
20
-426.10103336201973
10
-3.6386198456602159
20
-425.81497986422744
10
-3.3525663478685352
20
-425.44218768791495
10
-3.1727456017461808
20
-425.00806200382942
10
-3.1114120939735024
20
-424.54218775991473
10
-3.172745601746807
20
-424.07631351600014
10
-3.352566347869792
20
-423.6421878319149
10
-3.6386198456619656
20
-423.26939565560269
10
-4.0114120219745564
20
-422.98334215781097
10
-4.4455377060601009
20
-422.80352141168862
10
-4.9114119499747666
20
-422.74218790391592
10
-5.3772861938893035
20
-422.8035214116893
10
-5.8114118779745771
20
-422.98334215781216
10
-6.1842040542867949
20
-423.2693956556044
10
-6.4702575520784844
20
-423.642187831917
10
-6.6500782982008388
20
-424.07631351600259
10
-6.7114118059735084
20
-424.54218775991717
10
-6.6500782982002038
20
-425.0080620038317
10
-6.4702575520772232
20
-425.442187687917
10
-6.1842040542850452
20
-425.81497986422931
0
LWPOLYLINE
5
148
100
AcDbEntity
8
0
100
AcDbPolyline
90
52
70
1
43
0.0
10
189.59895474856927
20
-344.03884883685566
10
189.56473419680219
20
-343.51674410974385
10
189.46265806462932
20
-343.00357273926761
10
189.29447290297304
20
-342.50811522985401
10
189.06305640657894
20
-342.03884899685562
10
188.7723681758612
20
-341.60380331562436
10
188.42738196704144
20
-341.21042193838366
10
188.03400058980063
20
-340.86543572956379
10
187.59895490856931
20
-340.57474749884602
10
187.12968867557097
20
-340.34333100245192
10
186.63423116615729
20
-340.17514584079561
10
186.12105979568113
20
-340.07306970862271
10
185.59895506856932
20
-340.03884915685558
10
183.59895522856931
20
-340.03884915685558
10
183.0768505014575
20
-340.07306970862271
10
182.56367913098128
20
-340.17514584079561
10
182.0682216215676
20
-340.34333100245192
10
181.59895538856932
20
-340.57474749884602
10
181.16390970733815
20
-340.86543572956379
10
180.77052833009731
20
-341.21042193838366
10
180.4255421212774
20
-341.60380331562436
10
180.13485389055973
20
-342.03884899685562
10
179.90343739416548
20
-342.50811522985401
10
179.73525223250925
20
-343.00357273926761
10
179.63317610033641
20
-343.51674410974385
10
179.59895554856928
20
-344.03884883685566
10
179.59895554856928
20
-367.0388469968558
10
179.63317610033641
20
-367.56095172396761
10
179.73525223250925
20
-368.07412309444385
10
179.90343739416548
20
-368.56958060385745
10
180.13485389055973
20
-369.03884683685584
10
180.42554212127743
20
-369.4738925180871
10
180.77052833009733
20
-369.86727389532791
10
181.16390970733815
20
-370.21226010414762
10
181.59895538856932
20
-370.50294833486544
10
182.06822162156766
20
-370.7343648312596
10
182.56367913098128
20
-370.90254999291585
10
183.0768505014575
20
-371.00462612508869
10
183.59895522856931
20
-371.03884667685583
10
185.59895506856932
20
-371.03884667685583
10
186.12105979568111
20
-371.00462612508869
10
186.63423116615729
20
-370.90254999291585
10
187.12968867557097
20
-370.7343648312596
10
187.59895490856931
20
-370.50294833486544
10
188.03400058980063
20
-370.21226010414762
10
188.42738196704147
20
-369.86727389532791
10
188.7723681758612
20
-369.4738925180871
10
189.06305640657894
20
-369.03884683685584
10
189.29447290297304
20
-368.5695806038575
10
189.46265806462932
20
-368.07412309444379
10
189.56473419680219
20
-367.56095172396761
10
189.59895474856927
20
-367.0388469968558
0
LWPOLYLINE
5
149
100
AcDbEntity
8
0
100
AcDbPolyline
90
25
70
1
43
0.0
10
202.55049024500312
20
-425.44218768791927
10
202.8365437427951
20
-425.81497986423176
10
203.2093359191075
20
-426.1010333620236
10
203.64346160319292
20
-426.28085410814629
10
204.10933584710756
20
-426.34218761591922
10
204.52860000982594
20
-426.28180536137501
10
204.57521009102209
20
-426.28085410814617
10
205.00933577510753
20
-426.1010333620236
10
205.38212795141993
20
-425.81497986423165
10
205.66818144921177
20
-425.44218768791927
10
205.84800219533446
20
-425.0080620038338
10
205.90933570310753
20
-424.54218775991927
10
205.84800219533446
20
-424.07631351600463
10
205.66818144921177
20
-423.64218783191922
10
205.38212795141985
20
-423.26939565560684
10
205.00933577510744
20
-422.98334215781495
10
204.57521009102203
20
-422.80352141169226
10
204.10933584710756
20
-422.74218790391927
10
203.6434616031928
20
-422.80352141169226
10
203.20933591910745
20
-422.98334215781495
10
202.83654374279504
20
-423.26939565560684
10
202.55049024500312
20
-423.64218783191922
10
202.37066949888037
20
-424.07631351600463
10
202.30933599110745
20
-424.54218775991927
10
202.37066949888037
20
-425.0080620038338
0
LWPOLYLINE
5
150
100
AcDbEntity
8
0
100
AcDbPolyline
90
8
70
1
43
0.0
10
119.5989603485688
20
-325.03181346137433
10
139.598958748569
20
-345.03181186137442
10
159.5989571485691
20
-345.03181186137442
10
179.59895554856928
20
-325.03181346137433
10
179.59895554856928
20
-315.03181426137422
10
159.5989571485691
20
-295.03181586137407
10
139.598958748569
20
-295.03181586137407
10
119.5989603485688
20
-315.03181426137422
0
LWPOLYLINE
5
151
100
AcDbEntity
8
0
100
AcDbPolyline
90
24
70
1
43
0.0
10
205.36781521209303
20
-216.82915015457007
10
205.65801961821111
20
-216.45958011656862
10
205.84268378464952
20
-216.02749244496439
10
205.90922315363719
20
-215.56233320051854
10
205.85310317713942
20
-215.09580221702802
10
205.67814833881172
20
-214.65969281003885
10
205.39628152175959
20
-214.28372511493245
10
205.02671148375816
20
-213.99352070881432
10
204.59462381215405
20
-213.80885654237591
10
204.12946456770811
20
-213.74231717338813
10
203.66293358421751
20
-213.79843714988596
10
203.22682417722831
20
-213.97339198821368
10
202.85085648212191
20
-214.25525880526581
10
202.56065207600375
20
-214.62482884326721
10
202.3759879095654
20
-215.05691651487149
10
202.30944854057759
20
-215.52207575931732
10
202.3655685170755
20
-215.9886067428078
10
202.5405233554032
20
-216.42471614979701
10
202.82239017245533
20
-216.80068384490343
10
203.19196021045673
20
-217.09088825102154
10
203.62404788206092
20
-217.27555241745992
10
204.08920712650681
20
-217.34209178644775
10
204.55573810999732
20
-217.28597180994993
10
204.99184751698652
20
-217.11101697162218
0
LWPOLYLINE
5
152
100
AcDbEntity
8
0
100
AcDbPolyline
90
24
70
1
43
0.0
10
173.84895600856925
20
-356.33084906312808
10
174.21072741197372
20
-356.48069968489699
10
174.5989559485692
20
-356.53181094137449
10
174.9871844851647
20
-356.48069968489699
10
175.34895588856924
20
-356.33084906312808
10
175.65961603549621
20
-356.09247114830146
10
175.89799395032293
20
-355.78181100137448
10
176.04784457209172
20
-355.42003959797
10
176.09895582856925
20
-355.03181106137447
10
176.04784457209172
20
-354.64358252477894
10
175.89799395032293
20
-354.28181112137446
10
175.65961603549621
20
-353.97115097444748
10
175.34895588856924
20
-353.73277305962085
10
174.9871844851647
20
-353.58292243785195
10
174.5989559485692
20
-353.53181118137445
10
174.21072741197372
20
-353.58292243785195
10
173.84895600856922
20
-353.73277305962085
10
173.53829586164221
20
-353.97115097444748
10
173.29991794681561
20
-354.28181112137446
10
173.15006732504671
20
-354.64358252477894
10
173.09895606856924
20
-355.03181106137447
10
173.15006732504671
20
-355.42003959797
10
173.29991794681561
20
-355.78181100137448
10
173.53829586164221
20
-356.09247114830146
0
LWPOLYLINE
5
153
100
AcDbEntity
8
0
100
AcDbPolyline
90
36
70
1
43
0.0
10
206.59895338856944
20
-430.03180506137494
10
202.59895370856941
20
-430.03180506137494
10
177.59895570856929
20
-405.03180706137482
10
21.598968188568186
20
-405.03180706137482
10
-3.4010298114319726
20
-430.03180506137494
10
-7.4010294914319852
20
-430.03180506137494
10
-10.401029251431959
20
-427.03180530137496
10
-10.401029251431959
20
-423.03180562137482
10
29.598967548568311
20
-383.03180882137463
10
29.598967548568311
20
-363.03181042137453
10
-0.40103005143189208
20
-333.03181282137427
10
-0.40103005143188319
20
-307.03181490137416
10
29.598967548568318
20
-277.03181730137396
10
29.598967548568318
20
-257.03181890137381
10
-10.401029251431932
20
-217.03182210137356
10
-10.401029251431932
20
-213.0318224213735
10
-7.4010294914319585
20
-210.0318226613735
10
-3.4010298114319459
20
-210.0318226613735
10
21.598968188568186
20
-235.03182066137367
10
177.59895570856929
20
-235.0318206613737
10
202.59895370856941
20
-210.03182266137355
10
206.59895338856944
20
-210.03182266137355
10
209.59895314856942
20
-213.03182242137353
10
209.59895314856942
20
-217.03182210137356
10
189.59895474856927
20
-237.03182050137372
10
189.59895474856927
20
-257.03181890137381
10
199.59895394856946
20
-267.03181810137391
10
199.59895394856946
20
-305.03181506137418
10
189.59895474856927
20
-315.03181426137422
10
189.59895474856927
20
-325.03181346137433
10
199.59895394856946
20
-335.03181266137432
10
199.59895394856946
20
-373.03180962137458
10
189.59895474856927
20
-383.03180882137468
10
189.59895474856927
20
-403.03180722137478
10
209.59895314856942
20
-423.03180562137482
10
209.59895314856948
20
-427.03180530137502
0
LWPOLYLINE
5
154
100
AcDbEntity
8
0
100
AcDbPolyline
90
87
70
1
43
0.0
10
-131.75544402967131
20
-129.8597466151424
42
-0.28612541373128714
10
-126.05196529240963
20
-131.01053830860118
42
-0.13306422398043566
10
-124.72688357712615
20
-132.8105381646013
10
-112.72688453712624
20
-132.81053816460101
10
-112.72688453712624
20
-123.25273719462203
10
-106.62688502512577
20
-123.25273719462253
10
-106.62688502512616
20
-114.45273789862178
10
-112.72688453712516
20
-114.45273789862263
10
-112.72688453712658
20
-105.09550998411733
10
-138.12688250512559
20
-105.09550998411747
10
-290.52687031312678
20
-428.0954841441195
10
-290.52687031312593
20
-435.69548353611901
10
-285.52687071312613
20
-440.69548313611966
10
-215.52687631312529
20
-440.69548313611955
10
-214.38807260577971
20
-440.84540948845302
10
-213.32687648912611
20
-441.28497131230887
10
-212.41560672480654
20
-441.98421319579921
10
-211.716364841315
20
-442.89548296012009
10
-211.27680301746
20
-443.95667907677137
10
-211.12687666512574
20
-445.09548278412001
10
-211.27680301746022
20
-446.23428649146513
10
-211.71636484131483
20
-447.29548260811941
10
-212.41560672480654
20
-448.20675237243847
10
-213.3268764891254
20
-448.90599425593109
10
-214.38807260577954
20
-449.34555607978473
10
-215.52687631312651
20
-449.49548243211927
10
-285.5268707131263
20
-449.49548243211882
10
-290.52687031312655
20
-454.49548203211873
10
-290.52687031312621
20
-470.09548078412053
10
-285.52687071312641
20
-475.09548038411947
10
-265.5268723131253
20
-475.09548038411936
10
-263.52687247312554
20
-473.0954805441196
10
-112.72688453712519
20
-473.09548054411954
10
-112.72688453712625
20
-452.3010409986083
10
-124.72688357712599
20
-452.30104099860915
42
-0.093084467928786704
10
-126.05196529241127
20
-454.10104085460887
42
-0.28612541373117412
10
-131.75544402967685
20
-455.25183254806768
42
-0.054721759448192103
10
-131.82688284912584
20
-454.6010411746085
10
-131.82688316912595
20
-452.30104099860847
10
-133.82688284912575
20
-452.30104099860785
10
-133.82688284912595
20
-447.90104135060835
10
-131.82688316912561
20
-447.90104135060812
10
-131.82688284912612
20
-445.60104117460895
42
-0.054721759448897421
10
-131.75544402967228
20
-444.95024980115005
42
-0.28612541373133665
10
-126.0519652924097
20
-446.10104149460852
42
-0.095085988733442234
10
-124.72688357712639
20
-447.90104135060801
10
-112.72688453712448
20
-447.90104135060773
10
-112.7268845371259
20
-438.34554105941868
10
-106.62688502512545
20
-438.34554105941953
10
-106.62688502512509
20
-429.54554176341873
10
-112.7268845371259
20
-429.54554176341833
10
-112.72688453712553
20
-310.64549354011928
10
-106.62688502512435
20
-310.64549354011967
10
-106.62688502512469
20
-301.84549424411864
10
-112.72688453712516
20
-301.84549424411847
10
-112.72688453712696
20
-292.29549500811737
10
-124.72688357712528
20
-292.29549500811845
42
-0.087171716966315024
10
-126.05196529241012
20
-294.09549486411856
42
-0.28612541373121125
10
-131.75544402967626
20
-295.246286557578
42
-0.054721759448341095
10
-131.82688284912521
20
-294.59549518411728
10
-131.8268831691245
20
-292.29549500811834
10
-133.82688284912521
20
-292.29549500811834
10
-133.82688284912538
20
-287.89549536011839
10
-131.82688316912592
20
-287.89549536011839
10
-131.82688284912552
20
-285.59549518411865
42
-0.054721759448890406
10
-131.75544402967168
20
-284.9447038106602
42
-0.28612541373131045
10
-126.05196529240948
20
-286.0954955041185
42
-0.13220468197168661
10
-124.72688357712616
20
-287.89549536011742
10
-112.72688453712661
20
-287.89549536011799
10
-112.72688453712661
20
-278.34549612411814
10
-106.62688502512688
20
-278.34549612411729
10
-106.62688502512616
20
-269.54549682811842
10
-112.72688453712625
20
-269.54549682811808
10
-112.72688453712624
20
-155.55273461062251
10
-106.62688502512577
20
-155.55273461062271
10
-106.62688502512616
20
-146.75273531462233
10
-112.72688453712516
20
-146.75273531462253
10
-112.72688453712587
20
-137.2105378126011
10
-124.72688357712582
20
-137.21053781260153
42
-0.11178269607471797
10
-126.05196529241057
20
-139.01053766860113
42
-0.28612541373120598
10
-131.7554440296766
20
-140.16132936206043
42
-0.054721759448139985
10
-131.82688284912558
20
-139.51053798860178
10
-131.82688316912629
20
-137.21053781260096
10
-133.82688284912592
20
-137.21053781260088
10
-133.82688284912535
20
-132.81053816460081
10
-131.82688316912535
20
-132.8105381646009
10
-131.82688284912012
20
-130.51053798860013
42
-0.054721759448169718
0
LWPOLYLINE
5
155
100
AcDbEntity
8
0
100
AcDbPolyline
90
26
70
1
43
0.0
10
-132.66378174233711
20
-461.09548150411939
10
-140.6597508195583
20
-461.09548150411888
10
-141.69502691714689
20
-461.2317781880592
10
-142.65975065955931
20
-461.63137984611006
10
-143.4881777180307
20
-462.26705428564713
10
-144.1238521575676
20
-463.09548134411989
10
-144.52345381561889
20
-464.06020508653114
10
-144.6597504995587
20
-465.09548118411914
10
-144.52345381561889
20
-466.13075728170821
10
-144.12385215756791
20
-467.09548102411918
10
-143.48817771802919
20
-467.92390808259131
10
-142.6597506595582
20
-468.55958252212895
10
-141.69502691714601
20
-468.95918418017942
10
-140.72661176871213
20
-469.09548086411962
10
-132.66378174233819
20
-469.09548086411928
10
-131.62850564474905
20
-468.9591841801797
10
-130.66378190233561
20
-468.55958252212974
10
-129.83535484386601
20
-467.92390808259154
10
-129.19968040432715
20
-467.09548102411958
10
-128.80007874627756
20
-466.13075728170742
10
-128.66378206233679
20
-465.09548118411954
10
-128.80007874627742
20
-464.06020508653114
10
-129.19968040432843
20
-463.09548134411961
10
-129.83535484386601
20
-462.267054285646
10
-130.6637819023374
20
-461.63137984610898
10
-131.62850564474962
20
-461.23177818805965
0
LWPOLYLINE
5
156
100
AcDbEntity
8
0
100
AcDbPolyline
90
87
70
1
43
0.0
10
-326.28556376598215
20
-135.1770616443429
42
-0.28612541373137651
10
-331.98904250324517
20
-134.02626995088423
42
-0.079500622677011787
10
-333.31412421852792
20
-132.22627009488417
10
-345.31412325852796
20
-132.22627009488417
10
-345.31412325852796
20
-141.78177038607328
10
-351.41412277052808
20
-141.78177038607328
10
-351.41412277052808
20
-150.58176968207337
10
-345.31412325852807
20
-150.58176968207337
10
-345.31412325852807
20
-269.48181790537387
10
-351.41412277052808
20
-269.48181790537387
10
-351.41412277052808
20
-278.28181720137394
10
-345.31412325852807
20
-278.28181720137394
10
-345.31412325852807
20
-287.83181643737396
10
-333.31412421852798
20
-287.83181643737396
42
-0.11571946206908063
10
-331.98904250324352
20
-286.03181658137396
42
-0.28612541373112715
10
-326.28556376597891
20
-284.8810248879148
42
-0.054721759448272275
10
-326.21412494652986
20
-285.5318162613749
10
-326.21412462652825
20
-287.83181643737396
10
-324.21412494652856
20
-287.83181643737396
10
-324.2141249465285
20
-292.23181608537402
10
-326.21412462652819
20
-292.23181608537402
10
-326.21412494652782
20
-294.53181626137484
42
-0.054721759448981715
10
-326.28556376598146
20
-295.18260763483249
42
-0.28612541373140593
10
-331.98904250324529
20
-294.03181594137402
42
-0.085931308459590836
10
-333.31412421852798
20
-292.23181608537402
10
-345.31412325852807
20
-292.23181608537402
10
-345.31412325852807
20
-301.7818153213741
10
-351.41412277052808
20
-301.7818153213741
10
-351.41412277052808
20
-310.58181461737416
10
-345.31412325852807
20
-310.58181461737416
10
-345.31412325852807
20
-424.57457683487019
10
-351.41412277052808
20
-424.57457683487019
10
-351.41412277052808
20
-433.3745761308702
10
-345.31412325852807
20
-433.3745761308702
10
-345.31412325852813
20
-442.91677363289136
10
-333.31412421852804
20
-442.91677363289136
42
-0.17831105640542588
10
-331.98904250324335
20
-441.11677377689142
42
-0.28612541373112105
10
-326.28556376597885
20
-439.96598208343221
42
-0.054721759448281629
10
-326.21412494652964
20
-440.61677345689219
10
-326.21412462652825
20
-442.91677363289136
10
-324.21412494652856
20
-442.91677363289136
10
-324.21412494652856
20
-447.31677328089131
10
-326.21412462652825
20
-447.31677328089131
10
-326.21412494652765
20
-449.6167734568923
42
-0.054721759448779717
10
-326.28556376598135
20
-450.26756483034995
42
-0.28612541373140921
10
-331.98904250324523
20
-449.11677313689148
42
-0.13163941167252191
10
-333.31412421852804
20
-447.31677328089131
10
-345.31412325852813
20
-447.31677328089131
10
-345.31412325852813
20
-456.8745742508703
10
-351.41412277052808
20
-456.8745742508703
10
-351.41412277052808
20
-465.67457354687031
10
-345.31412325852813
20
-465.67457354687019
10
-345.31412325852813
20
-475.03180146137515
10
-319.91412529052809
20
-475.03180146137527
10
-167.51413748252727
20
-152.03182730137314
10
-167.51413748252725
20
-144.43182790937311
10
-172.51413708252741
20
-139.43182830937309
10
-242.51413148252766
20
-139.43182830937309
10
-243.65293518987457
20
-139.28190195703908
10
-244.71413130652778
20
-138.8423401331836
10
-245.62540107084698
20
-138.14309824969229
10
-246.32464295433829
20
-137.23182848537309
10
-246.76420477819377
20
-136.17063236871979
10
-246.91413113052772
20
-135.03182866137311
10
-246.76420477819377
20
-133.89302495402632
10
-246.32464295433829
20
-132.83182883737302
10
-245.62540107084698
20
-131.92055907305379
10
-244.71413130652778
20
-131.2213171895624
10
-243.65293518987457
20
-130.78175536570703
10
-242.51413148252766
20
-130.63182901337302
10
-172.51413708252741
20
-130.63182901337302
10
-167.51413748252727
20
-125.63182941337305
10
-167.51413748252727
20
-110.03183066137289
10
-172.51413708252727
20
-105.03183106137278
10
-192.51413548252737
20
-105.03183106137274
10
-194.51413532252744
20
-107.03183090137276
10
-345.31412325852796
20
-107.03183090137276
10
-345.31412325852796
20
-127.82627044688418
10
-333.31412421852792
20
-127.82627044688418
42
-0.091358408199244193
10
-331.98904250324352
20
-126.02627059088412
42
-0.28612541373112227
10
-326.28556376597885
20
-124.87547889742495
42
-0.054721759448267154
10
-326.21412494652964
20
-125.52627027088502
10
-326.21412462652813
20
-127.82627044688418
10
-324.2141249465285
20
-127.82627044688418
10
-324.2141249465285
20
-132.22627009488417
10
-326.21412462652813
20
-132.22627009488417
10
-326.2141249465335
20
-134.52627027088499
42
-0.05472175944836704
0
LWPOLYLINE
5
157
100
AcDbEntity
8
0
100
AcDbPolyline
90
27
70
1
43
0.0
10
-254.20068948500727
20
-174.72207802987069
10
-254.38858470817084
20
-174.55150725596349
10
-254.82268465163745
20
-174.37162437906539
10
-255.28855011265139
20
-174.3102241954094
10
-255.7544331299238
20
-174.37149102604309
10
-256.18858454573558
20
-174.551249637707
10
-256.56141765856847
20
-174.83724977808129
10
-256.84752450791854
20
-175.21000101023719
10
-257.02740738481668
20
-175.64410095370368
10
-257.08880756847259
20
-176.10996641471758
10
-257.02754073783899
20
-176.57584943198998
10
-256.84778212617505
20
-177.0100008478019
10
-256.56178198580068
20
-177.38283396063474
10
-256.37388676263703
20
-177.55340473454191
10
-256.29927472638605
20
-177.58432256333691
10
-256.18903075364477
20
-177.6689408099848
10
-255.75493081017837
20
-177.84882368688278
10
-255.28906534916447
20
-177.9102238705388
10
-254.8231823318919
20
-177.8489570399052
10
-254.38903091608
20
-177.66919842824132
10
-254.01619780324737
20
-177.38319828786686
10
-253.73009095389719
20
-177.01044705571107
10
-253.55020807699918
20
-176.5763471122446
10
-253.48880789334319
20
-176.1104816512306
10
-253.55007472397688
20
-175.6445986339582
10
-253.72983333564068
20
-175.21044721814638
10
-254.01583347601519
20
-174.83761410531358
0
LWPOLYLINE
5
158
100
AcDbEntity
8
0
100
AcDbPolyline
90
24
70
1
43
0.0
10
-232.62669725246644
20
-264.63051393712072
10
-232.44693864080267
20
-265.06466535293254
10
-232.1609385004283
20
-265.43749846576537
10
-231.78818726827245
20
-265.72360531511544
10
-231.35408732480607
20
-265.90348819201353
10
-230.88822186379187
20
-265.96488837566949
10
-230.42233884651952
20
-265.90362154503583
10
-229.9881874307078
20
-265.72386293337195
10
-229.61535431787496
20
-265.43786279299763
10
-229.3292474685249
20
-265.06511156084179
10
-229.14936459162675
20
-264.63101161737529
10
-229.0879644079709
20
-264.16514615636135
10
-229.14923123860447
20
-263.69926313908888
10
-229.32898985026839
20
-263.26511172327707
10
-229.61498999064273
20
-262.89227861044429
10
-229.9877412227986
20
-262.60617176109417
10
-230.42184116626504
20
-262.42628888419608
10
-230.88770662727907
20
-262.36488870054012
10
-231.35358964455139
20
-262.42615553117383
10
-231.78774106036317
20
-262.60591414283766
10
-232.16057417319593
20
-262.89191428321197
10
-232.4466810225461
20
-263.26466551536782
10
-232.62656389944422
20
-263.69876545883432
10
-232.68796408310033
20
-264.16463091984832
0
LWPOLYLINE
5
159
100
AcDbEntity
8
0
100
AcDbPolyline
90
24
70
1
43
0.0
10
-257.94356125683396
20
-167.2824093746184
10
-258.37771267264577
20
-167.46216798628217
10
-258.75054578547849
20
-167.74816812665659
10
-259.03665263482867
20
-168.12091935881239
10
-259.21653551172665
20
-168.55501930227888
10
-259.27793569538278
20
-169.02088476329288
10
-259.21666886474901
20
-169.48676778056526
10
-259.03691025308518
20
-169.9209191963771
10
-258.75091011271087
20
-170.29375230920991
10
-258.37815888055496
20
-170.57985915856
10
-257.94405893708858
20
-170.75974203545812
10
-257.47819347607452
20
-170.82114221911411
10
-257.01231045880212
20
-170.7598753884804
10
-256.57815904299025
20
-170.58011677681648
10
-256.20532593015758
20
-170.2941166364422
10
-255.91921908080735
20
-169.92136540428623
10
-255.73933620390937
20
-169.48726546081991
10
-255.67793602025341
20
-169.02139999980591
10
-255.73920285088707
20
-168.5555169825335
10
-255.9189614625509
20
-168.12136556672161
10
-256.20496160292521
20
-167.74853245388891
10
-256.57771283508106
20
-167.46242560453879
10
-257.01181277854772
20
-167.2825427276407
10
-257.47767823956156
20
-167.22114254398468
0
LWPOLYLINE
5
160
100
AcDbEntity
8
0
100
AcDbPolyline
90
27
70
1
43
0.0
10
-301.99004455092876
20
-175.13895060893856
10
-302.2760446913033
20
-174.76611749610569
10
-302.64879592345898
20
-174.48001064675566
10
-302.90317223747388
20
-174.39016100846339
10
-303.08289586692558
20
-174.30012776985757
10
-303.54876132793947
20
-174.23872758620155
10
-304.01464434521182
20
-174.29999441683526
10
-304.44879576102369
20
-174.4797530284992
10
-304.82162887385658
20
-174.76575316887349
10
-305.10773572320682
20
-175.13850440102928
10
-305.28761860010479
20
-175.57260434449577
10
-305.34901878376081
20
-176.03846980550975
10
-305.2877519531271
20
-176.50435282278215
10
-305.10799334146304
20
-176.93850423859396
10
-304.8219932010889
20
-177.31133735142677
10
-304.44924196893288
20
-177.59744420077686
10
-304.26951833948135
20
-177.68747743938277
10
-304.21445795578751
20
-177.69473429346158
10
-304.01514202546662
20
-177.77732707767498
10
-303.54927656445255
20
-177.838727261331
10
-303.08339354717998
20
-177.77746043069726
10
-302.64924213136817
20
-177.59770181903343
10
-302.27640901853545
20
-177.31170167865912
10
-301.99030216918538
20
-176.93895044650327
10
-301.81041929228729
20
-176.50485050303678
10
-301.74901910863139
20
-176.03898504202277
10
-301.8102859392651
20
-175.57310202475037
0
LWPOLYLINE
5
161
100
AcDbEntity
8
0
100
AcDbPolyline
90
24
70
1
43
0.0
10
-232.65089482450384
20
-168.76324958928521
10
-232.47113621284007
20
-169.19740100509713
10
-232.18513607246581
20
-169.57023411792989
10
-231.81238484030987
20
-169.85634096728
10
-231.37828489684358
20
-170.0362238441781
10
-230.91241943582941
20
-170.09762402783409
10
-230.44653641855706
20
-170.0363571972004
10
-230.01238500274528
20
-169.85659858553646
10
-229.63955188991247
20
-169.5705984451622
10
-229.35344504056235
20
-169.1978472130063
10
-229.17356216366429
20
-168.76374726953981
10
-229.11216198000841
20
-168.29788180852591
10
-229.17342881064198
20
-167.83199879125348
10
-229.35318742230581
20
-167.39784737544164
10
-229.63918756268004
20
-167.02501426260881
10
-230.01193879483594
20
-166.73890741325869
10
-230.44603873830258
20
-166.5590245363606
10
-230.9119041993165
20
-166.49762435270469
10
-231.37778721658887
20
-166.55889118333829
10
-231.81193863240068
20
-166.73864979500223
10
-232.18477174523341
20
-167.0246499353766
10
-232.47087859458355
20
-167.39740116753239
10
-232.6507614714817
20
-167.83150111099886
10
-232.71216165513778
20
-168.29736657201278
0
LWPOLYLINE
5
162
100
AcDbEntity
8
0
100
AcDbPolyline
90
24
70
1
43
0.0
10
-301.84392605432362
20
-264.77641186224332
10
-301.37806059330956
20
-264.83781204589934
10
-300.91217757603721
20
-264.77654521526568
10
-300.4780261602254
20
-264.59678660360174
10
-300.10519304739262
20
-264.31078646322749
10
-299.8190861980425
20
-263.93803523107158
10
-299.63920332114441
20
-263.50393528760509
10
-299.5778031374885
20
-263.03806982659114
10
-299.6390699681221
20
-262.57218680931874
10
-299.81882857978587
20
-262.13803539350687
10
-300.1048287201603
20
-261.76520228067409
10
-300.47757995231615
20
-261.47909543132403
10
-300.91167989578264
20
-261.29921255442594
10
-301.37754535679659
20
-261.23781237076992
10
-301.84342837406894
20
-261.29907920140363
10
-302.27757978988075
20
-261.47883781306751
10
-302.65041290271347
20
-261.76483795344183
10
-302.9365197520637
20
-262.13758918559768
10
-303.11640262896168
20
-262.57168912906417
10
-303.17780281261787
20
-263.03755459007812
10
-303.1165359819841
20
-263.50343760735052
10
-302.93677737032021
20
-263.93758902316233
10
-302.6507772299459
20
-264.31042213599517
10
-302.27802599779
20
-264.59652898534529
0
LWPOLYLINE
5
163
100
AcDbEntity
8
0
100
AcDbPolyline
90
26
70
1
43
0.0
10
-325.37722605331635
20
-119.03182994137285
10
-317.38125697609507
20
-119.03182994137285
10
-316.34598087850696
20
-118.89553325743286
10
-315.38125713609492
20
-118.49593159938249
10
-314.55283007762296
20
-117.86025715984491
10
-313.91715563808532
20
-117.03183010137288
10
-313.51755398003496
20
-116.06710635896081
10
-313.38125729609499
20
-115.03183026137282
10
-313.51755398003496
20
-113.99655416378486
10
-313.91715563808532
20
-113.03183042137285
10
-314.55283007762296
20
-112.20340336290086
10
-315.38125713609492
20
-111.56772892336328
10
-316.34598087850696
20
-111.16812726531286
10
-317.31439602694184
20
-111.03183058137283
10
-325.37722605331635
20
-111.03183058137283
10
-326.41250215090423
20
-111.16812726531286
10
-327.37722589331645
20
-111.56772892336328
10
-328.20565295178869
20
-112.20340336290086
10
-328.84132739132622
20
-113.03183042137289
10
-329.24092904937652
20
-113.99655416378491
10
-329.37722573331666
20
-115.03183026137282
10
-329.24092904937652
20
-116.06710635896086
10
-328.84132739132622
20
-117.03183010137288
10
-328.20565295178869
20
-117.86025715984501
10
-327.37722589331645
20
-118.49593159938249
10
-326.41250215090423
20
-118.89553325743286
0
LWPOLYLINE
5
164
100
AcDbEntity
8
0
100
AcDbPolyline
90
27
70
1
43
0.0
10
-254.3556379749138
20
-249.49604102578817
10
-254.7897379183803
20
-249.31615814889014
10
-255.25560337939427
20
-249.25475796523415
10
-255.72148639666668
20
-249.3160247958678
10
-256.15563781247846
20
-249.49578340753169
10
-256.52847092531141
20
-249.781783547906
10
-256.81457777466153
20
-250.15453478006185
10
-256.99446065155956
20
-250.58863472352837
10
-257.05586083521547
20
-251.05450018454229
10
-256.99459400458187
20
-251.52038320181472
10
-256.81483539291787
20
-251.95453461762656
10
-256.52883525254362
20
-252.32736773045934
10
-256.41884974847829
20
-252.42871821406123
10
-256.37091115076197
20
-252.44858307007297
10
-256.15608402038771
20
-252.61347457980943
10
-255.72198407692127
20
-252.79335745670753
10
-255.25611861590738
20
-252.85475764036352
10
-254.79023559863481
20
-252.79349080972986
10
-254.35608418282297
20
-252.61373219806597
10
-253.98325106999025
20
-252.32773205769163
10
-253.69714422064007
20
-251.95498082553581
10
-253.51726134374212
20
-251.52088088206932
10
-253.45586116008604
20
-251.05501542105532
10
-253.51712799071979
20
-250.58913240378291
10
-253.69688660238356
20
-250.1549809879711
10
-253.98288674275807
20
-249.78214787513826
10
-254.24565247084871
20
-249.59739150939004
0
LWPOLYLINE
5
165
100
AcDbEntity
8
0
100
AcDbPolyline
90
24
70
1
43
0.0
10
-327.43995923575596
20
-263.31031341455719
10
-327.61984211265417
20
-263.74441335802368
10
-327.68124229631019
20
-264.21027881903763
10
-327.61997546567642
20
-264.67616183631003
10
-327.44021685401259
20
-265.11031325212184
10
-327.15421671363828
20
-265.48314636495473
10
-326.78146548148243
20
-265.7692532143048
10
-326.34736553801599
20
-265.94913609120289
10
-325.88150007700187
20
-266.01053627485885
10
-325.41561705972953
20
-265.94926944422519
10
-324.98146564391777
20
-265.76951083256131
10
-324.60863253108505
20
-265.483510692187
10
-324.32252568173482
20
-265.11075946003109
10
-324.14264280483678
20
-264.67665951656465
10
-324.08124262118076
20
-264.21079405555071
10
-324.14250945181448
20
-263.7449110382783
10
-324.32226806347819
20
-263.31075962246643
10
-324.60826820385262
20
-262.9379265096336
10
-324.98101943600858
20
-262.65181966028354
10
-325.41511937947507
20
-262.47193678338544
10
-325.88098484048896
20
-262.41053659972943
10
-326.34686785776137
20
-262.47180343036314
10
-326.78101927357318
20
-262.65156204202702
10
-327.1538523864059
20
-262.93756218240134
0
LWPOLYLINE
5
166
100
AcDbEntity
8
0
100
AcDbPolyline
90
24
70
1
43
0.0
10
-324.63226053686321
20
-166.98143945849216
10
-325.00501176901901
20
-166.69533260914207
10
-325.43911171248556
20
-166.51544973224395
10
-325.90497717349956
20
-166.45404954858799
10
-326.37086019077185
20
-166.5153163792217
10
-326.80501160658366
20
-166.69507499088556
10
-327.1778447194165
20
-166.98107513125987
10
-327.46395156876656
20
-167.35382636341575
10
-327.64383444566477
20
-167.78792630688227
10
-327.70523462932056
20
-168.25379176789619
10
-327.64396779868707
20
-168.71967478516859
10
-327.46420918702307
20
-169.15382620098046
10
-327.17820904664876
20
-169.52665931381324
10
-326.80545781449291
20
-169.81276616316336
10
-326.37135787102642
20
-169.99264904006145
10
-325.90549241001258
20
-170.05404922371739
10
-325.43960939274007
20
-169.99278239308376
10
-325.00545797692826
20
-169.8130237814199
10
-324.63262486409553
20
-169.52702364104562
10
-324.3465180147453
20
-169.15427240888965
10
-324.16663513784727
20
-168.72017246542316
10
-324.10523495419119
20
-168.25430700440927
10
-324.16650178482496
20
-167.78842398713689
10
-324.3462603964889
20
-167.354272571325
0
LWPOLYLINE
5
167
100
AcDbEntity
8
0
100
AcDbPolyline
90
24
70
1
43
0.0
10
-255.80499929310429
20
-263.41171677882113
10
-255.74359910944827
20
-262.94585131780718
10
-255.80486594008198
20
-262.47996830053478
10
-255.98462455174581
20
-262.04581688472291
10
-256.27062469212001
20
-261.67298377189013
10
-256.64337592427597
20
-261.38687692254001
10
-257.07747586774252
20
-261.20699404564192
10
-257.54334132875647
20
-261.14559386198596
10
-258.00922434602887
20
-261.20686069261967
10
-258.44337576184068
20
-261.3866193042835
10
-258.81620887467341
20
-261.67261944465787
10
-259.10231572402353
20
-262.04537067681366
10
-259.2821986009215
20
-262.47947062028015
10
-259.34359878457764
20
-262.94533608129416
10
-259.28233195394387
20
-263.41121909856656
10
-259.1025733422801
20
-263.84537051437837
10
-258.81657320190578
20
-264.21820362721121
10
-258.44382196974982
20
-264.50431047656127
10
-258.00972202628344
20
-264.68419335345936
10
-257.54385656526938
20
-264.74559353711533
10
-257.07797354799703
20
-264.68432670648167
10
-256.64382213218522
20
-264.50456809481778
10
-256.27098901935244
20
-264.21856795444347
10
-255.98488217000232
20
-263.84581672228757
0
LWPOLYLINE
5
168
100
AcDbEntity
8
0
100
AcDbPolyline
90
27
70
1
43
0.0
10
-301.71904218194851
20
-257.3556917946666
10
-301.78030901258228
20
-256.88980877739419
10
-301.96006762424616
20
-256.45565736158238
10
-302.24606776462048
20
-256.08282424874955
10
-302.46804881459218
20
-255.93844677663822
10
-302.61881899677627
20
-255.79671739939948
10
-303.05291894024271
20
-255.61683452250139
10
-303.51878440125688
20
-255.5554343388454
10
-303.98466741852923
20
-255.61670116947906
10
-304.41881883434098
20
-255.79645978114297
10
-304.79165194717376
20
-256.08245992151728
10
-305.07775879652388
20
-256.45521115367319
10
-305.25764167342197
20
-256.88931109713963
10
-305.31904185707788
20
-257.35517655815357
10
-305.25777502644428
20
-257.82105957542598
10
-305.07801641478045
20
-258.25521099123785
10
-304.79201627440608
20
-258.62804410407063
10
-304.64124609222188
20
-258.76977348130936
10
-304.56761348493183
20
-258.80028545310802
10
-304.41926504225017
20
-258.91415095342069
10
-303.98516509878368
20
-259.09403383031884
10
-303.51929963776973
20
-259.1554340139748
10
-303.05341662049739
20
-259.09416718334109
10
-302.61926520468558
20
-258.91440857167726
10
-302.24643209185291
20
-258.62840843130289
10
-301.96032524250268
20
-258.25565719914709
10
-301.7804423656047
20
-257.82155725568055
0
LWPOLYLINE
5
169
100
AcDbEntity
8
0
100
AcDbPolyline
90
24
70
1
43
0.0
10
-300.50961382393217
20
-167.46242560453879
10
-300.94371376739866
20
-167.2825427276407
10
-301.40957922841272
20
-167.22114254398468
10
-301.87546224568496
20
-167.28240937461837
10
-302.30961366149677
20
-167.46216798628217
10
-302.68244677432961
20
-167.74816812665659
10
-302.96855362367972
20
-168.12091935881239
10
-303.14843650057782
20
-168.55501930227888
10
-303.20983668423389
20
-169.02088476329288
10
-303.14856985360012
20
-169.48676778056526
10
-302.96881124193618
20
-169.9209191963771
10
-302.68281110156192
20
-170.29375230920991
10
-302.31005986940607
20
-170.57985915855997
10
-301.87595992593964
20
-170.75974203545812
10
-301.41009446492541
20
-170.82114221911411
10
-300.94421144765323
20
-170.7598753884804
10
-300.51006003184142
20
-170.58011677681648
10
-300.13722691900864
20
-170.2941166364422
10
-299.85112006965841
20
-169.92136540428623
10
-299.67123719276043
20
-169.48726546081988
10
-299.60983700910447
20
-169.02139999980591
10
-299.67110383973824
20
-168.55551698253348
10
-299.85086245140201
20
-168.12136556672161
10
-300.13686259177626
20
-167.74853245388891
0
ENDSEC
0
SECTION
2
OBJECTS
0
DICTIONARY
5
C
100
AcDbDictionary
3
ACAD_GROUP
350
D
3
ACAD_MLINESTYLE
350
17
0
DICTIONARY
5
D
100
AcDbDictionary
0
DICTIONARY
5
1A
330
C
100
AcDbDictionary
0
DICTIONARY
5
17
100
AcDbDictionary
0
ENDSEC
0
EOF
