0
SECTION
2
HEADER
9
$INSUNITS
70
4
9
$ACADVER
1
AC1014
9
$HANDSEED
5
FFFF
0
ENDSEC
0
SECTION
2
TABLES
0
TABLE
2
VPORT
5
8
100
AcDbSymbolTable
0
ENDTAB
0
TABLE
2
LTYPE
5
5
100
AcDbSymbolTable
0
LTYPE
5
14
100
AcDbSymbolTableRecord
100
AcDbLinetypeTableRecord
2
BYBLOCK
70
0
0
LTYPE
5
15
100
AcDbSymbolTableRecord
100
AcDbLinetypeTableRecord
2
BYLAYER
70
0
0
ENDTAB
0
TABLE
2
LAYER
5
2
100
AcDbSymbolTable
70
2
0
LAYER
5
50
100
AcDbSymbolTableRecord
100
AcDbLayerTableRecord
2
0
70
0
6
CONTINUOUS
0
ENDTAB
0
TABLE
2
STYLE
5
3
100
AcDbSymbolTable
70
1
0
STYLE
5
11
100
AcDbSymbolTableRecord
100
AcDbTextStyleTableRecord
2
STANDARD
70
0
0
ENDTAB
0
TABLE
2
VIEW
5
6
100
AcDbSymbolTable
70
0
0
ENDTAB
0
TABLE
2
UCS
5
7
100
AcDbSymbolTable
70
0
0
ENDTAB
0
TABLE
2
APPID
5
9
100
AcDbSymbolTable
70
2
0
APPID
5
12
100
AcDbSymbolTableRecord
100
AcDbRegAppTableRecord
2
ACAD
70
0
0
ENDTAB
0
TABLE
2
DIMSTYLE
5
A
100
AcDbSymbolTable
70
1
0
ENDTAB
0
TABLE
2
BLOCK_RECORD
5
1
100
AcDbSymbolTable
70
1
0
BLOCK_RECORD
5
1F
100
AcDbSymbolTableRecord
100
AcDbBlockTableRecord
2
*MODEL_SPACE
0
BLOCK_RECORD
5
1B
100
AcDbSymbolTableRecord
100
AcDbBlockTableRecord
2
*PAPER_SPACE
0
ENDTAB
0
ENDSEC
0
SECTION
2
BLOCKS
0
BLOCK
5
20
100
AcDbEntity
100
AcDbBlockBegin
2
*MODEL_SPACE
0
ENDBLK
5
21
100
AcDbEntity
100
AcDbBlockEnd
0
BLOCK
5
1C
100
AcDbEntity
100
AcDbBlockBegin
2
*PAPER_SPACE
0
ENDBLK
5
1D
100
AcDbEntity
100
AcDbBlockEnd
0
ENDSEC
0
SECTION
2
ENTITIES
0
LWPOLYLINE
5
100
100
AcDbEntity
8
0
100
AcDbPolyline
90
4
70
1
43
0.0
10
105.31265713120801
20
-456.32677451058737
10
101.79240804196107
20
-456.32677451058737
10
101.7924080419611
20
-445.03180386137501
10
105.31265713120801
20
-445.03180386137501
0
LWPOLYLINE
5
101
100
AcDbEntity
8
0
100
AcDbPolyline
90
35
70
1
43
0.0
10
195.92860069782591
20
-465.03180226137516
10
187.52860136982576
20
-465.03180226137516
10
186.12860148182585
20
-464.93180226937511
10
184.62860160182578
20
-464.73180228537512
10
183.72860167382578
20
-464.43180230937514
10
182.42860177782592
20
-463.53180238137503
10
181.62860184182597
20
-462.53180246137515
10
180.92860189782579
20
-461.23180256537512
10
180.62860192182575
20
-459.73180268537504
10
180.62860192182575
20
-458.03180282137504
10
180.82860190582579
20
-456.73180292537506
10
181.42860185782581
20
-455.43180302937509
10
182.32860178582575
20
-454.33180311737499
10
183.82860166582574
20
-453.33180319737505
10
183.05819886836989
20
-452.64309423300517
10
182.09962240709021
20
-451.68451777172544
10
177.91859741640195
20
-445.03566827433821
10
182.79306069822877
20
-445.03566827433815
10
188.03463836948191
20
-452.63180325337498
10
190.42860113782592
20
-452.63180325337498
10
190.42860113782592
20
-456.03180298137499
10
187.52860136982574
20
-456.03180298137499
10
186.62860144182591
20
-456.23180296537504
10
185.72860151382574
20
-456.73180292537506
10
185.22860155382597
20
-457.33180287737514
10
184.82860158582594
20
-458.13180281337509
10
184.72860159382574
20
-459.03180274137503
10
184.92860157782587
20
-459.83180267737509
10
185.22860155382591
20
-460.43180262937511
10
185.82860150582587
20
-461.03180258137508
10
186.62860144182591
20
-461.43180254937522
10
187.62860136182593
20
-461.63180253337515
10
191.92860101782588
20
-461.63180253337515
10
191.92860101782588
20
-445.03180386137495
10
195.92860069782589
20
-445.03180386137501
0
LWPOLYLINE
5
102
100
AcDbEntity
8
0
100
AcDbPolyline
90
30
70
1
43
0.0
10
163.82527117786836
20
-453.08074653012483
10
163.84974547049666
20
-465.02420133279361
10
159.78701289417904
20
-465.02420133279361
10
159.76253860155077
20
-456.21345598656262
10
159.7625386015508
20
-452.29756916601548
10
160.10517869834857
20
-449.53197409900406
10
160.83940747720121
20
-447.48618761805903
10
161.98969923073687
20
-446.36037015715158
10
163.31131103267157
20
-445.50376991515691
10
165.41610019871567
20
-444.84296401418965
10
168.03484950995647
20
-444.64716967316235
10
170.65359882119739
20
-444.98980976996006
10
172.3912735978152
20
-445.62614137829894
10
173.63946252186454
20
-446.45826732766528
10
174.56948564174451
20
-447.55961049594413
10
175.1568686648265
20
-448.75885083473679
10
175.54845734688126
20
-450.42310273346925
10
175.768725980537
20
-454.04529804247534
10
175.72860231382577
20
-465.03180226137516
10
171.681519111591
20
-465.02420133279361
10
171.681519111591
20
-460.20276568499497
10
171.70599340421941
20
-452.2486205807586
10
171.38782760005003
20
-450.33962575574179
10
170.58017594331204
20
-449.11591112432086
10
169.35646131189111
20
-448.38168234546828
10
167.86352946155748
20
-448.13693941918405
10
166.41954619648078
20
-448.23483658969781
10
165.22030585768823
20
-448.74879673489454
10
164.3147570304366
20
-449.62987126951765
10
163.94764264101048
20
-451.36754604613554
0
LWPOLYLINE
5
103
100
AcDbEntity
8
0
100
AcDbPolyline
90
4
70
1
43
0.0
10
105.41323567661509
20
-460.68182552671288
10
101.69182949655401
20
-460.68182552671283
10
101.69182949655401
20
-457.93603123710028
10
105.41323567661509
20
-457.93603123710034
0
LWPOLYLINE
5
104
100
AcDbEntity
8
0
100
AcDbPolyline
90
11
70
1
43
0.0
10
131.83168501591717
20
-449.6236058506048
10
130.6644374724485
20
-452.9223489082338
10
126.29994665773947
20
-452.97309880142791
10
129.09119078342545
20
-460.28108342140581
10
134.62292914160309
20
-445.00536556992444
10
138.9874199563121
20
-445.00536556992444
10
131.1211865111971
20
-464.95007359528068
10
126.85819548287675
20
-464.95007359528063
10
118.94121214456744
20
-445.0561154631186
10
123.25495306608207
20
-445.10686535631294
10
124.98044943468787
20
-449.6236058506048
0
LWPOLYLINE
5
105
100
AcDbEntity
8
0
100
AcDbPolyline
90
32
70
1
43
0.0
10
210.52859952982598
20
-461.63180253337532
10
210.52859952982598
20
-445.03180386137507
10
214.5285992098261
20
-445.03180386137501
10
214.5285992098261
20
-465.03180226137516
10
206.12859988182595
20
-465.03180226137516
10
204.72859999382595
20
-464.93180226937511
10
203.22860011382599
20
-464.73180228537512
10
202.32860018582599
20
-464.43180230937526
10
201.02860028982599
20
-463.53180238137503
10
200.22860035382593
20
-462.53180246137515
10
199.528600409826
20
-461.23180256537512
10
199.22860043382593
20
-459.73180268537521
10
199.22860043382587
20
-458.03180282137504
10
199.42860041782592
20
-456.73180292537506
10
200.02860036982588
20
-455.43180302937515
10
200.92860029782599
20
-454.33180311737516
10
202.42860017782604
20
-453.33180319737517
10
204.428600017826
20
-452.73180324537515
10
206.12859988182601
20
-452.63180325337515
10
209.02859964982599
20
-452.63180325337515
10
209.02859964982599
20
-456.03180298137499
10
206.12859988182595
20
-456.03180298137499
10
205.22859995382595
20
-456.2318029653751
10
204.32860002582603
20
-456.73180292537518
10
203.82860006582598
20
-457.33180287737525
10
203.42860009782601
20
-458.1318028133752
10
203.32860010582601
20
-459.03180274137503
10
203.52860008982603
20
-459.83180267737509
10
203.82860006582598
20
-460.43180262937511
10
204.428600017826
20
-461.03180258137508
10
205.22859995382592
20
-461.43180254937522
10
206.22859987382594
20
-461.63180253337532
0
LWPOLYLINE
5
106
100
AcDbEntity
8
0
100
AcDbPolyline
90
51
70
1
43
0.0
10
148.07165083809011
20
-465.30532284764058
10
145.94015532392979
20
-465.15307316805774
10
143.91015959615825
20
-464.39182477014327
10
142.3369129071352
20
-463.2753271198689
10
141.22041525686075
20
-461.29608128529173
10
140.8144161113066
20
-459.31683545071439
10
144.88263092917296
20
-459.06637532967216
10
145.17632244071396
20
-460.35861798045261
10
145.70496716148779
20
-461.21032336392159
10
146.85036405649777
20
-461.85644468931196
10
148.14260670727839
20
-462.06202874739085
10
149.5229568115212
20
-462.00329044508243
10
150.55087710191489
20
-461.7389680846955
10
151.40258248538393
20
-461.23969251507572
10
151.87248890384961
20
-460.53483288737721
10
151.87789282766175
20
-459.77358448946291
10
151.57339346849608
20
-458.86008641196565
10
149.23889838155878
20
-457.84508854807984
10
145.68640585795845
20
-456.93159047058259
10
142.6921621594953
20
-455.76434292711394
10
141.06816557727799
20
-453.98809666531395
10
140.35766707255792
20
-451.95810093754227
10
140.35766707255792
20
-449.42060627782774
10
141.37266493644378
20
-447.49211033644457
10
143.50416045060396
20
-445.61436428825573
10
146.80290350823276
20
-444.80236599714721
10
149.34039816794726
20
-444.70086621075865
10
151.97939261405048
20
-445.259115035896
10
154.4661373805707
20
-446.78161183172449
10
155.93788428320519
20
-449.16685681185629
10
156.54688300153657
20
-451.45060200559931
10
152.63914122557628
20
-451.80585125795938
10
152.43614165279908
20
-450.94310307365629
10
151.52264357530174
20
-449.36985638463341
10
150.05089667266736
20
-448.45635830713616
10
148.12240073128442
20
-448.10110905477615
10
146.49840414906697
20
-448.25335873435898
10
145.28040671240407
20
-448.96385723907912
10
144.46840842129546
20
-450.02960499615915
10
144.41765852810119
20
-451.19685253962786
10
144.77290778046117
20
-452.21185040351367
10
146.0416551103184
20
-452.97309880142791
10
150.6091454978046
20
-454.08959645170233
10
153.45113951668492
20
-455.35834378155971
10
154.87213652612499
20
-456.62709111141692
10
155.68413481723368
20
-458.40333737321708
10
155.88713439001077
20
-460.38258320779443
10
155.48113524445637
20
-461.70208043084591
10
154.26313780779353
20
-463.52907658584047
10
152.38539175960466
20
-464.69632412930906
10
149.74639731350166
20
-465.30532284764047
0
LWPOLYLINE
5
107
100
AcDbEntity
8
0
100
AcDbPolyline
90
70
70
1
43
0.0
10
93.303578809605568
20
-454.7979806204001
10
92.674962900811522
20
-455.33104691105746
10
92.505236605437091
20
-455.73336109268581
10
92.448661173645604
20
-456.25636952880257
10
92.501464909984293
20
-456.66748433315377
10
92.659876119000373
20
-456.99562183754432
10
93.182884555117084
20
-457.44319636460574
10
94.027744336536401
20
-457.68458487358259
10
94.852488408874294
20
-457.74493200082691
10
95.978968117433183
20
-457.61417989179779
10
97.09538997145161
20
-457.28227069195441
10
97.980481171033659
20
-456.86486972851515
10
98.664415279801574
20
-456.47764232869804
10
98.976208770563517
20
-456.47764232869804
10
98.976208770563517
20
-459.68609792718303
10
96.889203953367115
20
-460.32477169051788
10
95.56282438581151
20
-460.55484511313648
10
94.20878571826907
20
-460.63153625400929
10
92.960354523404021
20
-460.57370359040027
10
91.890450246636419
20
-460.40020559957316
10
90.981471642520191
20
-460.11607120879819
10
90.215817465609007
20
-459.7263293453459
10
89.546970138652114
20
-459.18949135923572
10
89.069222047968537
20
-458.52441572773165
10
88.78257319355842
20
-457.74870369627968
10
88.687023575421733
20
-456.87995651032622
10
88.871836652607186
20
-455.68181458816468
10
89.426275884163601
20
-454.64208387501924
10
90.282450751941099
20
-453.85128506175619
10
91.37247073779011
20
-453.39993883924205
10
91.37247073779011
20
-453.25912887567222
10
90.331482792827103
20
-452.98756680307304
10
89.340784120567605
20
-452.36397982154938
10
88.927154852581083
20
-451.91514806267037
10
88.591473957285018
20
-451.3531654402085
10
88.36894392557187
20
-450.67551749052853
10
88.29476724833421
20
-449.87968974999512
10
88.396603025558818
20
-448.83115841412661
10
88.702110357232812
20
-447.87817669639475
10
89.203745852450538
20
-447.04086030588098
10
89.893966120306388
20
-446.33932495166675
10
90.757684378989509
20
-445.77985679284006
10
91.759698137607288
20
-445.36874198848869
10
92.94778220522808
20
-445.11603839315342
10
94.369711390920401
20
-445.03180386137512
10
95.99531213106188
20
-445.10472330679511
10
97.371980971321008
20
-445.32348164305546
10
99.408696515813787
20
-445.97724218820139
10
99.408696515813773
20
-449.22592920484925
10
99.046613752348506
20
-449.22592920484931
10
98.150207466408119
20
-448.73812325962501
10
97.110476753262589
20
-448.32072229618581
10
96.048115867400611
20
-448.03407344177572
10
95.0838190633105
20
-447.93852382363895
10
93.9020211547776
20
-448.03407344177572
10
93.314893895963792
20
-448.18619849170375
10
92.83085964619238
20
-448.45147440521492
10
92.282706573723999
20
-449.07003245946839
10
92.128067060160603
20
-449.51383529107704
10
92.076520555639519
20
-450.11102040443126
10
92.149440001059602
20
-450.69814766324509
10
92.368198337319967
20
-451.13189264031303
10
92.707650928068801
20
-451.43991443562214
10
93.142653136954323
20
-451.64987214915931
10
94.299306409135383
20
-451.84097138543274
10
95.486133244938713
20
-451.86108709451412
10
96.129835935543781
20
-451.86108709451418
10
96.129835935543781
20
-454.49624498417904
10
95.53642251764218
20
-454.49624498417904
10
94.279190700054002
20
-454.55659211142319
0
LWPOLYLINE
5
108
100
AcDbEntity
8
0
100
AcDbPolyline
90
55
70
1
43
0.0
10
9.3056191417702827
20
-451.87528124920215
10
9.3056191417702827
20
-452.49749462982857
10
11.79447266427605
20
-452.49749462982862
10
11.794472664276046
20
-453.74192139108152
10
10.550045903023157
20
-453.74192139108146
10
10.550045903023161
20
-454.36413477170788
10
11.79447266427605
20
-454.36413477170794
10
11.794472664276046
20
-455.60856153296083
10
10.550045903023157
20
-455.60856153296078
10
10.550045903023161
20
-456.23077491358714
10
11.79447266427605
20
-456.23077491358731
10
11.794472664276046
20
-457.47520167484021
10
9.3056191417702827
20
-457.47520167484015
10
9.3056191417702792
20
-458.09741505546651
10
11.79447266427605
20
-458.09741505546663
10
11.794472664276046
20
-459.34184181671952
10
10.550045903023157
20
-459.34184181671947
10
10.550045903023161
20
-459.96405519734589
10
11.79447266427605
20
-459.96405519734594
10
11.794472664276046
20
-461.20848195859884
10
10.550045903023157
20
-461.20848195859878
10
10.550045903023161
20
-461.8306953392252
10
11.79447266427605
20
-461.8306953392252
10
11.794472664276046
20
-463.07512210047804
10
9.3056191417702827
20
-463.0751221004781
10
9.3056191417702792
20
-463.69733548110446
10
11.79447266427605
20
-463.69733548110452
10
11.794472664276046
20
-464.94176224235741
10
10.550045903023157
20
-464.94176224235741
10
10.550045903023161
20
-465.56397562298389
10
11.79447266427605
20
-465.56397562298389
10
11.794472664276046
20
-466.80840238423684
10
5.5723388580116007
20
-466.80840238423679
10
0.53241047493742144
20
-458.40852174577981
10
4.2656907586960902
20
-452.18638793951538
10
5.5723388580116229
20
-454.36413477170794
10
5.5723388580116273
20
-443.16429392043204
10
11.79447266427605
20
-443.16429392043199
10
11.794472664276046
20
-444.40872068168488
10
10.550045903023157
20
-444.40872068168488
10
10.550045903023161
20
-445.0309340623113
10
11.79447266427605
20
-445.0309340623113
10
11.794472664276046
20
-446.27536082356414
10
9.3056191417702827
20
-446.2753608235642
10
9.3056191417702792
20
-446.89757420419056
10
11.79447266427605
20
-446.89757420419062
10
11.794472664276046
20
-448.14200096544357
10
10.550045903023157
20
-448.14200096544357
10
10.550045903023161
20
-448.76421434606993
10
11.79447266427605
20
-448.76421434606993
10
11.794472664276046
20
-450.00864110732294
10
10.550045903023157
20
-450.00864110732277
10
10.550045903023161
20
-450.63085448794925
10
11.79447266427605
20
-450.63085448794931
10
11.794472664276046
20
-451.87528124920215
0
LWPOLYLINE
5
109
100
AcDbEntity
8
0
100
AcDbPolyline
90
7
70
1
43
0.0
10
-11.849635799528748
20
-443.16429392043204
10
-5.6275019932643211
20
-443.16429392043204
10
-5.6275019932643477
20
-454.36413477170794
10
-0.027581567626375758
20
-445.0309340623113
10
3.7056987161323285
20
-451.25306786857573
10
-5.62750199326433
20
-466.80840238423684
10
-11.849635799528748
20
-466.80840238423679
0
LWPOLYLINE
5
110
100
AcDbEntity
8
0
100
AcDbPolyline
90
24
70
1
43
0.0
10
-79.202392018231848
20
-123.72624836771081
10
-79.575225131064627
20
-123.44024822733651
10
-80.009376546876453
20
-123.2604896156726
10
-80.475259564148857
20
-123.19922278503903
10
-80.941125025162833
20
-123.26062296869492
10
-81.375224968629311
20
-123.44050584559301
10
-81.747976200785189
20
-123.72661269494309
10
-82.033976341159516
20
-124.09944580777588
10
-82.213734952823359
20
-124.5335972235878
10
-82.275001783457071
20
-124.99948024086021
10
-82.213601599801081
20
-125.46534570187411
10
-82.033718722903018
20
-125.89944564534065
10
-81.747611873552898
20
-126.27219687749651
10
-81.374778760720119
20
-126.55819701787081
10
-80.940627344908279
20
-126.7379556295347
10
-80.474744327635861
20
-126.79922246016829
10
-80.008878866621899
20
-126.73782227651242
10
-79.574778923155407
20
-126.5579393996143
10
-79.202027690999572
20
-126.27183255026424
10
-78.916027550625216
20
-125.89899943743141
10
-78.736268938961359
20
-125.46484802161953
10
-78.675002108327675
20
-124.99896500434716
10
-78.736402291983666
20
-124.53309954333321
10
-78.916285168881728
20
-124.09899959986667
0
LWPOLYLINE
5
111
100
AcDbEntity
8
0
100
AcDbPolyline
90
4
70
1
43
0.0
10
223.27859850982611
20
-150.68176967407345
10
229.7785979898261
20
-150.68176967407345
10
229.77859798982615
20
-141.68177039407337
10
223.27859850982617
20
-141.68177039407337
0
LWPOLYLINE
5
112
100
AcDbEntity
8
0
100
AcDbPolyline
90
24
70
1
43
0.0
10
261.11867617805893
20
-145.95229192437182
10
261.29843478972282
20
-145.51814050856004
10
261.35970162035647
20
-145.05225749128766
10
261.29830143670046
20
-144.58639203027366
10
261.11841855980242
20
-144.15229208680717
10
260.83231171045236
20
-143.77954085465137
10
260.45947859761958
20
-143.49354071427692
10
260.02532718180771
20
-143.31378210261317
10
259.55944416453531
20
-143.25251527197943
10
259.09357870352136
20
-143.31391545563545
10
258.65947876005487
20
-143.49379833253357
10
258.28672752789907
20
-143.77990518188358
10
258.00072738752471
20
-144.15273829471647
10
257.82096877586088
20
-144.58688971052825
10
257.75970194522699
20
-145.05277272780066
10
257.82110212888313
20
-145.51863818881463
10
258.0009850057811
20
-145.95273813228107
10
258.28709185513128
20
-146.32548936443692
10
258.65992496796395
20
-146.61148950481132
10
259.09407638377593
20
-146.79124811647515
10
259.55995940104833
20
-146.85251494710886
10
260.02582486206222
20
-146.79111476345284
10
260.45992480552871
20
-146.61123188655472
10
260.83267603768462
20
-146.32512503720474
0
LWPOLYLINE
5
113
100
AcDbEntity
8
0
100
AcDbPolyline
90
24
70
1
43
0.0
10
-57.93706618289518
20
-128.2938609469918
10
-58.371017525741223
20
-128.47360947860875
10
-58.743659991837376
20
-128.75954809971131
10
-59.029598612940006
20
-129.13219056580749
10
-59.209347144556872
20
-129.56614190865352
10
-59.270656021306756
20
-130.031829061373
10
-59.209347144556872
20
-130.49751621409251
10
-59.029598612940013
20
-130.93146755693851
10
-58.743659991837383
20
-131.30411002303472
10
-58.371017525741223
20
-131.59004864413728
10
-57.93706618289518
20
-131.76979717575421
10
-57.471379030175683
20
-131.831106052504
10
-57.005691877456201
20
-131.76979717575421
10
-56.571740534610143
20
-131.59004864413728
10
-56.199098068513997
20
-131.30411002303472
10
-55.91315944741136
20
-130.93146755693851
10
-55.733410915794501
20
-130.49751621409251
10
-55.672102039044624
20
-130.031829061373
10
-55.733410915794501
20
-129.56614190865352
10
-55.91315944741136
20
-129.13219056580755
10
-56.199098068513997
20
-128.75954809971134
10
-56.571740534610143
20
-128.47360947860875
10
-57.005691877456201
20
-128.2938609469918
10
-57.471379030175683
20
-128.23255207024189
0
LWPOLYLINE
5
114
100
AcDbEntity
8
0
100
AcDbPolyline
90
24
70
1
43
0.0
10
241.24443226312457
20
-465.51090681968054
10
241.30569909375822
20
-465.04502380240814
10
241.24429891010226
20
-464.5791583413943
10
241.06441603320428
20
-464.14505839792776
10
240.77830918385419
20
-463.77230716577185
10
240.40547607102138
20
-463.48630702539759
10
239.97132465520963
20
-463.30654841373359
10
239.50544163793708
20
-463.24528158309994
10
239.03957617692316
20
-463.30668176675596
10
238.6054762334567
20
-463.48656464365405
10
238.23272500130076
20
-463.77267149300405
10
237.94672486092651
20
-464.145504605837
10
237.76696624926262
20
-464.57965602164876
10
237.705699418629
20
-465.04553903892133
10
237.7670996022849
20
-465.51140449993511
10
237.94698247918302
20
-465.94550444340166
10
238.23308932853311
20
-466.31825567555751
10
238.60592244136592
20
-466.60425581593182
10
239.04007385717767
20
-466.78401442759582
10
239.50595687445005
20
-466.84528125822936
10
239.97182233546411
20
-466.7838810745734
10
240.40592227893057
20
-466.60399819767525
10
240.77867351108637
20
-466.31789134832525
10
241.06467365146077
20
-465.94505823549235
0
LWPOLYLINE
5
115
100
AcDbEntity
8
0
100
AcDbPolyline
90
46
70
1
43
0.0
10
209.52859960982602
20
-145.03182786137313
10
179.52860200982582
20
-145.03182786137313
10
174.52860240982585
20
-140.03182826137316
10
174.52860240982585
20
-124.96628600380117
10
174.36656649011246
20
-123.73550100022914
10
173.86620238081065
20
-122.52751518142804
10
173.07023802896862
20
-121.49019424223027
10
172.03291708977076
20
-120.69422989038816
10
170.82493127096973
20
-120.19386578108634
10
169.52860280982588
20
-120.02320090148316
10
168.23227434868184
20
-120.19386578108634
10
167.02428852988083
20
-120.69422989038813
10
165.98696759068304
20
-121.49019424223027
10
165.19100323884086
20
-122.52751518142816
10
164.69063912953914
20
-123.73550100022908
10
164.52860320982575
20
-124.96628600380134
10
164.52860320982575
20
-140.03182826137314
10
159.52860360982569
20
-145.0318278613731
10
114.52860720982544
20
-145.03182786137313
10
89.52860920982522
20
-120.03182986137304
10
79.528610009825229
20
-120.03182986137304
10
54.528612009825054
20
-145.03182786137313
10
9.528615609824751
20
-145.03182786137307
10
4.5286160098247308
20
-140.03182826137311
10
4.5286160098247308
20
-124.96628600380113
10
4.3665800901111584
20
-123.73550100022911
10
3.8662159808094554
20
-122.52751518142823
10
3.0702516289672666
20
-121.49019424223034
10
2.0329306897694366
20
-120.6942298903881
10
0.82494487096852254
20
-120.1938657810864
10
-0.47138359017547593
20
-120.02320090148319
10
-1.7677120513192479
20
-120.1938657810864
10
-2.9756978701202774
20
-120.6942298903881
10
-4.0130188093181118
20
-121.4901942422303
10
-4.8089831611602962
20
-122.52751518142819
10
-5.3093472704620304
20
-123.73550100022911
10
-5.4713831901753984
20
-124.96628600380113
10
-5.4713831901753611
20
-140.03182826137311
10
-10.471382790175383
20
-145.0318278613731
10
-40.471380390175568
20
-145.0318278613731
10
-45.471379990175592
20
-150.03182746137304
10
-45.47137999017562
20
-430.03180506137494
10
-40.471380390175611
20
-435.03180466137508
10
209.52859960982602
20
-435.03180466137508
10
214.52859920982615
20
-430.03180506137505
10
214.52859920982615
20
-150.03182746137315
0
LWPOLYLINE
5
116
100
AcDbEntity
8
0
100
AcDbPolyline
90
24
70
1
43
0.0
10
240.8188317724796
20
-146.32512503720474
10
241.10483191285397
20
-145.95229192437182
10
241.2845905245178
20
-145.51814050856004
10
241.34585735515142
20
-145.05225749128766
10
241.28445717149555
20
-144.58639203027366
10
241.10457429459754
20
-144.15229208680717
10
240.81846744524728
20
-143.77954085465137
10
240.44563433241456
20
-143.49354071427692
10
240.01148291660272
20
-143.31378210261317
10
239.5455998993304
20
-143.25251527197943
10
239.07973443831628
20
-143.31391545563545
10
238.64563449484996
20
-143.49379833253357
10
238.27288326269405
20
-143.77990518188358
10
237.98688312231974
20
-144.15273829471647
10
237.80712451065583
20
-144.58688971052825
10
237.74585768002208
20
-145.05277272780063
10
237.80725786367807
20
-145.51863818881463
10
237.98714074057619
20
-145.95273813228104
10
238.27324758992631
20
-146.32548936443692
10
238.64608070275909
20
-146.61148950481132
10
239.0802321185709
20
-146.79124811647515
10
239.54611513584331
20
-146.85251494710886
10
240.0119805968572
20
-146.79111476345284
10
240.44608054032381
20
-146.61123188655472
0
LWPOLYLINE
5
117
100
AcDbEntity
8
0
100
AcDbPolyline
90
24
70
1
43
0.0
10
227.40358615433078
20
-446.58555000584101
10
227.7763373864866
20
-446.29944315649095
10
228.06233752686097
20
-445.92661004365817
10
228.24209613852486
20
-445.49245862784636
10
228.30336296915857
20
-445.02657561057384
10
228.24196278550258
20
-444.56071014955995
10
228.06207990860446
20
-444.12661020609346
10
227.7759730592544
20
-443.75385897393755
10
227.40313994642156
20
-443.46785883356324
10
226.96898853060975
20
-443.28810022189936
10
226.50310551333735
20
-443.2268333912657
10
226.03724005232337
20
-443.28823357492178
10
225.60314010885702
20
-443.4681164518197
10
225.23038887670108
20
-443.75422330116982
10
224.94438873632663
20
-444.12705641400265
10
224.76463012466292
20
-444.56120782981441
10
224.7033632940292
20
-445.02709084708692
10
224.76476347768514
20
-445.49295630810082
10
224.94464635458314
20
-445.92705625156731
10
225.23075320393338
20
-446.29980748372327
10
225.60358631676604
20
-446.58580762409758
10
226.03773773257799
20
-446.76556623576147
10
226.5036207498504
20
-446.82683306639501
10
226.96948621086437
20
-446.76543288273905
0
LWPOLYLINE
5
118
100
AcDbEntity
8
0
100
AcDbPolyline
90
24
70
1
43
0.0
10
248.28016972252874
20
-126.31164509923192
10
248.65300283536169
20
-126.59764523960632
10
249.0871542511735
20
-126.77740385127012
10
249.55303726844585
20
-126.83867068190384
10
250.01890272945985
20
-126.77727049824784
10
250.45300267292635
20
-126.59738762134985
10
250.82575390508219
20
-126.31128077199978
10
251.11175404545645
20
-125.93844765916693
10
251.29151265712039
20
-125.50429624335507
10
251.35277948775399
20
-125.03841322608267
10
251.29137930409809
20
-124.57254776506875
10
251.11149642719997
20
-124.13844782160223
10
250.82538957784988
20
-123.76569658944632
10
250.45255646501704
20
-123.47969644907207
10
250.01840504920526
20
-123.29993783740815
10
249.5525220319328
20
-123.23867100677444
10
249.08665657091888
20
-123.30007119043043
10
248.65255662745238
20
-123.47995406732856
10
248.27980539529653
20
-123.76606091667864
10
247.99380525492228
20
-124.13889402951142
10
247.81404664325839
20
-124.57304544532323
10
247.75277981262468
20
-125.03892846259563
10
247.8141799962807
20
-125.50479392360967
10
247.99406287317865
20
-125.93889386707616
0
LWPOLYLINE
5
119
100
AcDbEntity
8
0
100
AcDbPolyline
90
24
70
1
43
0.0
10
261.32414728559252
20
-465.04502380240814
10
261.26274710193672
20
-464.5791583413943
10
261.08286422503858
20
-464.14505839792776
10
260.79675737568834
20
-463.77230716577185
10
260.42392426285568
20
-463.48630702539759
10
259.98977284704392
20
-463.30654841373359
10
259.52388982977146
20
-463.24528158309994
10
259.0580243687574
20
-463.30668176675596
10
258.62392442529091
20
-463.48656464365405
10
258.25117319313512
20
-463.77267149300405
10
257.9651730527608
20
-464.145504605837
10
257.78541444109686
20
-464.57965602164876
10
257.72414761046326
20
-465.04553903892133
10
257.78554779411922
20
-465.51140449993511
10
257.9654306710172
20
-465.94550444340166
10
258.25153752036738
20
-466.31825567555751
10
258.62437063320021
20
-466.60425581593182
10
259.05852204901191
20
-466.78401442759582
10
259.52440506628437
20
-466.84528125822936
10
259.99027052729838
20
-466.7838810745734
10
260.42437047076487
20
-466.60399819767525
10
260.79712170292066
20
-466.31789134832525
10
261.08312184329509
20
-465.94505823549235
10
261.26288045495886
20
-465.51090681968054
0
LWPOLYLINE
5
120
100
AcDbEntity
8
0
100
AcDbPolyline
90
24
70
1
43
0.0
10
228.34541150766796
20
-130.04187429238391
10
228.28401132401197
20
-129.57600883136993
10
228.10412844711402
20
-129.14190888790341
10
227.81802159776385
20
-128.76915765574765
10
227.44518848493107
20
-128.48315751537325
10
227.01103706911925
20
-128.30339890370936
10
226.54515405184679
20
-128.24213207307577
10
226.07928859083285
20
-128.30353225673164
10
225.64518864736635
20
-128.48341513362976
10
225.27243741521045
20
-128.76952198297982
10
224.98643727483619
20
-129.14235509581263
10
224.80667866317222
20
-129.57650651162453
10
224.74541183253862
20
-130.0423895288969
10
224.80681201619456
20
-130.50825498991085
10
224.98669489309265
20
-130.94235493337732
10
225.27280174244277
20
-131.31510616553322
10
225.6456348552756
20
-131.60110630590754
10
226.07978627108736
20
-131.78086491757145
10
226.54566928835979
20
-131.84213174820516
10
227.01153474937374
20
-131.78073156454917
10
227.44563469284026
20
-131.60084868765108
10
227.81838592499605
20
-131.31474183830093
10
228.10438606537048
20
-130.94190872546815
10
228.28414467703425
20
-130.50775730965637
0
LWPOLYLINE
5
121
100
AcDbEntity
8
0
100
AcDbPolyline
90
24
70
1
43
0.0
10
-50.471379590175616
20
-109.23183072537292
10
-50.937253834090185
20
-109.29316423314592
10
-51.371379518175587
20
-109.47298497926863
10
-51.744171694488003
20
-109.75903847706053
10
-52.030225192279964
20
-110.13183065337287
10
-52.210045938402622
20
-110.56595633745832
10
-52.271379446175615
20
-111.03183058137287
10
-52.210045938402622
20
-111.49770482528751
10
-52.030225192279957
20
-111.93183050937293
10
-51.744171694488003
20
-112.30462268568533
10
-51.371379518175644
20
-112.59067618347726
10
-50.937253834090185
20
-112.77049692959989
10
-50.471379590175609
20
-112.83183043737289
10
-50.005505346261032
20
-112.77049692959989
10
-49.57137966217563
20
-112.59067618347721
10
-49.198587485863214
20
-112.30462268568533
10
-48.91253398807126
20
-111.93183050937293
10
-48.732713241948595
20
-111.49770482528751
10
-48.671379734175602
20
-111.03183058137287
10
-48.732713241948595
20
-110.56595633745832
10
-48.91253398807126
20
-110.13183065337287
10
-49.198587485863214
20
-109.7590384770605
10
-49.571379662175588
20
-109.47298497926859
10
-50.005505346261032
20
-109.29316423314592
0
LWPOLYLINE
5
122
100
AcDbEntity
8
0
100
AcDbPolyline
90
24
70
1
43
0.0
10
226.96898853060972
20
-288.28995473657164
10
226.50310551333729
20
-288.22868790593799
10
226.0372400523234
20
-288.29008808959395
10
225.60314010885691
20
-288.46997096649204
10
225.230388876701
20
-288.75607781584216
10
224.94438873632669
20
-289.12891092867494
10
224.7646301246628
20
-289.56306234448681
10
224.70336329402909
20
-290.02894536175921
10
224.76476347768516
20
-290.49481082277316
10
224.94464635458317
20
-290.92891076623965
10
225.23075320393326
20
-291.3016619983955
10
225.6035863167661
20
-291.58766213876982
10
226.03773773257788
20
-291.7674207504337
10
226.5036207498504
20
-291.82868758106736
10
226.96948621086423
20
-291.76728739741139
10
227.40358615433081
20
-291.5874045205133
10
227.77633738648663
20
-291.30129767116324
10
228.062337526861
20
-290.9284645583304
10
228.2420961385248
20
-290.49431314251854
10
228.30336296915851
20
-290.02843012524613
10
228.24196278550258
20
-289.56256466423218
10
228.06207990860443
20
-289.12846472076569
10
227.77597305925434
20
-288.7557134886099
10
227.40313994642162
20
-288.46971334823553
0
LWPOLYLINE
5
123
100
AcDbEntity
8
0
100
AcDbPolyline
90
24
70
1
43
0.0
10
38.62861328182494
20
-112.59067618347726
10
39.062738965910398
20
-112.77049692959989
10
39.528613209824982
20
-112.83183043737289
10
39.994487453739573
20
-112.77049692959991
10
40.428613137824968
20
-112.59067618347726
10
40.801405314137384
20
-112.30462268568533
10
41.087458811929345
20
-111.93183050937293
10
41.267279558051996
20
-111.49770482528751
10
41.328613065824996
20
-111.03183058137287
10
41.267279558051996
20
-110.56595633745832
10
41.087458811929345
20
-110.13183065337287
10
40.801405314137362
20
-109.7590384770605
10
40.42861313782501
20
-109.47298497926859
10
39.994487453739552
20
-109.29316423314592
10
39.528613209824961
20
-109.23183072537292
10
39.062738965910398
20
-109.29316423314592
10
38.628613281825004
20
-109.47298497926863
10
38.255821105512588
20
-109.75903847706053
10
37.969767607720641
20
-110.13183065337287
10
37.789946861597983
20
-110.56595633745832
10
37.728613353824976
20
-111.03183058137287
10
37.789946861597983
20
-111.49770482528751
10
37.969767607720641
20
-111.93183050937293
10
38.255821105512595
20
-112.30462268568533
0
LWPOLYLINE
5
124
100
AcDbEntity
8
0
100
AcDbPolyline
90
24
70
1
43
0.0
10
128.62860608182558
20
-112.59067618347729
10
129.06273176591097
20
-112.77049692959991
10
129.52860600982558
20
-112.83183043737296
10
129.99448025374019
20
-112.77049692959994
10
130.42860593782558
20
-112.59067618347729
10
130.80139811413798
20
-112.30462268568537
10
131.08745161192985
20
-111.93183050937296
10
131.26727235805254
20
-111.49770482528754
10
131.32860586582555
20
-111.0318305813729
10
131.26727235805254
20
-110.56595633745836
10
131.08745161192985
20
-110.1318306533729
10
130.80139811413798
20
-109.75903847706053
10
130.42860593782558
20
-109.47298497926866
10
129.99448025374016
20
-109.29316423314596
10
129.52860600982552
20
-109.23183072537296
10
129.06273176591097
20
-109.29316423314596
10
128.62860608182555
20
-109.47298497926866
10
128.25581390551309
20
-109.75903847706057
10
127.96976040772122
20
-110.1318306533729
10
127.78993966159857
20
-110.56595633745836
10
127.72860615382555
20
-111.0318305813729
10
127.78993966159857
20
-111.49770482528754
10
127.96976040772122
20
-111.93183050937296
10
128.25581390551315
20
-112.30462268568537
0
LWPOLYLINE
5
125
100
AcDbEntity
8
0
100
AcDbPolyline
90
24
70
1
43
0.0
10
218.62859888182618
20
-112.59067618347729
10
219.06272456591154
20
-112.77049692959991
10
219.52859880982618
20
-112.83183043737293
10
219.99447305374073
20
-112.77049692959991
10
220.42859873782604
20
-112.59067618347726
10
220.80139091413849
20
-112.30462268568537
10
221.08744441193042
20
-111.93183050937296
10
221.26726515805316
20
-111.49770482528754
10
221.32859866582618
20
-111.0318305813729
10
221.26726515805316
20
-110.56595633745836
10
221.08744441193042
20
-110.1318306533729
10
220.80139091413849
20
-109.75903847706053
10
220.42859873782604
20
-109.47298497926866
10
219.99447305374073
20
-109.29316423314596
10
219.52859880982618
20
-109.23183072537296
10
219.06272456591154
20
-109.29316423314596
10
218.62859888182618
20
-109.47298497926866
10
218.25580670551363
20
-109.75903847706053
10
217.96975320772174
20
-110.1318306533729
10
217.78993246159911
20
-110.56595633745836
10
217.72859895382621
20
-111.0318305813729
10
217.78993246159911
20
-111.49770482528754
10
217.96975320772174
20
-111.93183050937296
10
218.25580670551363
20
-112.30462268568537
0
LWPOLYLINE
5
126
100
AcDbEntity
8
0
100
AcDbPolyline
90
24
70
1
43
0.0
10
-88.710374940787631
20
-464.58905400882247
10
-88.890257817685679
20
-464.15495406535581
10
-89.176364667035827
20
-463.78220283320013
10
-89.549197779868607
20
-463.49620269282582
10
-89.983349195680404
20
-463.31644408116188
10
-90.449232212952808
20
-463.25517725052816
10
-90.915097673966798
20
-463.31657743418418
10
-91.349197617433305
20
-463.49646031108222
10
-91.72194884958914
20
-463.78256716043239
10
-92.007948989963481
20
-464.15540027326517
10
-92.187707601627338
20
-464.58955168907698
10
-92.248974432261036
20
-465.05543470634939
10
-92.18757424860506
20
-465.52130016736339
10
-92.007691371706983
20
-465.95540011082988
10
-91.721584522356849
20
-466.32815134298568
10
-91.348751409524056
20
-466.61415148336005
10
-90.914599993712244
20
-466.79391009502388
10
-90.44871697643984
20
-466.85517692565759
10
-89.982851515425864
20
-466.79377674200168
10
-89.548751571959372
20
-466.61389386510348
10
-89.176000339803522
20
-466.32778701575347
10
-88.890000199429196
20
-465.95495390292058
10
-88.710241587765353
20
-465.52080248710877
10
-88.64897475713164
20
-465.05491946983636
0
LWPOLYLINE
5
127
100
AcDbEntity
8
0
100
AcDbPolyline
90
4
70
1
43
0.0
10
229.77859798982607
20
-465.77457353887041
10
229.77859798982607
20
-456.77457425887036
10
223.27859850982608
20
-456.77457425887036
10
223.27859850982608
20
-465.77457353887041
0
LWPOLYLINE
5
128
100
AcDbEntity
8
0
100
AcDbPolyline
90
4
70
1
43
0.0
10
-54.221379290175726
20
-456.7745742588703
10
-60.721378770175733
20
-456.7745742588703
10
-60.721378770175733
20
-465.77457353887041
10
-54.221379290175726
20
-465.77457353887041
0
LWPOLYLINE
5
129
100
AcDbEntity
8
0
100
AcDbPolyline
90
24
70
1
43
0.0
10
-69.212969999290848
20
-143.7498880200275
10
-69.585803112123642
20
-143.46388787965321
10
-70.019954527935468
20
-143.2841292679893
10
-70.485837545207858
20
-143.22286243735562
10
-70.951703006221848
20
-143.28426262101164
10
-71.38580294968834
20
-143.46414549790973
10
-71.758554181844175
20
-143.75025234725979
10
-72.044554322218502
20
-144.1230854600926
10
-72.224312933882373
20
-144.55723687590441
10
-72.285579764516058
20
-145.02311989317681
10
-72.224179580860081
20
-145.48898535419079
10
-72.044296703962033
20
-145.9230852976572
10
-71.758189854611899
20
-146.29583652981322
10
-71.385356741779106
20
-146.58183667018741
10
-70.951205325967294
20
-146.7615952818513
10
-70.48532230869489
20
-146.82286211248504
10
-70.0194568476809
20
-146.76146192882902
10
-69.585356904214407
20
-146.58157905193104
10
-69.212605672058572
20
-146.2954722025809
10
-68.926605531684245
20
-145.92263908974812
10
-68.746846920020374
20
-145.48848767393619
10
-68.68558008938669
20
-145.02260465666384
10
-68.746980273042666
20
-144.55673919564981
10
-68.926863149940729
20
-144.12263925218332
0
LWPOLYLINE
5
130
100
AcDbEntity
8
0
100
AcDbPolyline
90
26
70
1
43
0.0
10
253.50212628936839
20
-119.06865079588876
10
254.53740238695613
20
-118.93235411194877
10
255.50212612936829
20
-118.53275245389835
10
256.33055318784034
20
-117.89707801436073
10
256.96622762737798
20
-117.06865095588878
10
257.36582928542822
20
-116.10392721347677
10
257.50212596936831
20
-115.06865111588877
10
257.36582928542822
20
-114.03337501830077
10
256.96622762737792
20
-113.06865127588878
10
256.33055318784034
20
-112.24022421741665
10
255.50212612936826
20
-111.60454977787907
10
254.53740238695616
20
-111.20494811982873
10
253.50212628936839
20
-111.06865143588863
10
245.43929626299376
20
-111.06865143588863
10
244.47088111455898
20
-111.20494811982873
10
243.50615737214699
20
-111.6045497778791
10
242.67773031367506
20
-112.24022421741668
10
242.04205587413742
20
-113.06865127588878
10
241.64245421608689
20
-114.03337501830077
10
241.50615753214697
20
-115.06865111588877
10
241.64245421608695
20
-116.10392721347677
10
242.04205587413742
20
-117.06865095588878
10
242.677730313675
20
-117.89707801436073
10
243.50615737214699
20
-118.53275245389835
10
244.47088111455898
20
-118.93235411194877
10
245.50615721214706
20
-119.06865079588876
0
LWPOLYLINE
5
131
100
AcDbEntity
8
0
100
AcDbPolyline
90
24
70
1
43
0.0
10
-68.915930038315494
20
-464.1219386475388
10
-69.202036887665628
20
-463.74918741538295
10
-69.574870000498407
20
-463.46318727500864
10
-70.009021416310233
20
-463.28342866334469
10
-70.474904433582637
20
-463.22216183271109
10
-70.940769894596627
20
-463.28356201636711
10
-71.374869838063105
20
-463.46344489326509
10
-71.747621070218941
20
-463.74955174261521
10
-72.033621210593282
20
-464.12238485544805
10
-72.213379822257139
20
-464.55653627125992
10
-72.274646652890837
20
-465.02241928853221
10
-72.213246469234861
20
-465.48828474954621
10
-72.033363592336798
20
-465.9223846930127
10
-71.747256742986679
20
-466.29513592516849
10
-71.374423630153871
20
-466.58113606554286
10
-70.940272214342045
20
-466.76089467720669
10
-70.474389197069655
20
-466.82216150784052
10
-70.008523736055679
20
-466.7607613241845
10
-69.574423792589187
20
-466.58087844728641
10
-69.201672560433337
20
-466.29477159793629
10
-68.915672420058996
20
-465.92193848510357
10
-68.735913808395139
20
-465.48778706929164
10
-68.674646977761441
20
-465.02190405201929
10
-68.736047161417432
20
-464.55603859100535
0
LWPOLYLINE
5
132
100
AcDbEntity
8
0
100
AcDbPolyline
90
4
70
1
43
0.0
10
229.7785979898261
20
-433.47457612287036
10
229.7785979898261
20
-424.47457684287025
10
223.27859850982611
20
-424.47457684287025
10
223.27859850982611
20
-433.4745761228703
0
LWPOLYLINE
5
133
100
AcDbEntity
8
0
100
AcDbPolyline
90
4
70
1
43
0.0
10
223.27859850982611
20
-278.38181719337399
10
229.7785979898261
20
-278.38181719337399
10
229.7785979898261
20
-269.38181791337394
10
223.27859850982611
20
-269.38181791337394
0
LWPOLYLINE
5
134
100
AcDbEntity
8
0
100
AcDbPolyline
90
24
70
1
43
0.0
10
-92.203156971764315
20
-144.51244126146972
10
-92.264423802398014
20
-144.97832427874212
10
-92.203023618742037
20
-145.4441897397561
10
-92.023140741843989
20
-145.87828968322259
10
-91.737033892493841
20
-146.25104091537838
10
-91.364200779661047
20
-146.5370410557527
10
-90.930049363849221
20
-146.71679966741661
10
-90.464166346576818
20
-146.77806649805032
10
-89.998300885562827
20
-146.7166663143943
10
-89.564200942096349
20
-146.53678343749624
10
-89.191449709940514
20
-146.25067658814612
10
-88.905449569566173
20
-145.87784347531334
10
-88.725690957902316
20
-145.44369205950153
10
-88.664424127268617
20
-144.9778090422291
10
-88.725824310924608
20
-144.51194358121512
10
-88.905707187822685
20
-144.0778436377486
10
-89.191814037172804
20
-143.70509240559278
10
-89.564647150005584
20
-143.41909226521852
10
-89.998798565817395
20
-143.23933365355461
10
-90.464681583089828
20
-143.1780668229209
10
-90.93054704410379
20
-143.23946700657689
10
-91.364646987570268
20
-143.41934988347504
10
-91.737398219726103
20
-143.7054567328251
10
-92.023398360100472
20
-144.07828984565788
0
LWPOLYLINE
5
135
100
AcDbEntity
8
0
100
AcDbPolyline
90
4
70
1
43
0.0
10
-60.721378770175711
20
-278.38181719337393
10
-54.221379290175697
20
-278.38181719337393
10
-54.221379290175697
20
-269.38181791337394
10
-60.721378770175711
20
-269.38181791337394
0
LWPOLYLINE
5
136
100
AcDbEntity
8
0
100
AcDbPolyline
90
24
70
1
43
0.0
10
-56.59354526566873
20
-443.45557442125772
10
-57.028827275534574
20
-443.27857108172458
10
-57.495089245900949
20
-443.22025825887386
10
-57.96055619402172
20
-443.28460987521652
10
-58.3935073166029
20
-443.46724047444457
10
-58.764437710126231
20
-443.75570408303219
10
-59.048069081264501
20
-444.13034238276271
10
-59.225072420797666
20
-444.56562439262854
10
-59.283385243648333
20
-445.0318863629949
10
-59.219033627305777
20
-445.49735331111572
10
-59.0364030280777
20
-445.93030443369679
10
-58.747939419490095
20
-446.30123482722018
10
-58.373301119759581
20
-446.58486619835844
10
-57.938019109893744
20
-446.76186953789164
10
-57.471757139527362
20
-446.82018236074225
10
-57.006290191406592
20
-446.7558307443997
10
-56.573339068825419
20
-446.5732001451716
10
-56.202408675302081
20
-446.28473653658403
10
-55.918777304163811
20
-445.91009823685351
10
-55.741773964630653
20
-445.47481622698768
10
-55.683461141779986
20
-445.00855425662132
10
-55.747812758122549
20
-444.54308730850062
10
-55.930443357350612
20
-444.11013618591932
10
-56.218906965938224
20
-443.73920579239604
0
LWPOLYLINE
5
137
100
AcDbEntity
8
0
100
AcDbPolyline
90
24
70
1
43
0.0
10
-58.743630438634881
20
-288.75894018221749
10
-59.029630579009236
20
-289.13177329505027
10
-59.209389190673079
20
-289.56592471086213
10
-59.270656021306785
20
-290.03180772813454
10
-59.209255837650794
20
-290.49767318914849
10
-59.029372960752738
20
-290.93177313261498
10
-58.743266111402619
20
-291.30452436477083
10
-58.370432998569825
20
-291.59052450514514
10
-57.936281582758006
20
-291.77028311680903
10
-57.470398565485596
20
-291.83154994744268
10
-57.004533104471605
20
-291.77014976378678
10
-56.57043316100512
20
-291.59026688688863
10
-56.197681928849292
20
-291.30416003753857
10
-55.911681788474951
20
-290.93132692470579
10
-55.731923176811094
20
-290.49717550889392
10
-55.670656346177395
20
-290.03129249162151
10
-55.732056529833372
20
-289.56542703060757
10
-55.911939406731435
20
-289.13132708714107
10
-56.198046256081554
20
-288.75857585498522
10
-56.570879368914355
20
-288.47257571461091
10
-57.005030784726173
20
-288.29281710294703
10
-57.470913801998584
20
-288.23155027231331
10
-57.936779263012561
20
-288.29295045596933
10
-58.370879206479039
20
-288.47283333286737
0
LWPOLYLINE
5
138
100
AcDbEntity
8
0
100
AcDbPolyline
90
29
70
1
43
0.0
10
-76.035367640329824
20
-119.06865079588871
10
-75.000091542741941
20
-118.93235411194873
10
-74.035367800329851
20
-118.53275245389831
10
-73.206940741857736
20
-117.89707801436069
10
-72.571266302320197
20
-117.06865095588874
10
-72.171664644269924
20
-116.10392721347672
10
-72.035367960329808
20
-115.06865111588873
10
-72.171664644269924
20
-114.03337501830073
10
-72.571266302320197
20
-113.06865127588875
10
-73.206940741857736
20
-112.24022421741662
10
-74.035367800329851
20
-111.60454977787907
10
-75.000091542741941
20
-111.20494811982869
10
-76.035367640329824
20
-111.0686514358886
10
-80.191695033053747
20
-111.0686514358886
10
-80.471377190175843
20
-111.03183058137287
10
-80.751059347297925
20
-111.0686514358886
10
-84.098197666704394
20
-111.0686514358886
10
-85.066612815139109
20
-111.20494811982869
10
-86.031336557551157
20
-111.60454977787907
10
-86.859763616023088
20
-112.24022421741662
10
-87.495438055560669
20
-113.06865127588871
10
-87.895039713611141
20
-114.03337501830073
10
-88.031336397551058
20
-115.06865111588873
10
-87.895039713611141
20
-116.10392721347672
10
-87.495438055560669
20
-117.06865095588874
10
-86.859763616023088
20
-117.89707801436069
10
-86.031336557551143
20
-118.53275245389831
10
-85.066612815139109
20
-118.93235411194873
10
-84.031336717551085
20
-119.06865079588871
0
LWPOLYLINE
5
139
100
AcDbEntity
8
0
100
AcDbPolyline
90
4
70
1
43
0.0
10
-60.721378770175733
20
-433.4745761228703
10
-54.221379290175719
20
-433.4745761228703
10
-54.221379290175719
20
-424.47457684287019
10
-60.721378770175733
20
-424.47457684287019
0
LWPOLYLINE
5
140
100
AcDbEntity
8
0
100
AcDbPolyline
90
4
70
1
43
0.0
10
223.27859850982611
20
-310.68181460937421
10
229.7785979898261
20
-310.68181460937421
10
229.7785979898261
20
-301.68181532937416
10
223.27859850982611
20
-301.68181532937416
0
LWPOLYLINE
5
141
100
AcDbEntity
8
0
100
AcDbPolyline
90
4
70
1
43
0.0
10
-60.721378770175711
20
-301.6818153293741
10
-60.721378770175711
20
-310.68181460937416
10
-54.221379290175705
20
-310.68181460937416
10
-54.221379290175705
20
-301.6818153293741
0
LWPOLYLINE
5
142
100
AcDbEntity
8
0
100
AcDbPolyline
90
4
70
1
43
0.0
10
-54.221379290175676
20
-141.68177039407334
10
-60.72137877017569
20
-141.68177039407331
10
-60.72137877017569
20
-150.68176967407342
10
-54.221379290175676
20
-150.68176967407342
0
LWPOLYLINE
5
143
100
AcDbEntity
8
0
100
AcDbPolyline
90
12
70
1
43
0.0
10
269.5285948098263
20
-470.03180186137524
10
269.52859480982636
20
-109.84008226189505
10
264.52859520982645
20
-105.03183106137293
10
244.5285968098263
20
-105.03183106137288
10
242.52859696982631
20
-107.0318309013729
10
-73.471377750175776
20
-107.0318309013729
10
-75.471377590175763
20
-105.03183106137288
10
-95.4713759901759
20
-105.03183106137288
10
-100.47137559017594
20
-110.03183066137282
10
-100.47137559017598
20
-470.03180186137524
10
-95.471375990176
20
-475.03180146137527
10
264.52859520982639
20
-475.03180146137527
0
SPLINE
5
144
100
AcDbEntity
8
0
100
AcDbSpline
70
1064
71
3
72
8
73
4
74
0
42
0.000000001
43
0.0000000001
44
0.0000000001
40
0
40
0
40
0
40
0
40
1
40
1
40
1
40
1
10
0.59463181300009271
20
-451.25306786857573
30
0
10
0.59463181300009271
20
-451.59528475320911
30
0
10
0.31463531700705705
20
-451.87528124920215
30
0
10
-0.027581567626349113
20
-451.87528124920215
30
0
0
SPLINE
5
145
100
AcDbEntity
8
0
100
AcDbSpline
70
1064
71
3
72
8
73
4
74
0
42
0.000000001
43
0.0000000001
44
0.0000000001
40
0
40
0
40
0
40
0
40
1
40
1
40
1
40
1
10
-0.027581567626349113
20
-450.63085448794931
30
0
10
0.31463531700705705
20
-450.63085448794931
30
0
10
0.59463181300009271
20
-450.91085098394228
30
0
10
0.59463181300009271
20
-451.25306786857573
30
0
0
SPLINE
5
146
100
AcDbEntity
8
0
100
AcDbSpline
70
1064
71
3
72
8
73
4
74
0
42
0.000000001
43
0.0000000001
44
0.0000000001
40
0
40
0
40
0
40
0
40
1
40
1
40
1
40
1
10
-0.64979494825279094
20
-451.25306786857573
30
0
10
-0.64979494825279094
20
-450.91085098394228
30
0
10
-0.36979845225975527
20
-450.63085448794931
30
0
10
-0.027581567626349113
20
-450.63085448794931
30
0
0
SPLINE
5
147
100
AcDbEntity
8
0
100
AcDbSpline
70
1064
71
3
72
8
73
4
74
0
42
0.000000001
43
0.0000000001
44
0.0000000001
40
0
40
0
40
0
40
0
40
1
40
1
40
1
40
1
10
-0.027581567626349113
20
-451.87528124920215
30
0
10
-0.36979845225975527
20
-451.87528124920215
30
0
10
-0.64979494825279094
20
-451.59528475320911
30
0
10
-0.64979494825279094
20
-451.25306786857573
30
0
0
SPLINE
5
148
100
AcDbEntity
8
0
100
AcDbSpline
70
1064
71
3
72
8
73
4
74
0
42
0.000000001
43
0.0000000001
44
0.0000000001
40
0
40
0
40
0
40
0
40
1
40
1
40
1
40
1
10
-8.116355515770092
20
-463.69733548110452
30
0
10
-8.116355515770092
20
-464.0395523657379
30
0
10
-8.3963520117631276
20
-464.31954886173105
30
0
10
-8.7385688963965347
20
-464.31954886173105
30
0
0
LINE
5
149
100
AcDbEntity
8
0
100
AcDbLine
10
-8.1163555157700937
20
-446.2753608235642
30
0
11
-8.116355515770092
21
-463.69733548110452
31
0
0
SPLINE
5
150
100
AcDbEntity
8
0
100
AcDbSpline
70
1064
71
3
72
8
73
4
74
0
42
0.000000001
43
0.0000000001
44
0.0000000001
40
0
40
0
40
0
40
0
40
1
40
1
40
1
40
1
10
-8.7385688963965347
20
-445.65314744293772
30
0
10
-8.3963520117631276
20
-445.65314744293772
30
0
10
-8.116355515770092
20
-445.93314393893081
30
0
10
-8.116355515770092
20
-446.2753608235642
30
0
0
SPLINE
5
151
100
AcDbEntity
8
0
100
AcDbSpline
70
1064
71
3
72
8
73
4
74
0
42
0.000000001
43
0.0000000001
44
0.0000000001
40
0
40
0
40
0
40
0
40
1
40
1
40
1
40
1
10
-9.3607822770229774
20
-446.2753608235642
30
0
10
-9.3607822770229774
20
-445.93314393893081
30
0
10
-9.0807857810299417
20
-445.65314744293772
30
0
10
-8.7385688963965347
20
-445.65314744293772
30
0
0
LINE
5
152
100
AcDbEntity
8
0
100
AcDbLine
10
-9.3607822770229756
20
-463.69733548110452
30
0
11
-9.3607822770229774
21
-446.2753608235642
31
0
0
SPLINE
5
153
100
AcDbEntity
8
0
100
AcDbSpline
70
1064
71
3
72
8
73
4
74
0
42
0.000000001
43
0.0000000001
44
0.0000000001
40
0
40
0
40
0
40
0
40
1
40
1
40
1
40
1
10
-8.7385688963965347
20
-464.31954886173105
30
0
10
-9.0807857810299417
20
-464.31954886173105
30
0
10
-9.3607822770229774
20
-464.0395523657379
30
0
10
-9.3607822770229774
20
-463.69733548110452
30
0
0
LWPOLYLINE
5
154
100
AcDbEntity
8
0
100
AcDbPolyline
90
7
70
1
43
0.0
10
-11.849635799528745
20
-466.80840238423679
10
-11.849635799528745
20
-443.16429392043199
10
-5.6275019932643255
20
-443.16429392043199
10
-5.6275019932643255
20
-454.36413477170794
10
-0.027581567626349113
20
-445.0309340623113
10
3.7056987161323018
20
-451.25306786857573
10
-5.6275019932643255
20
-466.80840238423679
0
LWPOLYLINE
5
155
100
AcDbEntity
8
0
100
AcDbPolyline
90
24
70
1
43
0.0
10
174.21072741197372
20
-356.48069968489699
10
174.5989559485692
20
-356.53181094137449
10
174.9871844851647
20
-356.48069968489699
10
175.34895588856924
20
-356.33084906312808
10
175.65961603549621
20
-356.09247114830146
10
175.89799395032293
20
-355.78181100137448
10
176.04784457209172
20
-355.42003959797
10
176.09895582856925
20
-355.03181106137447
10
176.04784457209172
20
-354.64358252477894
10
175.89799395032293
20
-354.28181112137446
10
175.65961603549621
20
-353.97115097444748
10
175.34895588856924
20
-353.73277305962085
10
174.9871844851647
20
-353.58292243785195
10
174.5989559485692
20
-353.53181118137445
10
174.21072741197372
20
-353.58292243785195
10
173.84895600856922
20
-353.73277305962085
10
173.53829586164221
20
-353.97115097444748
10
173.29991794681561
20
-354.28181112137446
10
173.15006732504671
20
-354.64358252477894
10
173.09895606856924
20
-355.03181106137447
10
173.15006732504671
20
-355.42003959797
10
173.29991794681561
20
-355.78181100137448
10
173.53829586164221
20
-356.09247114830146
10
173.84895600856925
20
-356.33084906312808
0
LWPOLYLINE
5
156
100
AcDbEntity
8
0
100
AcDbPolyline
90
24
70
1
43
0.0
10
205.65801961821111
20
-216.45958011656862
10
205.84268378464952
20
-216.02749244496439
10
205.90922315363719
20
-215.56233320051854
10
205.85310317713942
20
-215.09580221702802
10
205.67814833881172
20
-214.65969281003885
10
205.39628152175959
20
-214.28372511493245
10
205.02671148375816
20
-213.99352070881432
10
204.59462381215405
20
-213.80885654237591
10
204.12946456770811
20
-213.74231717338813
10
203.66293358421751
20
-213.79843714988596
10
203.22682417722831
20
-213.97339198821368
10
202.85085648212191
20
-214.25525880526581
10
202.56065207600375
20
-214.62482884326721
10
202.3759879095654
20
-215.05691651487149
10
202.30944854057759
20
-215.52207575931732
10
202.3655685170755
20
-215.9886067428078
10
202.5405233554032
20
-216.42471614979701
10
202.82239017245533
20
-216.80068384490343
10
203.19196021045673
20
-217.09088825102154
10
203.62404788206092
20
-217.27555241745992
10
204.08920712650681
20
-217.34209178644775
10
204.55573810999732
20
-217.28597180994993
10
204.99184751698652
20
-217.11101697162218
10
205.36781521209303
20
-216.82915015457007
0
LWPOLYLINE
5
157
100
AcDbEntity
8
0
100
AcDbPolyline
90
8
70
1
43
0.0
10
139.598958748569
20
-345.03181186137442
10
159.5989571485691
20
-345.03181186137442
10
179.59895554856928
20
-325.03181346137433
10
179.59895554856928
20
-315.03181426137422
10
159.5989571485691
20
-295.03181586137407
10
139.598958748569
20
-295.03181586137407
10
119.5989603485688
20
-315.03181426137422
10
119.5989603485688
20
-325.03181346137433
0
LWPOLYLINE
5
158
100
AcDbEntity
8
0
100
AcDbPolyline
90
25
70
1
43
0.0
10
202.8365437427951
20
-425.81497986423176
10
203.2093359191075
20
-426.1010333620236
10
203.64346160319292
20
-426.28085410814629
10
204.10933584710756
20
-426.34218761591922
10
204.52860000982594
20
-426.28180536137501
10
204.57521009102209
20
-426.28085410814617
10
205.00933577510753
20
-426.1010333620236
10
205.38212795141993
20
-425.81497986423165
10
205.66818144921177
20
-425.44218768791927
10
205.84800219533463
20
-425.00806200383386
10
205.90933570310753
20
-424.54218775991927
10
205.84800219533446
20
-424.07631351600463
10
205.66818144921177
20
-423.64218783191922
10
205.38212795141985
20
-423.26939565560684
10
205.00933577510744
20
-422.98334215781495
10
204.57521009102203
20
-422.80352141169226
10
204.10933584710756
20
-422.74218790391927
10
203.6434616031928
20
-422.80352141169226
10
203.20933591910745
20
-422.98334215781495
10
202.83654374279504
20
-423.26939565560684
10
202.55049024500312
20
-423.64218783191922
10
202.37066949888037
20
-424.07631351600463
10
202.30933599110745
20
-424.54218775991927
10
202.37066949888037
20
-425.0080620038338
10
202.55049024500312
20
-425.44218768791927
0
LWPOLYLINE
5
159
100
AcDbEntity
8
0
100
AcDbPolyline
90
52
70
1
43
0.0
10
189.56473419680219
20
-343.51674410974385
10
189.46265806462932
20
-343.00357273926761
10
189.29447290297304
20
-342.50811522985401
10
189.06305640657894
20
-342.03884899685562
10
188.7723681758612
20
-341.60380331562436
10
188.42738196704144
20
-341.21042193838366
10
188.03400058980063
20
-340.86543572956379
10
187.59895490856931
20
-340.57474749884602
10
187.12968867557097
20
-340.34333100245192
10
186.63423116615729
20
-340.17514584079561
10
186.12105979568113
20
-340.07306970862271
10
185.59895506856932
20
-340.03884915685558
10
183.59895522856931
20
-340.03884915685558
10
183.0768505014575
20
-340.07306970862271
10
182.56367913098128
20
-340.17514584079561
10
182.0682216215676
20
-340.34333100245192
10
181.59895538856932
20
-340.57474749884602
10
181.16390970733815
20
-340.86543572956379
10
180.77052833009731
20
-341.21042193838366
10
180.4255421212774
20
-341.60380331562436
10
180.13485389055973
20
-342.03884899685562
10
179.90343739416548
20
-342.50811522985401
10
179.73525223250925
20
-343.00357273926761
10
179.63317610033641
20
-343.51674410974385
10
179.59895554856928
20
-344.03884883685566
10
179.59895554856928
20
-367.0388469968558
10
179.63317610033641
20
-367.56095172396761
10
179.73525223250925
20
-368.07412309444385
10
179.90343739416548
20
-368.56958060385745
10
180.13485389055973
20
-369.03884683685584
10
180.42554212127743
20
-369.4738925180871
10
180.77052833009733
20
-369.86727389532791
10
181.16390970733815
20
-370.21226010414762
10
181.59895538856932
20
-370.50294833486544
10
182.06822162156766
20
-370.7343648312596
10
182.56367913098128
20
-370.90254999291585
10
183.0768505014575
20
-371.00462612508869
10
183.59895522856931
20
-371.03884667685583
10
185.59895506856932
20
-371.03884667685583
10
186.12105979568111
20
-371.00462612508869
10
186.63423116615729
20
-370.90254999291585
10
187.12968867557097
20
-370.7343648312596
10
187.59895490856931
20
-370.50294833486544
10
188.03400058980063
20
-370.21226010414762
10
188.42738196704147
20
-369.86727389532791
10
188.7723681758612
20
-369.4738925180871
10
189.06305640657894
20
-369.03884683685584
10
189.29447290297304
20
-368.5695806038575
10
189.46265806462932
20
-368.07412309444379
10
189.56473419680219
20
-367.56095172396761
10
189.59895474856927
20
-367.0388469968558
10
189.59895474856927
20
-344.03884883685566
0
LWPOLYLINE
5
160
100
AcDbEntity
8
0
100
AcDbPolyline
90
24
70
1
43
0.0
10
-5.3772861938869143
20
-426.28085410814327
10
-4.9114119499722442
20
-426.34218761591598
10
-4.4455377060577073
20
-426.28085410814271
10
-4.0114120219724336
20
-426.10103336201973
10
-3.6386198456602159
20
-425.81497986422744
10
-3.3525663478685352
20
-425.44218768791495
10
-3.1727456017461808
20
-425.00806200382942
10
-3.1114120939735024
20
-424.54218775991473
10
-3.172745601746807
20
-424.07631351600014
10
-3.352566347869792
20
-423.6421878319149
10
-3.6386198456619656
20
-423.26939565560269
10
-4.0114120219745564
20
-422.98334215781097
10
-4.4455377060601009
20
-422.80352141168862
10
-4.9114119499747666
20
-422.74218790391592
10
-5.3772861938893035
20
-422.8035214116893
10
-5.8114118779745771
20
-422.98334215781216
10
-6.1842040542867949
20
-423.2693956556044
10
-6.4702575520784844
20
-423.642187831917
10
-6.6500782982008388
20
-424.07631351600259
10
-6.7114118059735084
20
-424.54218775991717
10
-6.6500782982002038
20
-425.0080620038317
10
-6.4702575520772232
20
-425.442187687917
10
-6.1842040542850452
20
-425.81497986422931
10
-5.8114118779724455
20
-426.10103336202093
0
LWPOLYLINE
5
161
100
AcDbEntity
8
0
100
AcDbPolyline
90
24
70
1
43
0.0
10
195.89799235032291
20
-354.28181112137446
10
195.65961443549642
20
-353.97115097444748
10
195.3489542885693
20
-353.73277305962085
10
194.98718288516477
20
-353.58292243785195
10
194.59895434856929
20
-353.53181118137445
10
194.21072581197393
20
-353.58292243785195
10
193.84895440856945
20
-353.73277305962085
10
193.53829426164228
20
-353.97115097444748
10
193.29991634681585
20
-354.28181112137446
10
193.15006572504683
20
-354.64358252477894
10
193.0989544685693
20
-355.03181106137447
10
193.15006572504683
20
-355.42003959797
10
193.29991634681579
20
-355.78181100137448
10
193.53829426164228
20
-356.09247114830146
10
193.84895440856945
20
-356.33084906312808
10
194.21072581197393
20
-356.48069968489699
10
194.59895434856929
20
-356.53181094137449
10
194.98718288516477
20
-356.48069968489699
10
195.3489542885693
20
-356.33084906312808
10
195.65961443549642
20
-356.09247114830146
10
195.89799235032297
20
-355.78181100137448
10
196.04784297209181
20
-355.42003959797
10
196.09895422856943
20
-355.03181106137447
10
196.04784297209181
20
-354.64358252477894
0
LWPOLYLINE
5
162
100
AcDbEntity
8
0
100
AcDbPolyline
90
52
70
1
43
0.0
10
16.121073395679993
20
-334.86046851349988
10
16.634244766156215
20
-334.75839238132698
10
17.129702275569862
20
-334.59020721967073
10
17.598968508568184
20
-334.35879072327657
10
18.034014189799414
20
-334.06810249255886
10
18.427395567040207
20
-333.72311628373899
10
18.77238177586004
20
-333.32973490649817
10
19.063070006577796
20
-332.89468922526692
10
19.294486502971946
20
-332.42542299226864
10
19.462671664628264
20
-331.92996548285498
10
19.564747796801136
20
-331.4167941123788
10
19.598968348568178
20
-330.89468938526693
10
19.598968348568189
20
-307.89469122526685
10
19.564747796801143
20
-307.37258649815499
10
19.462671664628274
20
-306.8594151276788
10
19.294486502971957
20
-306.36395761826515
10
19.063070006577803
20
-305.89469138526687
10
18.772381775860048
20
-305.45964570403561
10
18.427395567040215
20
-305.06626432679479
10
18.034014189799422
20
-304.72127811797492
10
17.598968508568191
20
-304.43058988725716
10
17.129702275569869
20
-304.19917339086311
10
16.634244766156225
20
-304.0309882292068
10
16.121073395680003
20
-303.92891209703396
10
15.598968668568176
20
-303.89469154526682
10
13.59896882856817
20
-303.89469154526682
10
13.076864101456334
20
-303.92891209703396
10
12.563692730980218
20
-304.0309882292068
10
12.068235221566557
20
-304.19917339086311
10
11.598968988568155
20
-304.43058988725716
10
11.163923307336914
20
-304.72127811797492
10
10.770541930096114
20
-305.06626432679479
10
10.425555721276298
20
-305.45964570403561
10
10.134867490558541
20
-305.89469138526687
10
9.9034509941644799
20
-306.36395761826515
10
9.7352658325081531
20
-306.8594151276788
10
9.6331897003352918
20
-307.37258649815499
10
9.5989691485681483
20
-307.89469122526685
10
9.5989691485681394
20
-330.89468938526693
10
9.6331897003352918
20
-331.4167941123788
10
9.7352658325081443
20
-331.92996548285493
10
9.9034509941644711
20
-332.42542299226864
10
10.134867490558532
20
-332.89468922526692
10
10.425555721276289
20
-333.32973490649817
10
10.770541930096105
20
-333.72311628373899
10
11.163923307336905
20
-334.06810249255886
10
11.598968988568146
20
-334.35879072327657
10
12.068235221566548
20
-334.59020721967073
10
12.563692730980209
20
-334.75839238132698
10
13.076864101456325
20
-334.86046851349988
10
13.598968828568161
20
-334.89468906526702
10
15.598968668568167
20
-334.89468906526696
0
LWPOLYLINE
5
163
100
AcDbEntity
8
0
100
AcDbPolyline
90
24
70
1
43
0.0
10
193.0989544685693
20
-285.03181666137402
10
193.15006572504683
20
-285.4200451979695
10
193.29991634681579
20
-285.78181660137403
10
193.53829426164225
20
-286.09247674830107
10
193.84895440856945
20
-286.33085466312764
10
194.21072581197393
20
-286.48070528489649
10
194.59895434856929
20
-286.53181654137404
10
194.98718288516477
20
-286.48070528489649
10
195.3489542885693
20
-286.33085466312764
10
195.65961443549642
20
-286.09247674830107
10
195.89799235032291
20
-285.78181660137403
10
196.04784297209181
20
-285.4200451979695
10
196.09895422856943
20
-285.03181666137402
10
196.04784297209181
20
-284.64358812477849
10
195.89799235032291
20
-284.28181672137396
10
195.65961443549639
20
-283.97115657444704
10
195.3489542885693
20
-283.73277865962041
10
194.98718288516477
20
-283.5829280378515
10
194.59895434856929
20
-283.531816781374
10
194.21072581197393
20
-283.5829280378515
10
193.84895440856945
20
-283.73277865962041
10
193.53829426164228
20
-283.97115657444704
10
193.29991634681579
20
-284.28181672137396
10
193.15006572504683
20
-284.64358812477849
0
LWPOLYLINE
5
164
100
AcDbEntity
8
0
100
AcDbPolyline
90
24
70
1
43
0.0
10
23.150079325045745
20
-320.42004239796972
10
23.299929946814622
20
-320.78181380137426
10
23.538307861641272
20
-321.09247394830118
10
23.848968008568221
20
-321.3308518631278
10
24.210739411972753
20
-321.48070248489671
10
24.598967948568262
20
-321.53181374137426
10
24.987196485163786
20
-321.48070248489671
10
25.348967888568296
20
-321.3308518631278
10
25.659628035495246
20
-321.09247394830118
10
25.898005950321902
20
-320.78181380137426
10
26.047856572090751
20
-320.42004239796972
10
26.098967828568298
20
-320.03181386137419
10
26.047856572090762
20
-319.64358532477866
10
25.898005950321902
20
-319.28181392137418
10
25.659628035495246
20
-318.9711537744472
10
25.348967888568296
20
-318.73277585962057
10
24.987196485163786
20
-318.58292523785167
10
24.598967948568262
20
-318.53181398137417
10
24.210739411972753
20
-318.58292523785167
10
23.848968008568228
20
-318.73277585962057
10
23.538307861641279
20
-318.9711537744472
10
23.299929946814622
20
-319.28181392137418
10
23.150079325045745
20
-319.64358532477866
10
23.09896806856824
20
-320.03181386137419
0
LWPOLYLINE
5
165
100
AcDbEntity
8
0
100
AcDbPolyline
90
24
70
1
43
0.0
10
-6.4702575520775163
20
-214.62144003483138
10
-6.6500782982007589
20
-215.0555657189166
10
-6.7114118059743033
20
-215.5214399628311
10
-6.6500782982018913
20
-215.98731420674574
10
-6.4702575520797723
20
-216.42143989083141
10
-6.1842040542883092
20
-216.79423206714418
10
-5.8114118779762158
20
-217.08028556493659
10
-5.3772861938910266
20
-217.26010631105979
10
-4.9114119499765074
20
-217.3214398188334
10
-4.4455377060618328
20
-217.26010631106092
10
-4.0114120219762084
20
-217.08028556493878
10
-3.6386198456634311
20
-216.79423206714733
10
-3.3525663478710577
20
-216.4214398908353
10
-3.1727456017478284
20
-215.98731420675009
10
-3.111412093974284
20
-215.52143996283553
10
-3.172745601746696
20
-215.05556571892089
10
-3.352566347868815
20
-214.62144003483525
10
-3.6386198456602736
20
-214.24864785852247
10
-4.011412021972367
20
-213.96259436073009
10
-4.4455377060575474
20
-213.7827736146069
10
-4.9114119499720843
20
-213.72144010683328
10
-5.3772861938867367
20
-213.78277361460573
10
-5.8114118779723745
20
-213.96259436072791
10
-6.1842040542851429
20
-214.24864785851935
0
LWPOLYLINE
5
166
100
AcDbEntity
8
0
100
AcDbPolyline
90
52
70
1
43
0.0
10
189.56473419680219
20
-273.50971281426212
10
189.46265806462932
20
-272.99654144378593
10
189.29447290297304
20
-272.50108393437228
10
189.06305640657894
20
-272.03181770137394
10
188.7723681758612
20
-271.59677202014268
10
188.42738196704144
20
-271.20339064290187
10
188.03400058980063
20
-270.85840443408205
10
187.59895490856931
20
-270.56771620336428
10
187.12968867557097
20
-270.33629970697018
10
186.63423116615729
20
-270.16811454531393
10
186.12105979568111
20
-270.06603841314103
10
185.59895506856932
20
-270.03181786137395
10
183.59895522856931
20
-270.03181786137395
10
183.0768505014575
20
-270.06603841314103
10
182.56367913098128
20
-270.16811454531393
10
182.0682216215676
20
-270.33629970697018
10
181.59895538856932
20
-270.56771620336428
10
181.16390970733815
20
-270.85840443408205
10
180.77052833009731
20
-271.20339064290187
10
180.42554212127743
20
-271.59677202014268
10
180.13485389055973
20
-272.03181770137394
10
179.90343739416548
20
-272.50108393437228
10
179.73525223250925
20
-272.99654144378593
10
179.63317610033641
20
-273.50971281426212
10
179.59895554856928
20
-274.03181754137393
10
179.59895554856928
20
-297.03181570137411
10
179.63317610033641
20
-297.55392042848592
10
179.73525223250925
20
-298.06709179896211
10
179.90343739416548
20
-298.56254930837576
10
180.13485389055973
20
-299.0318155413741
10
180.42554212127743
20
-299.46686122260536
10
180.77052833009731
20
-299.86024259984612
10
181.16390970733815
20
-300.20522880866599
10
181.59895538856932
20
-300.49591703938376
10
182.06822162156766
20
-300.7273335357778
10
182.56367913098128
20
-300.89551869743411
10
183.0768505014575
20
-300.99759482960701
10
183.59895522856928
20
-301.03181538137414
10
185.59895506856932
20
-301.03181538137414
10
186.12105979568111
20
-300.99759482960701
10
186.63423116615729
20
-300.89551869743411
10
187.129688675571
20
-300.7273335357778
10
187.59895490856931
20
-300.49591703938376
10
188.03400058980063
20
-300.20522880866599
10
188.42738196704144
20
-299.86024259984612
10
188.7723681758612
20
-299.46686122260536
10
189.06305640657894
20
-299.0318155413741
10
189.29447290297304
20
-298.56254930837576
10
189.46265806462932
20
-298.06709179896211
10
189.56473419680219
20
-297.55392042848592
10
189.59895474856927
20
-297.03181570137411
10
189.59895474856927
20
-274.03181754137393
0
LWPOLYLINE
5
167
100
AcDbEntity
8
0
100
AcDbPolyline
90
24
70
1
43
0.0
10
174.9871844851647
20
-283.5829280378515
10
174.5989559485692
20
-283.531816781374
10
174.21072741197372
20
-283.5829280378515
10
173.84895600856925
20
-283.73277865962041
10
173.53829586164221
20
-283.97115657444704
10
173.29991794681561
20
-284.28181672137396
10
173.15006732504671
20
-284.64358812477849
10
173.09895606856924
20
-285.03181666137402
10
173.15006732504671
20
-285.4200451979695
10
173.29991794681561
20
-285.78181660137403
10
173.53829586164221
20
-286.09247674830101
10
173.84895600856925
20
-286.33085466312758
10
174.21072741197375
20
-286.48070528489649
10
174.5989559485692
20
-286.53181654137404
10
174.9871844851647
20
-286.48070528489649
10
175.34895588856924
20
-286.33085466312764
10
175.65961603549621
20
-286.09247674830101
10
175.89799395032293
20
-285.78181660137403
10
176.04784457209172
20
-285.4200451979695
10
176.09895582856922
20
-285.03181666137402
10
176.04784457209175
20
-284.64358812477849
10
175.89799395032293
20
-284.28181672137396
10
175.65961603549621
20
-283.97115657444704
10
175.34895588856924
20
-283.73277865962041
0
LWPOLYLINE
5
168
100
AcDbEntity
8
0
100
AcDbPolyline
90
4
70
1
43
0.0
10
71.528610649825097
20
-285.03181666137402
10
127.59895970856891
20
-285.03181666134572
10
167.59895650856907
20
-245.03181986137375
10
31.5286138498249
20
-245.03181986144244
0
LWPOLYLINE
5
169
100
AcDbEntity
8
0
100
AcDbPolyline
90
24
70
1
43
0.0
10
99.561688343231026
20
-297.23822067368803
10
99.095822882217021
20
-297.299620857344
10
98.661722938750529
20
-297.47950373424209
10
98.288971706594708
20
-297.76561058359215
10
98.00297156622031
20
-298.13844369642493
10
97.823212954556524
20
-298.5725951122368
10
97.761946123922797
20
-299.0384781295092
10
97.823346307578717
20
-299.50434359052315
10
98.003229184476837
20
-299.93844353398964
10
98.289336033827027
20
-300.31119476614555
10
98.662169146659693
20
-300.5971949065198
10
99.096320562471632
20
-300.77695351818369
10
99.562203579744022
20
-300.8382203488174
10
100.02806904075803
20
-300.77682016516138
10
100.46216898422443
20
-300.59693728826335
10
100.8349202163803
20
-300.31083043891323
10
101.12092035675462
20
-299.93799732608045
10
101.30067896841851
20
-299.50384591026858
10
101.36194579905219
20
-299.03796289299623
10
101.30054561539622
20
-298.57209743198223
10
101.12066273849813
20
-298.13799748851574
10
100.83455588914802
20
-297.76524625635989
10
100.46172277631518
20
-297.47924611598557
10
100.02757136050342
20
-297.29948750432169
0
LWPOLYLINE
5
170
100
AcDbEntity
8
0
100
AcDbPolyline
90
4
70
1
43
0.0
10
127.59895970856891
20
-355.03181106137447
10
71.598964188568615
20
-355.03181106137447
10
31.598967388568191
20
-395.03180786137455
10
167.59895650856907
20
-395.03180786137472
0
LWPOLYLINE
5
171
100
AcDbEntity
8
0
100
AcDbPolyline
90
24
70
1
43
0.0
10
100.8349202163803
20
-341.29062344264514
10
101.12092035675462
20
-340.91779032981231
10
101.30067896841851
20
-340.48363891400044
10
101.36194579905219
20
-340.01775589672803
10
101.3005456153962
20
-339.55189043571409
10
101.12066273849811
20
-339.11779049224765
10
100.83455588914802
20
-338.74503926009169
10
100.46172277631518
20
-338.45903911971737
10
100.02757136050343
20
-338.27928050805349
10
99.561688343231026
20
-338.21801367741983
10
99.095822882217021
20
-338.2794138610758
10
98.661722938750529
20
-338.45929673797394
10
98.288971706594708
20
-338.74540358732395
10
98.00297156622031
20
-339.11823670015679
10
97.823212954556524
20
-339.55238811596865
10
97.761946123922797
20
-340.01827113324111
10
97.823346307578717
20
-340.48413659425501
10
98.003229184476837
20
-340.91823653772155
10
98.289336033827027
20
-341.2909877698774
10
98.662169146659693
20
-341.57698791025166
10
99.096320562471632
20
-341.7567465219156
10
99.562203579744022
20
-341.81801335254926
10
100.02806904075797
20
-341.75661316889284
10
100.46216898422443
20
-341.57673029199515
0
LWPOLYLINE
5
172
100
AcDbEntity
8
0
100
AcDbPolyline
90
8
70
1
43
0.0
10
29.598967548568318
20
-315.03181426137417
10
29.598967548568318
20
-325.03181346137421
10
49.598965948568406
20
-345.03181186137442
10
59.598965148568524
20
-345.03181186137442
10
79.598963548568648
20
-325.03181346137421
10
79.598963548568634
20
-315.03181426137422
10
59.598965148568524
20
-295.03181586137407
10
49.59896594856842
20
-295.03181586137407
0
LWPOLYLINE
5
173
100
AcDbEntity
8
0
100
AcDbPolyline
90
24
70
1
43
0.0
10
3.1500809250456552
20
-320.42004239796972
10
3.2999315468145669
20
-320.78181380137426
10
3.5383094616411803
20
-321.09247394830118
10
3.8489696085681491
20
-321.3308518631278
10
4.2107410119726563
20
-321.48070248489671
10
4.5989695485681636
20
-321.53181374137426
10
4.9871980851636888
20
-321.48070248489671
10
5.3489694885681871
20
-321.3308518631278
10
5.6596296354951559
20
-321.09247394830118
10
5.8980075503218021
20
-320.78181380137426
10
6.047858172090681
20
-320.42004239796972
10
6.0989694285682106
20
-320.03181386137419
10
6.047858172090681
20
-319.64358532477866
10
5.8980075503217932
20
-319.28181392137418
10
5.6596296354951559
20
-318.9711537744472
10
5.3489694885681871
20
-318.73277585962057
10
4.9871980851636888
20
-318.58292523785167
10
4.5989695485681636
20
-318.53181398137417
10
4.2107410119726474
20
-318.58292523785167
10
3.848969608568158
20
-318.73277585962057
10
3.5383094616411803
20
-318.9711537744472
10
3.299931546814534
20
-319.28181392137418
10
3.1500809250456219
20
-319.64358532477866
10
3.0989696685681434
20
-320.03181386137419
0
LWPOLYLINE
5
174
100
AcDbEntity
8
0
100
AcDbPolyline
90
36
70
1
43
0.0
10
177.59895570856929
20
-405.03180706137482
10
202.59895370856941
20
-430.03180506137494
10
206.59895338856944
20
-430.03180506137494
10
209.59895314856948
20
-427.03180530137502
10
209.59895314856942
20
-423.03180562137482
10
189.59895474856927
20
-403.03180722137478
10
189.59895474856927
20
-383.03180882137468
10
199.59895394856946
20
-373.03180962137458
10
199.59895394856946
20
-335.03181266137432
10
189.59895474856927
20
-325.03181346137433
10
189.59895474856927
20
-315.03181426137422
10
199.59895394856946
20
-305.03181506137418
10
199.59895394856946
20
-267.03181810137391
10
189.59895474856927
20
-257.03181890137381
10
189.59895474856927
20
-237.03182050137372
10
209.59895314856942
20
-217.03182210137356
10
209.59895314856942
20
-213.03182242137353
10
206.59895338856944
20
-210.03182266137355
10
202.59895370856941
20
-210.03182266137355
10
177.59895570856929
20
-235.0318206613737
10
21.598968188568193
20
-235.03182066137367
10
-3.4010298114319459
20
-210.0318226613735
10
-7.4010294914319585
20
-210.0318226613735
10
-10.401029251431932
20
-213.0318224213735
10
-10.401029251431932
20
-217.03182210137356
10
29.598967548568318
20
-257.03181890137381
10
29.598967548568318
20
-277.03181730137396
10
-0.40103005143188319
20
-307.03181490137416
10
-0.40103005143189208
20
-333.03181282137427
10
29.598967548568311
20
-363.03181042137453
10
29.598967548568311
20
-383.03180882137463
10
-10.401029251431959
20
-423.03180562137482
10
-10.401029251431959
20
-427.03180530137496
10
-7.4010294914319852
20
-430.03180506137494
10
-3.4010298114319726
20
-430.03180506137494
10
21.598968188568186
20
-405.03180706137482
0
ARC
5
175
100
AcDbEntity
8
0
100
AcDbCircle
10
-123.71137087497601
20
-143.35601092505601
30
0
40
4.2737132660058617
100
AcDbArc
50
21.199899888141847
51
51.517873205073464
0
ARC
5
176
100
AcDbEntity
8
0
100
AcDbCircle
10
-125.07919382036499
20
-459.45344595532953
30
0
40
5.9297549870193302
100
AcDbArc
50
25.49549617871293
51
47.222276914517167
0
ARC
5
177
100
AcDbEntity
8
0
100
AcDbCircle
10
-125.51242156167625
20
-298.42416695645517
30
0
40
6.4588679001006231
100
AcDbArc
50
313.67715795781311
51
333.60506894891631
0
ARC
5
178
100
AcDbEntity
8
0
100
AcDbCircle
10
-124.36478970184791
20
-144.18404649148954
30
0
40
5.06130816057241
100
AcDbArc
50
310.88471611951746
51
336.39751078720013
0
ARC
5
179
100
AcDbEntity
8
0
100
AcDbCircle
10
-125.1818549128248
20
-458.67306175645462
30
0
40
6.0549968761751156
100
AcDbArc
50
313.00506793814435
51
334.27715896855557
0
ARC
5
180
100
AcDbEntity
8
0
100
AcDbCircle
10
-123.73374494569178
20
-298.45743893967057
30
0
40
4.3005355216078556
100
AcDbArc
50
21.296693360535627
51
51.421079732708115
0
ARC
5
181
100
AcDbEntity
8
0
100
AcDbCircle
10
-123.82688284912405
20
-139.51053798860082
30
0
40
3.0000000000017115
100
AcDbArc
50
167.47119229064043
51
180
0
ARC
5
182
100
AcDbEntity
8
0
100
AcDbCircle
10
-124.82688284912561
20
-144.0105379886007
30
0
40
5.5
100
AcDbArc
50
249.47307655837122
51
313.34176308418182
0
ARC
5
183
100
AcDbEntity
8
0
100
AcDbCircle
10
-123.82688284912696
20
-148.5105379886009
30
0
40
2.9999999999984972
100
AcDbArc
50
180
51
192.52880770922704
0
ARC
5
184
100
AcDbEntity
8
0
100
AcDbCircle
10
-124.82688284912561
20
-144.0105379886007
30
0
40
5.4999999999998952
100
AcDbArc
50
46.658236915804359
51
110.52692344164062
0
LINE
5
185
100
AcDbEntity
8
0
100
AcDbLine
10
-126.8268831691247
20
-139.51053798860013
30
0
11
-126.82688316912538
21
-141.81053816460087
31
0
0
LWPOLYLINE
5
186
100
AcDbEntity
8
0
100
AcDbPolyline
90
26
70
1
43
0.0
10
-127.66378174233711
20
-470.09548150411939
10
-135.6597508195583
20
-470.09548150411888
10
-136.69502691714689
20
-470.2317781880592
10
-137.65975065955931
20
-470.63137984611001
10
-138.4881777180307
20
-471.26705428564713
10
-139.1238521575676
20
-472.09548134411989
10
-139.52345381561889
20
-473.06020508653114
10
-139.6597504995587
20
-474.09548118411914
10
-139.52345381561889
20
-475.13075728170816
10
-139.12385215756791
20
-476.09548102411912
10
-138.48817771802919
20
-476.92390808259125
10
-137.6597506595582
20
-477.55958252212895
10
-136.69502691714601
20
-477.95918418017942
10
-135.72661176871213
20
-478.09548086411957
10
-127.66378174233819
20
-478.09548086411928
10
-126.62850564474905
20
-477.9591841801797
10
-125.66378190233561
20
-477.55958252212969
10
-124.83535484386601
20
-476.92390808259154
10
-124.19968040432715
20
-476.09548102411958
10
-123.80007874627758
20
-475.13075728170742
10
-123.66378206233678
20
-474.09548118411954
10
-123.80007874627742
20
-473.06020508653114
10
-124.19968040432842
20
-472.09548134411961
10
-124.83535484386601
20
-471.267054285646
10
-125.6637819023374
20
-470.63137984610898
10
-126.62850564474962
20
-470.23177818805959
0
LINE
5
187
100
AcDbEntity
8
0
100
AcDbLine
10
-126.82688316912538
20
-141.81053816460087
30
0
11
-128.82688284912535
21
-141.81053816460076
31
0
0
LINE
5
188
100
AcDbEntity
8
0
100
AcDbLine
10
-128.82688284912535
20
-141.81053816460076
30
0
11
-128.82688284912592
21
-146.21053781260088
31
0
0
LINE
5
189
100
AcDbEntity
8
0
100
AcDbLine
10
-128.82688284912592
20
-146.21053781260088
30
0
11
-126.8268831691263
21
-146.21053781260093
31
0
0
LINE
5
190
100
AcDbEntity
8
0
100
AcDbLine
10
-126.8268831691263
20
-146.21053781260093
30
0
11
-126.82688316912513
21
-148.51053798860175
31
0
0
LINE
5
191
100
AcDbEntity
8
0
100
AcDbLine
10
-119.72688357712582
20
-146.2105378126015
30
0
11
-107.72688453712587
21
-146.2105378126011
31
0
0
LINE
5
192
100
AcDbEntity
8
0
100
AcDbLine
10
-107.72688453712587
20
-146.2105378126011
30
0
11
-107.72688453712516
21
-155.75273531462253
31
0
0
LINE
5
193
100
AcDbEntity
8
0
100
AcDbLine
10
-101.62688502512616
20
-155.7527353146223
30
0
11
-107.72688453712516
21
-155.75273531462253
31
0
0
LINE
5
194
100
AcDbEntity
8
0
100
AcDbLine
10
-101.62688502512577
20
-164.55273461062268
30
0
11
-101.62688502512616
21
-155.7527353146223
31
0
0
LINE
5
195
100
AcDbEntity
8
0
100
AcDbLine
10
-107.72688453712624
20
-164.55273461062248
30
0
11
-101.62688502512577
21
-164.55273461062268
31
0
0
LINE
5
196
100
AcDbEntity
8
0
100
AcDbLine
10
-107.72688453712625
20
-278.54549682811808
30
0
11
-107.72688453712624
21
-164.55273461062248
31
0
0
LINE
5
197
100
AcDbEntity
8
0
100
AcDbLine
10
-101.62688502512616
20
-278.54549682811842
30
0
11
-107.72688453712625
21
-278.54549682811808
31
0
0
LINE
5
198
100
AcDbEntity
8
0
100
AcDbLine
10
-101.62688502512688
20
-287.34549612411729
30
0
11
-101.62688502512616
21
-278.54549682811842
31
0
0
LINE
5
199
100
AcDbEntity
8
0
100
AcDbLine
10
-107.72688453712661
20
-287.34549612411814
30
0
11
-101.62688502512688
21
-287.34549612411729
31
0
0
LINE
5
200
100
AcDbEntity
8
0
100
AcDbLine
10
-107.72688453712661
20
-287.34549612411814
30
0
11
-107.72688453712661
21
-296.89549536011793
31
0
0
LINE
5
201
100
AcDbEntity
8
0
100
AcDbLine
10
-107.72688453712661
20
-296.89549536011793
30
0
11
-119.72688357712616
21
-296.89549536011737
31
0
0
ARC
5
202
100
AcDbEntity
8
0
100
AcDbCircle
10
-124.82688284912525
20
-299.09549518411825
30
0
40
5.4999999999999289
100
AcDbArc
50
46.658236915807393
51
110.52692344163225
0
ARC
5
203
100
AcDbEntity
8
0
100
AcDbCircle
10
-123.82688284912705
20
-294.59549518411796
30
0
40
2.99999999999255
100
AcDbArc
50
167.47119229077614
51
180
0
LINE
5
204
100
AcDbEntity
8
0
100
AcDbLine
10
-126.82688316912646
20
-294.59549518411865
30
0
11
-126.82688316912595
21
-296.89549536011833
31
0
0
LINE
5
205
100
AcDbEntity
8
0
100
AcDbLine
10
-126.82688316912595
20
-296.89549536011833
30
0
11
-128.82688284912538
21
-296.89549536011839
31
0
0
LINE
5
206
100
AcDbEntity
8
0
100
AcDbLine
10
-128.82688284912538
20
-296.89549536011839
30
0
11
-128.82688284912521
21
-301.29549500811828
31
0
0
LINE
5
207
100
AcDbEntity
8
0
100
AcDbLine
10
-128.82688284912521
20
-301.29549500811828
30
0
11
-126.8268831691245
21
-301.29549500811834
31
0
0
LINE
5
208
100
AcDbEntity
8
0
100
AcDbLine
10
-126.8268831691245
20
-301.29549500811834
30
0
11
-126.82688316912562
21
-303.59549518411723
31
0
0
ARC
5
209
100
AcDbEntity
8
0
100
AcDbCircle
10
-123.82688284912582
20
-303.59549518411831
30
0
40
2.9999999999992788
100
AcDbArc
50
180
51
192.52880770936764
0
ARC
5
210
100
AcDbEntity
8
0
100
AcDbCircle
10
-124.82688284912525
20
-299.09549518411825
30
0
40
5.5000000000093827
100
AcDbArc
50
249.47307655836275
51
313.34176308418336
0
LINE
5
211
100
AcDbEntity
8
0
100
AcDbLine
10
-119.72688357712528
20
-301.29549500811839
30
0
11
-107.72688453712696
21
-301.29549500811737
31
0
0
LINE
5
212
100
AcDbEntity
8
0
100
AcDbLine
10
-107.72688453712696
20
-301.29549500811737
30
0
11
-107.72688453712516
21
-310.84549424411847
31
0
0
LINE
5
213
100
AcDbEntity
8
0
100
AcDbLine
10
-101.62688502512469
20
-310.84549424411864
30
0
11
-107.72688453712516
21
-310.84549424411847
31
0
0
LINE
5
214
100
AcDbEntity
8
0
100
AcDbLine
10
-101.62688502512435
20
-319.64549354011967
30
0
11
-101.62688502512469
21
-310.84549424411864
31
0
0
LINE
5
215
100
AcDbEntity
8
0
100
AcDbLine
10
-107.72688453712553
20
-319.64549354011928
30
0
11
-101.62688502512435
21
-319.64549354011967
31
0
0
LINE
5
216
100
AcDbEntity
8
0
100
AcDbLine
10
-107.7268845371259
20
-438.54554176341827
30
0
11
-107.72688453712553
21
-319.64549354011928
31
0
0
LINE
5
217
100
AcDbEntity
8
0
100
AcDbLine
10
-101.62688502512509
20
-438.54554176341873
30
0
11
-107.7268845371259
21
-438.54554176341827
31
0
0
LINE
5
218
100
AcDbEntity
8
0
100
AcDbLine
10
-101.62688502512545
20
-447.34554105941953
30
0
11
-101.62688502512509
21
-438.54554176341873
31
0
0
LINE
5
219
100
AcDbEntity
8
0
100
AcDbLine
10
-107.7268845371259
20
-447.34554105941868
30
0
11
-101.62688502512545
21
-447.34554105941953
31
0
0
LINE
5
220
100
AcDbEntity
8
0
100
AcDbLine
10
-107.72688453712448
20
-456.90104135060773
30
0
11
-107.7268845371259
21
-447.34554105941868
31
0
0
LINE
5
221
100
AcDbEntity
8
0
100
AcDbLine
10
-107.72688453712448
20
-456.90104135060773
30
0
11
-119.72688357712639
21
-456.90104135060801
31
0
0
ARC
5
222
100
AcDbEntity
8
0
100
AcDbCircle
10
-124.82688284912585
20
-459.10104117460799
30
0
40
5.4999999999999432
100
AcDbArc
50
46.658236915802988
51
110.52692344163252
0
ARC
5
223
100
AcDbEntity
8
0
100
AcDbCircle
10
-123.82688284912871
20
-454.60104117460764
30
0
40
2.999999999991521
100
AcDbArc
50
167.47119229077288
51
180
0
LINE
5
224
100
AcDbEntity
8
0
100
AcDbLine
10
-126.82688316912675
20
-454.60104117460895
30
0
11
-126.82688316912561
21
-456.90104135060812
31
0
0
LINE
5
225
100
AcDbEntity
8
0
100
AcDbLine
10
-126.82688316912561
20
-456.90104135060812
30
0
11
-128.82688284912595
21
-456.90104135060835
31
0
0
LINE
5
226
100
AcDbEntity
8
0
100
AcDbLine
10
-128.82688284912595
20
-456.90104135060835
30
0
11
-128.82688284912575
21
-461.30104099860779
31
0
0
LINE
5
227
100
AcDbEntity
8
0
100
AcDbLine
10
-128.82688284912575
20
-461.30104099860779
30
0
11
-126.82688316912595
21
-461.30104099860841
31
0
0
LINE
5
228
100
AcDbEntity
8
0
100
AcDbLine
10
-126.82688316912595
20
-461.30104099860841
30
0
11
-126.82688316912549
21
-463.60104117460844
31
0
0
ARC
5
229
100
AcDbEntity
8
0
100
AcDbCircle
10
-123.82688284912822
20
-463.60104117460821
30
0
40
2.9999999999974847
100
AcDbArc
50
180
51
192.52880770937307
0
ARC
5
230
100
AcDbEntity
8
0
100
AcDbCircle
10
-124.82688284912585
20
-459.10104117460799
30
0
40
5.5000000000093774
100
AcDbArc
50
249.47307655836312
51
313.34176308417523
0
LINE
5
231
100
AcDbEntity
8
0
100
AcDbLine
10
-119.72688357712602
20
-461.30104099860915
30
0
11
-107.72688453712625
21
-461.3010409986083
31
0
0
LINE
5
232
100
AcDbEntity
8
0
100
AcDbLine
10
-107.72688453712519
20
-482.09548054411954
30
0
11
-107.72688453712625
21
-461.3010409986083
31
0
0
LINE
5
233
100
AcDbEntity
8
0
100
AcDbLine
10
-107.72688453712519
20
-482.09548054411954
30
0
11
-258.52687247312554
21
-482.0954805441196
31
0
0
LINE
5
234
100
AcDbEntity
8
0
100
AcDbLine
10
-258.52687247312554
20
-482.0954805441196
30
0
11
-260.5268723131253
21
-484.09548038411936
31
0
0
LINE
5
235
100
AcDbEntity
8
0
100
AcDbLine
10
-260.5268723131253
20
-484.09548038411936
30
0
11
-280.52687071312641
21
-484.09548038411947
31
0
0
LINE
5
236
100
AcDbEntity
8
0
100
AcDbLine
10
-280.52687071312641
20
-484.09548038411947
30
0
11
-285.52687031312621
21
-479.09548078412053
31
0
0
LINE
5
237
100
AcDbEntity
8
0
100
AcDbLine
10
-285.52687031312621
20
-479.09548078412053
30
0
11
-285.52687031312655
21
-463.49548203211873
31
0
0
LINE
5
238
100
AcDbEntity
8
0
100
AcDbLine
10
-280.5268707131263
20
-458.49548243211876
30
0
11
-285.52687031312655
21
-463.49548203211873
31
0
0
LINE
5
239
100
AcDbEntity
8
0
100
AcDbLine
10
-280.5268707131263
20
-458.49548243211876
30
0
11
-210.52687631312651
21
-458.49548243211927
31
0
0
LINE
5
240
100
AcDbEntity
8
0
100
AcDbLine
10
-209.38807260577954
20
-458.34555607978473
30
0
11
-210.52687631312651
21
-458.49548243211927
31
0
0
LINE
5
241
100
AcDbEntity
8
0
100
AcDbLine
10
-208.3268764891254
20
-457.90599425593109
30
0
11
-209.38807260577954
21
-458.34555607978473
31
0
0
LINE
5
242
100
AcDbEntity
8
0
100
AcDbLine
10
-207.41560672480654
20
-457.20675237243847
30
0
11
-208.3268764891254
21
-457.90599425593109
31
0
0
LINE
5
243
100
AcDbEntity
8
0
100
AcDbLine
10
-206.71636484131483
20
-456.29548260811936
30
0
11
-207.41560672480654
21
-457.20675237243847
31
0
0
LINE
5
244
100
AcDbEntity
8
0
100
AcDbLine
10
-206.27680301746022
20
-455.23428649146513
30
0
11
-206.71636484131483
21
-456.29548260811936
31
0
0
LINE
5
245
100
AcDbEntity
8
0
100
AcDbLine
10
-206.12687666512574
20
-454.09548278411995
30
0
11
-206.27680301746022
21
-455.23428649146513
31
0
0
LINE
5
246
100
AcDbEntity
8
0
100
AcDbLine
10
-206.27680301746
20
-452.95667907677137
30
0
11
-206.12687666512574
21
-454.09548278411995
31
0
0
LINE
5
247
100
AcDbEntity
8
0
100
AcDbLine
10
-206.716364841315
20
-451.89548296012003
30
0
11
-206.27680301746
21
-452.95667907677137
31
0
0
LINE
5
248
100
AcDbEntity
8
0
100
AcDbLine
10
-207.41560672480654
20
-450.98421319579921
30
0
11
-206.716364841315
21
-451.89548296012003
31
0
0
LINE
5
249
100
AcDbEntity
8
0
100
AcDbLine
10
-208.32687648912611
20
-450.28497131230887
30
0
11
-207.41560672480654
21
-450.98421319579921
31
0
0
LINE
5
250
100
AcDbEntity
8
0
100
AcDbLine
10
-209.38807260577971
20
-449.84540948845302
30
0
11
-208.32687648912611
21
-450.28497131230887
31
0
0
LINE
5
251
100
AcDbEntity
8
0
100
AcDbLine
10
-210.52687631312529
20
-449.69548313611949
30
0
11
-209.38807260577971
21
-449.84540948845302
31
0
0
LINE
5
252
100
AcDbEntity
8
0
100
AcDbLine
10
-280.52687071312613
20
-449.69548313611966
30
0
11
-210.52687631312529
21
-449.69548313611949
31
0
0
LINE
5
253
100
AcDbEntity
8
0
100
AcDbLine
10
-280.52687071312613
20
-449.69548313611966
30
0
11
-285.52687031312593
21
-444.69548353611901
31
0
0
LINE
5
254
100
AcDbEntity
8
0
100
AcDbLine
10
-285.52687031312593
20
-444.69548353611901
30
0
11
-285.52687031312678
21
-437.0954841441195
31
0
0
LINE
5
255
100
AcDbEntity
8
0
100
AcDbLine
10
-285.52687031312678
20
-437.0954841441195
30
0
11
-133.12688250512559
21
-114.09550998411738
31
0
0
LINE
5
256
100
AcDbEntity
8
0
100
AcDbLine
10
-107.72688453712658
20
-114.09550998411729
30
0
11
-133.12688250512559
21
-114.09550998411738
31
0
0
LINE
5
257
100
AcDbEntity
8
0
100
AcDbLine
10
-107.72688453712516
20
-123.45273789862259
30
0
11
-107.72688453712658
21
-114.09550998411729
31
0
0
LINE
5
258
100
AcDbEntity
8
0
100
AcDbLine
10
-101.62688502512616
20
-123.45273789862179
30
0
11
-107.72688453712516
21
-123.45273789862259
31
0
0
LINE
5
259
100
AcDbEntity
8
0
100
AcDbLine
10
-101.62688502512577
20
-132.25273719462251
30
0
11
-101.62688502512616
21
-123.45273789862179
31
0
0
LINE
5
260
100
AcDbEntity
8
0
100
AcDbLine
10
-107.72688453712624
20
-132.252737194622
30
0
11
-101.62688502512577
21
-132.25273719462251
31
0
0
LINE
5
261
100
AcDbEntity
8
0
100
AcDbLine
10
-107.72688453712624
20
-141.81053816460098
30
0
11
-107.72688453712624
21
-132.252737194622
31
0
0
LINE
5
262
100
AcDbEntity
8
0
100
AcDbLine
10
-107.72688453712624
20
-141.81053816460098
30
0
11
-119.72688357712615
21
-141.81053816460127
31
0
0
ARC
5
263
100
AcDbEntity
8
0
100
AcDbCircle
10
-307.7081437943699
20
-428.81552778878785
30
0
40
3.2333996703152073
100
AcDbArc
50
123.42068588082576
51
163.8615410259076
0
ARC
5
264
100
AcDbEntity
8
0
100
AcDbCircle
10
-305.26704003685654
20
-115.52205916553936
30
0
40
6.1674483973664032
100
AcDbArc
50
133.20119177374613
51
154.08103513299508
0
ARC
5
265
100
AcDbEntity
8
0
100
AcDbCircle
10
-306.31494249436207
20
-274.75618487995877
30
0
40
4.8934476690657096
100
AcDbArc
50
130.43935912383992
51
156.84286778290127
0
ARC
5
266
100
AcDbEntity
8
0
100
AcDbCircle
10
-306.79239223120828
20
-430.74388259768421
30
0
40
4.3183692847127517
100
AcDbArc
50
201.36036053676196
51
231.35741255642552
0
ARC
5
267
100
AcDbEntity
8
0
100
AcDbCircle
10
-304.52702606664377
20
-113.98571523210605
30
0
40
7.0731039148382413
100
AcDbArc
50
207.26790679801957
51
225.44986629516472
0
ARC
5
268
100
AcDbEntity
8
0
100
AcDbCircle
10
-304.95351193761991
20
-274.30522159741088
30
0
40
6.5507046646987988
100
AcDbArc
50
206.53601449880955
51
226.18175859437559
0
ARC
5
269
100
AcDbEntity
8
0
100
AcDbCircle
10
-306.71412494652481
20
-119.52627027088559
30
0
40
2.9999999999972027
100
AcDbArc
50
-12.528807709356949
51
0
0
ARC
5
270
100
AcDbEntity
8
0
100
AcDbCircle
10
-305.71412494652861
20
-115.02627027088501
30
0
40
5.500000000000008
100
AcDbArc
50
69.473076558382189
51
133.34176308417779
0
ARC
5
271
100
AcDbEntity
8
0
100
AcDbCircle
10
-306.71412494653032
20
-110.52627027088535
30
0
40
3.0000000000007176
100
AcDbArc
50
0
51
12.528807709235679
0
ARC
5
272
100
AcDbEntity
8
0
100
AcDbCircle
10
-305.71412494652861
20
-115.02627027088501
30
0
40
5.5000000000000888
100
AcDbArc
50
226.6582369157972
51
290.52692344165212
0
LINE
5
273
100
AcDbEntity
8
0
100
AcDbLine
10
-303.71412462652813
20
-119.52627027088499
30
0
11
-303.71412462652813
21
-117.22627009488417
31
0
0
LWPOLYLINE
5
274
100
AcDbEntity
8
0
100
AcDbPolyline
90
24
70
1
43
0.0
10
-278.00961382393217
20
-152.46242560453879
10
-278.44371376739866
20
-152.2825427276407
10
-278.90957922841272
20
-152.22114254398468
10
-279.37546224568496
20
-152.28240937461837
10
-279.80961366149677
20
-152.46216798628217
10
-280.18244677432961
20
-152.74816812665659
10
-280.46855362367972
20
-153.12091935881239
10
-280.64843650057782
20
-153.55501930227888
10
-280.70983668423389
20
-154.02088476329288
10
-280.64856985359972
20
-154.4867677805652
10
-280.46881124193618
20
-154.9209191963771
10
-280.18281110156192
20
-155.29375230920991
10
-279.81005986940607
20
-155.57985915855997
10
-279.37595992593964
20
-155.75974203545812
10
-278.91009446492541
20
-155.82114221911405
10
-278.44421144765323
20
-155.7598753884804
10
-278.01006003184142
20
-155.58011677681648
10
-277.63722691900864
20
-155.2941166364422
10
-277.35112006965841
20
-154.92136540428623
10
-277.17123719276043
20
-154.48726546081988
10
-277.10983700910447
20
-154.02139999980591
10
-277.17110383973824
20
-153.55551698253348
10
-277.35086245140201
20
-153.12136556672161
10
-277.63686259177626
20
-152.74853245388891
0
LWPOLYLINE
5
275
100
AcDbEntity
8
0
100
AcDbPolyline
90
27
70
1
43
0.0
10
-279.21904218194851
20
-242.35569179466663
10
-279.28030901258228
20
-241.88980877739422
10
-279.46006762424616
20
-241.45565736158235
10
-279.74606776462048
20
-241.08282424874955
10
-279.96804881459218
20
-240.93844677663822
10
-280.11881899677627
20
-240.79671739939948
10
-280.55291894024276
20
-240.61683452250156
10
-281.01878440125688
20
-240.5554343388454
10
-281.48466741852923
20
-240.61670116947906
10
-281.91881883434098
20
-240.79645978114297
10
-282.29165194717376
20
-241.08245992151726
10
-282.57775879652388
20
-241.45521115367316
10
-282.75764167342197
20
-241.88931109713963
10
-282.81904185707788
20
-242.35517655815357
10
-282.75777502644428
20
-242.82105957542598
10
-282.57801641478045
20
-243.25521099123785
10
-282.29201627440608
20
-243.62804410407063
10
-282.14124609222188
20
-243.76977348130936
10
-282.06761348493183
20
-243.80028545310802
10
-281.91926504225017
20
-243.91415095342069
10
-281.48516509878368
20
-244.09403383031884
10
-281.01929963776973
20
-244.15543401397483
10
-280.55341662049739
20
-244.09416718334111
10
-280.11926520468558
20
-243.91440857167726
10
-279.74643209185291
20
-243.62840843130289
10
-279.46032524250268
20
-243.25565719914707
10
-279.2804423656047
20
-242.82155725568057
0
LWPOLYLINE
5
276
100
AcDbEntity
8
0
100
AcDbPolyline
90
24
70
1
43
0.0
10
-233.30499929310429
20
-248.41171677882113
10
-233.24359910944827
20
-247.94585131780718
10
-233.30486594008198
20
-247.47996830053478
10
-233.48462455174581
20
-247.04581688472291
10
-233.77062469212004
20
-246.67298377189013
10
-234.14337592427597
20
-246.38687692254001
10
-234.57747586774252
20
-246.20699404564192
10
-235.04334132875647
20
-246.14559386198601
10
-235.50922434602884
20
-246.20686069261964
10
-235.94337576184071
20
-246.3866193042835
10
-236.31620887467341
20
-246.67261944465787
10
-236.60231572402353
20
-247.04537067681369
10
-236.78219860092153
20
-247.47947062028018
10
-236.84359878457767
20
-247.94533608129413
10
-236.78233195394441
20
-248.41121909856662
10
-236.6025733422801
20
-248.84537051437837
10
-236.31657320190581
20
-249.21820362721121
10
-235.94382196974982
20
-249.50431047656127
10
-235.50972202628344
20
-249.68419335345936
10
-235.04385656526938
20
-249.74559353711533
10
-234.57797354799703
20
-249.6843267064817
10
-234.14382213218519
20
-249.50456809481778
10
-233.77098901935244
20
-249.21856795444347
10
-233.48488217000232
20
-248.84581672228759
0
LWPOLYLINE
5
277
100
AcDbEntity
8
0
100
AcDbPolyline
90
24
70
1
43
0.0
10
-302.13226053686321
20
-151.98143945849216
10
-302.50501176901901
20
-151.69533260914207
10
-302.93911171248556
20
-151.51544973224395
10
-303.40497717349956
20
-151.45404954858799
10
-303.87086019077185
20
-151.5153163792217
10
-304.30501160658366
20
-151.69507499088556
10
-304.6778447194165
20
-151.98107513125987
10
-304.96395156876656
20
-152.35382636341575
10
-305.14383444566477
20
-152.78792630688227
10
-305.20523462932056
20
-153.25379176789619
10
-305.14396779868707
20
-153.71967478516859
10
-304.96420918702307
20
-154.15382620098046
10
-304.67820904664876
20
-154.52665931381324
10
-304.30545781449291
20
-154.81276616316336
10
-303.87135787102642
20
-154.99264904006145
10
-303.40549241001258
20
-155.05404922371739
10
-302.93960939274007
20
-154.99278239308407
10
-302.50545797692826
20
-154.8130237814199
10
-302.13262486409553
20
-154.52702364104562
10
-301.8465180147453
20
-154.15427240888965
10
-301.66663513784727
20
-153.72017246542316
10
-301.60523495419119
20
-153.25430700440927
10
-301.66650178482604
20
-152.78842398713704
10
-301.8462603964889
20
-152.354272571325
0
LWPOLYLINE
5
278
100
AcDbEntity
8
0
100
AcDbPolyline
90
24
70
1
43
0.0
10
-304.93995923575596
20
-248.31031341455719
10
-305.11984211265417
20
-248.74441335802368
10
-305.18124229631019
20
-249.21027881903765
10
-305.11997546567642
20
-249.67616183631006
10
-304.94021685401259
20
-250.11031325212187
10
-304.65421671363828
20
-250.48314636495473
10
-304.28146548148243
20
-250.7692532143048
10
-303.84736553801599
20
-250.94913609120286
10
-303.38150007700187
20
-251.01053627485885
10
-302.91561705972953
20
-250.94926944422519
10
-302.48146564391777
20
-250.76951083256131
10
-302.10863253108505
20
-250.483510692187
10
-301.82252568173482
20
-250.11075946003109
10
-301.64264280483678
20
-249.67665951656465
10
-301.58124262118076
20
-249.21079405555071
10
-301.64250945181448
20
-248.7449110382783
10
-301.82226806347819
20
-248.31075962246643
10
-302.10826820385262
20
-247.9379265096336
10
-302.48101943600858
20
-247.65181966028354
10
-302.91511937947507
20
-247.47193678338544
10
-303.38098484048896
20
-247.41053659972945
10
-303.84686785776137
20
-247.47180343036317
10
-304.28101927357318
20
-247.651562042027
10
-304.6538523864059
20
-247.93756218240134
0
LWPOLYLINE
5
279
100
AcDbEntity
8
0
100
AcDbPolyline
90
27
70
1
43
0.0
10
-231.8556379749138
20
-234.49604102578817
10
-232.2897379183803
20
-234.31615814889014
10
-232.75560337939427
20
-234.25475796523415
10
-233.22148639666668
20
-234.3160247958678
10
-233.65563781247846
20
-234.49578340753169
10
-234.02847092531141
20
-234.781783547906
10
-234.3145777746615
20
-235.15453478006185
10
-234.49446065155956
20
-235.58863472352837
10
-234.5558608352155
20
-236.05450018454229
10
-234.49459400458187
20
-236.52038320181472
10
-234.3148353929179
20
-236.95453461762656
10
-234.02883525254362
20
-237.32736773045934
10
-233.91884974847829
20
-237.42871821406123
10
-233.870911150762
20
-237.44858307007297
10
-233.65608402038771
20
-237.61347457980943
10
-233.22198407692127
20
-237.79335745670753
10
-232.75611861590738
20
-237.85475764036352
10
-232.29023559863481
20
-237.79349080972986
10
-231.85608418282297
20
-237.61373219806597
10
-231.48325106999025
20
-237.32773205769163
10
-231.19714422064007
20
-236.95498082553581
10
-231.01726134374212
20
-236.52088088206932
10
-230.95586116008604
20
-236.05501542105532
10
-231.01712799071979
20
-235.58913240378291
10
-231.19688660238356
20
-235.1549809879711
10
-231.48288674275807
20
-234.78214787513826
10
-231.74565247084871
20
-234.59739150939004
0
LWPOLYLINE
5
280
100
AcDbEntity
8
0
100
AcDbPolyline
90
26
70
1
43
0.0
10
-302.87722605331635
20
-104.03182994137285
10
-294.88125697609507
20
-104.03182994137285
10
-293.84598087850696
20
-103.89553325743286
10
-292.88125713609492
20
-103.49593159938249
10
-292.05283007762296
20
-102.86025715984491
10
-291.41715563808532
20
-102.03183010137288
10
-291.01755398003496
20
-101.06710635896081
10
-290.88125729609499
20
-100.03183026137282
10
-291.01755398003496
20
-98.996554163784864
10
-291.41715563808532
20
-98.031830421372845
10
-292.05283007762296
20
-97.203403362900858
10
-292.88125713609492
20
-96.567728923363276
10
-293.84598087850696
20
-96.168127265312862
10
-294.81439602694184
20
-96.03183058137283
10
-302.87722605331635
20
-96.03183058137283
10
-303.91250215090423
20
-96.168127265312862
10
-304.87722589331645
20
-96.567728923363276
10
-305.70565295178869
20
-97.203403362900858
10
-306.34132739132622
20
-98.031830421372888
10
-306.74092904937652
20
-98.996554163784907
10
-306.87722573331666
20
-100.03183026137282
10
-306.74092904937652
20
-101.06710635896086
10
-306.34132739132622
20
-102.03183010137288
10
-305.70565295178869
20
-102.86025715984501
10
-304.87722589331645
20
-103.49593159938249
10
-303.91250215090423
20
-103.89553325743286
0
LWPOLYLINE
5
281
100
AcDbEntity
8
0
100
AcDbPolyline
90
24
70
1
43
0.0
10
-279.34392605432362
20
-249.77641186224332
10
-278.87806059330956
20
-249.83781204589931
10
-278.41217757603721
20
-249.77654521526568
10
-277.9780261602254
20
-249.59678660360174
10
-277.60519304739262
20
-249.31078646322746
10
-277.3190861980425
20
-248.93803523107158
10
-277.13920332114441
20
-248.50393528760509
10
-277.0778031374885
20
-248.03806982659114
10
-277.13906996812216
20
-247.57218680931874
10
-277.31882857978587
20
-247.1380353935069
10
-277.6048287201603
20
-246.76520228067409
10
-277.97757995231615
20
-246.47909543132403
10
-278.41167989578264
20
-246.29921255442594
10
-278.87754535679659
20
-246.23781237076994
10
-279.34342837406894
20
-246.29907920140357
10
-279.77757978988075
20
-246.47883781306749
10
-280.15041290271347
20
-246.76483795344183
10
-280.4365197520637
20
-247.13758918559765
10
-280.61640262896168
20
-247.57168912906417
10
-280.67780281261787
20
-248.03755459007814
10
-280.6165359819837
20
-248.50343760735052
10
-280.43677737032021
20
-248.93758902316236
10
-280.1507772299459
20
-249.31042213599517
10
-279.77802599779
20
-249.59652898534529
0
LWPOLYLINE
5
282
100
AcDbEntity
8
0
100
AcDbPolyline
90
24
70
1
43
0.0
10
-210.15089482450384
20
-153.76324958928521
10
-209.97113621284007
20
-154.19740100509713
10
-209.68513607246581
20
-154.57023411792989
10
-209.31238484030987
20
-154.85634096728
10
-208.87828489684358
20
-155.0362238441781
10
-208.41241943582941
20
-155.09762402783409
10
-207.94653641855706
20
-155.03635719720046
10
-207.51238500274528
20
-154.85659858553646
10
-207.13955188991247
20
-154.5705984451622
10
-206.85344504056235
20
-154.1978472130063
10
-206.67356216366429
20
-153.76374726953981
10
-206.61216198000841
20
-153.29788180852591
10
-206.67342881064198
20
-152.83199879125348
10
-206.85318742230581
20
-152.39784737544164
10
-207.13918756268004
20
-152.02501426260881
10
-207.51193879483594
20
-151.73890741325869
10
-207.94603873830258
20
-151.5590245363606
10
-208.4119041993165
20
-151.49762435270469
10
-208.87778721658887
20
-151.55889118333829
10
-209.31193863240068
20
-151.73864979500223
10
-209.68477174523341
20
-152.0246499353766
10
-209.97087859458355
20
-152.39740116753239
10
-210.1507614714817
20
-152.83150111099886
10
-210.21216165513775
20
-153.29736657201278
0
LWPOLYLINE
5
283
100
AcDbEntity
8
0
100
AcDbPolyline
90
27
70
1
43
0.0
10
-279.49004455092876
20
-160.13895060893856
10
-279.7760446913033
20
-159.76611749610569
10
-280.14879592345898
20
-159.48001064675566
10
-280.40317223747388
20
-159.39016100846339
10
-280.58289586692558
20
-159.30012776985757
10
-281.04876132793953
20
-159.23872758620175
10
-281.51464434521182
20
-159.29999441683526
10
-281.94879576102369
20
-159.4797530284992
10
-282.32162887385658
20
-159.76575316887349
10
-282.60773572320682
20
-160.13850440102928
10
-282.78761860010479
20
-160.57260434449577
10
-282.84901878376081
20
-161.03846980550975
10
-282.7877519531271
20
-161.50435282278215
10
-282.60799334146304
20
-161.93850423859396
10
-282.3219932010889
20
-162.31133735142677
10
-281.94924196893288
20
-162.59744420077686
10
-281.76951833948135
20
-162.68747743938277
10
-281.71445795578751
20
-162.69473429346158
10
-281.51514202546662
20
-162.77732707767498
10
-281.04927656445255
20
-162.838727261331
10
-280.58339354717998
20
-162.77746043069726
10
-280.14924213136817
20
-162.59770181903343
10
-279.77640901853545
20
-162.31170167865912
10
-279.49030216918538
20
-161.93895044650327
10
-279.31041929228729
20
-161.50485050303678
10
-279.24901910863139
20
-161.03898504202277
10
-279.3102859392651
20
-160.57310202475037
0
LWPOLYLINE
5
284
100
AcDbEntity
8
0
100
AcDbPolyline
90
24
70
1
43
0.0
10
-235.44356125683396
20
-152.2824093746184
10
-235.87771267264577
20
-152.46216798628217
10
-236.25054578547847
20
-152.74816812665659
10
-236.53665263482867
20
-153.12091935881239
10
-236.71653551172668
20
-153.55501930227888
10
-236.77793569538272
20
-154.02088476329288
10
-236.71666886474861
20
-154.4867677805652
10
-236.53691025308518
20
-154.9209191963771
10
-236.25091011271087
20
-155.29375230920991
10
-235.87815888055496
20
-155.57985915856
10
-235.44405893708856
20
-155.75974203545812
10
-234.97819347607449
20
-155.82114221911411
10
-234.51231045880209
20
-155.7598753884804
10
-234.07815904299025
20
-155.58011677681648
10
-233.70532593015756
20
-155.2941166364422
10
-233.41921908080735
20
-154.92136540428623
10
-233.23933620390937
20
-154.48726546081991
10
-233.17793602025341
20
-154.02139999980591
10
-233.23920285088707
20
-153.5555169825335
10
-233.4189614625509
20
-153.12136556672161
10
-233.70496160292518
20
-152.74853245388891
10
-234.07771283508109
20
-152.46242560453879
10
-234.51181277854772
20
-152.2825427276407
10
-234.97767823956156
20
-152.22114254398471
0
LWPOLYLINE
5
285
100
AcDbEntity
8
0
100
AcDbPolyline
90
24
70
1
43
0.0
10
-210.12669725246644
20
-249.63051393712072
10
-209.94693864080267
20
-250.06466535293254
10
-209.6609385004283
20
-250.43749846576534
10
-209.28818726827245
20
-250.72360531511546
10
-208.85408732480607
20
-250.90348819201353
10
-208.38822186379187
20
-250.96488837566949
10
-207.92233884651952
20
-250.90362154503583
10
-207.4881874307078
20
-250.72386293337192
10
-207.11535431787496
20
-250.43786279299763
10
-206.8292474685249
20
-250.06511156084176
10
-206.64936459162675
20
-249.63101161737526
10
-206.5879644079709
20
-249.16514615636135
10
-206.64923123860447
20
-248.69926313908891
10
-206.82898985026839
20
-248.26511172327707
10
-207.11498999064273
20
-247.89227861044427
10
-207.4877412227986
20
-247.6061717610942
10
-207.92184116626504
20
-247.42628888419608
10
-208.38770662727907
20
-247.36488870054015
10
-208.85358964455139
20
-247.42615553117383
10
-209.28774106036317
20
-247.60591414283766
10
-209.66057417319593
20
-247.891914283212
10
-209.9466810225461
20
-248.26466551536782
10
-210.12656389944422
20
-248.69876545883432
10
-210.18796408310033
20
-249.16463091984832
0
LWPOLYLINE
5
286
100
AcDbEntity
8
0
100
AcDbPolyline
90
27
70
1
43
0.0
10
-231.70068948500727
20
-159.72207802987069
10
-231.88858470817084
20
-159.55150725596349
10
-232.32268465163747
20
-159.37162437906548
10
-232.78855011265139
20
-159.3102241954094
10
-233.2544331299238
20
-159.37149102604309
10
-233.68858454573555
20
-159.551249637707
10
-234.06141765856847
20
-159.83724977808129
10
-234.34752450791854
20
-160.21000101023719
10
-234.52740738481668
20
-160.64410095370368
10
-234.58880756847259
20
-161.10996641471758
10
-234.52754073783899
20
-161.57584943198998
10
-234.34778212617502
20
-162.0100008478019
10
-234.06178198580068
20
-162.38283396063474
10
-233.87388676263703
20
-162.55340473454191
10
-233.79927472638605
20
-162.58432256333691
10
-233.68903075364477
20
-162.6689408099848
10
-233.25493081017837
20
-162.84882368688278
10
-232.78906534916447
20
-162.9102238705388
10
-232.3231823318919
20
-162.8489570399052
10
-231.88903091608
20
-162.66919842824132
10
-231.51619780324737
20
-162.38319828786686
10
-231.23009095389719
20
-162.01044705571107
10
-231.05020807699918
20
-161.5763471122446
10
-230.98880789334319
20
-161.1104816512306
10
-231.05007472397688
20
-160.6445986339582
10
-231.22983333564068
20
-160.21044721814638
10
-231.51583347601519
20
-159.83761410531358
0
LINE
5
287
100
AcDbEntity
8
0
100
AcDbLine
10
-303.71412462652813
20
-117.22627009488417
30
0
11
-301.7141249465285
21
-117.22627009488417
31
0
0
LINE
5
288
100
AcDbEntity
8
0
100
AcDbLine
10
-301.7141249465285
20
-117.22627009488417
30
0
11
-301.7141249465285
21
-112.82627044688418
31
0
0
LINE
5
289
100
AcDbEntity
8
0
100
AcDbLine
10
-301.7141249465285
20
-112.82627044688418
30
0
11
-303.71412462652813
21
-112.82627044688418
31
0
0
LINE
5
290
100
AcDbEntity
8
0
100
AcDbLine
10
-303.71412462652813
20
-112.82627044688418
30
0
11
-303.71412462652813
21
-110.52627027088502
31
0
0
LINE
5
291
100
AcDbEntity
8
0
100
AcDbLine
10
-310.81412421852792
20
-112.82627044688418
30
0
11
-322.81412325852796
21
-112.82627044688418
31
0
0
LINE
5
292
100
AcDbEntity
8
0
100
AcDbLine
10
-322.81412325852796
20
-92.031830901372757
30
0
11
-322.81412325852796
21
-112.82627044688418
31
0
0
LINE
5
293
100
AcDbEntity
8
0
100
AcDbLine
10
-322.81412325852796
20
-92.031830901372757
30
0
11
-172.01413532252744
21
-92.031830901372757
31
0
0
LINE
5
294
100
AcDbEntity
8
0
100
AcDbLine
10
-172.01413532252744
20
-92.031830901372757
30
0
11
-170.01413548252737
21
-90.031831061372742
31
0
0
LINE
5
295
100
AcDbEntity
8
0
100
AcDbLine
10
-170.01413548252737
20
-90.031831061372742
30
0
11
-150.01413708252727
21
-90.031831061372785
31
0
0
LINE
5
296
100
AcDbEntity
8
0
100
AcDbLine
10
-150.01413708252727
20
-90.031831061372785
30
0
11
-145.01413748252727
21
-95.031830661372894
31
0
0
LINE
5
297
100
AcDbEntity
8
0
100
AcDbLine
10
-145.01413748252727
20
-95.031830661372894
30
0
11
-145.01413748252727
21
-110.63182941337305
31
0
0
LINE
5
298
100
AcDbEntity
8
0
100
AcDbLine
10
-150.01413708252741
20
-115.63182901337301
30
0
11
-145.01413748252727
21
-110.63182941337305
31
0
0
LINE
5
299
100
AcDbEntity
8
0
100
AcDbLine
10
-150.01413708252741
20
-115.63182901337301
30
0
11
-220.01413148252766
21
-115.63182901337301
31
0
0
LINE
5
300
100
AcDbEntity
8
0
100
AcDbLine
10
-221.15293518987457
20
-115.78175536570703
30
0
11
-220.01413148252766
21
-115.63182901337301
31
0
0
LINE
5
301
100
AcDbEntity
8
0
100
AcDbLine
10
-222.21413130652778
20
-116.2213171895624
30
0
11
-221.15293518987457
21
-115.78175536570703
31
0
0
LINE
5
302
100
AcDbEntity
8
0
100
AcDbLine
10
-223.12540107084698
20
-116.92055907305379
30
0
11
-222.21413130652778
21
-116.2213171895624
31
0
0
LINE
5
303
100
AcDbEntity
8
0
100
AcDbLine
10
-223.82464295433829
20
-117.83182883737302
30
0
11
-223.12540107084698
21
-116.92055907305379
31
0
0
LINE
5
304
100
AcDbEntity
8
0
100
AcDbLine
10
-224.26420477819377
20
-118.89302495402632
30
0
11
-223.82464295433829
21
-117.83182883737302
31
0
0
LINE
5
305
100
AcDbEntity
8
0
100
AcDbLine
10
-224.41413113052772
20
-120.03182866137311
30
0
11
-224.26420477819377
21
-118.89302495402632
31
0
0
LINE
5
306
100
AcDbEntity
8
0
100
AcDbLine
10
-224.26420477819377
20
-121.17063236871978
30
0
11
-224.41413113052772
21
-120.03182866137311
31
0
0
LINE
5
307
100
AcDbEntity
8
0
100
AcDbLine
10
-223.82464295433829
20
-122.23182848537309
30
0
11
-224.26420477819377
21
-121.17063236871978
31
0
0
LINE
5
308
100
AcDbEntity
8
0
100
AcDbLine
10
-223.12540107084698
20
-123.14309824969229
30
0
11
-223.82464295433829
21
-122.23182848537309
31
0
0
LINE
5
309
100
AcDbEntity
8
0
100
AcDbLine
10
-222.21413130652778
20
-123.84234013318361
30
0
11
-223.12540107084698
21
-123.14309824969229
31
0
0
LINE
5
310
100
AcDbEntity
8
0
100
AcDbLine
10
-221.15293518987457
20
-124.28190195703908
30
0
11
-222.21413130652778
21
-123.84234013318361
31
0
0
LINE
5
311
100
AcDbEntity
8
0
100
AcDbLine
10
-220.01413148252766
20
-124.4318283093731
30
0
11
-221.15293518987457
21
-124.28190195703908
31
0
0
LINE
5
312
100
AcDbEntity
8
0
100
AcDbLine
10
-150.01413708252741
20
-124.4318283093731
30
0
11
-220.01413148252766
21
-124.4318283093731
31
0
0
LINE
5
313
100
AcDbEntity
8
0
100
AcDbLine
10
-150.01413708252741
20
-124.4318283093731
30
0
11
-145.01413748252725
21
-129.43182790937311
31
0
0
LINE
5
314
100
AcDbEntity
8
0
100
AcDbLine
10
-145.01413748252725
20
-129.43182790937311
30
0
11
-145.01413748252727
21
-137.03182730137311
31
0
0
LINE
5
315
100
AcDbEntity
8
0
100
AcDbLine
10
-145.01413748252727
20
-137.03182730137311
30
0
11
-297.41412529052809
21
-460.03180146137527
31
0
0
LINE
5
316
100
AcDbEntity
8
0
100
AcDbLine
10
-322.81412325852813
20
-460.03180146137515
30
0
11
-297.41412529052809
21
-460.03180146137527
31
0
0
LINE
5
317
100
AcDbEntity
8
0
100
AcDbLine
10
-322.81412325852813
20
-450.67457354687019
30
0
11
-322.81412325852813
21
-460.03180146137515
31
0
0
LINE
5
318
100
AcDbEntity
8
0
100
AcDbLine
10
-328.91412277052808
20
-450.67457354687031
30
0
11
-322.81412325852813
21
-450.67457354687019
31
0
0
LINE
5
319
100
AcDbEntity
8
0
100
AcDbLine
10
-328.91412277052808
20
-441.8745742508703
30
0
11
-328.91412277052808
21
-450.67457354687031
31
0
0
LINE
5
320
100
AcDbEntity
8
0
100
AcDbLine
10
-322.81412325852813
20
-441.8745742508703
30
0
11
-328.91412277052808
21
-441.8745742508703
31
0
0
LINE
5
321
100
AcDbEntity
8
0
100
AcDbLine
10
-322.81412325852813
20
-432.31677328089131
30
0
11
-322.81412325852813
21
-441.8745742508703
31
0
0
LINE
5
322
100
AcDbEntity
8
0
100
AcDbLine
10
-322.81412325852813
20
-432.31677328089131
30
0
11
-310.81412421852804
21
-432.31677328089131
31
0
0
ARC
5
323
100
AcDbEntity
8
0
100
AcDbCircle
10
-305.71412494652861
20
-430.1167734568923
30
0
40
5.5000000000000888
100
AcDbArc
50
226.6582369157972
51
290.52692344164387
0
ARC
5
324
100
AcDbEntity
8
0
100
AcDbCircle
10
-306.71412494652196
20
-434.61677345689293
30
0
40
2.9999999999886438
100
AcDbArc
50
-12.528807709225909
51
0
0
LINE
5
325
100
AcDbEntity
8
0
100
AcDbLine
10
-303.71412462652825
20
-434.6167734568923
30
0
11
-303.71412462652825
21
-432.31677328089131
31
0
0
LINE
5
326
100
AcDbEntity
8
0
100
AcDbLine
10
-303.71412462652825
20
-432.31677328089131
30
0
11
-301.71412494652856
21
-432.31677328089131
31
0
0
LINE
5
327
100
AcDbEntity
8
0
100
AcDbLine
10
-301.71412494652856
20
-432.31677328089131
30
0
11
-301.71412494652856
21
-427.91677363289136
31
0
0
LINE
5
328
100
AcDbEntity
8
0
100
AcDbLine
10
-301.71412494652856
20
-427.91677363289136
30
0
11
-303.71412462652825
21
-427.91677363289136
31
0
0
LINE
5
329
100
AcDbEntity
8
0
100
AcDbLine
10
-303.71412462652825
20
-427.91677363289136
30
0
11
-303.71412462652825
21
-425.61677345689225
31
0
0
ARC
5
330
100
AcDbEntity
8
0
100
AcDbCircle
10
-306.71412494652975
20
-425.61677345689259
30
0
40
3.0000000000001492
100
AcDbArc
50
0
51
12.528807709378396
0
ARC
5
331
100
AcDbEntity
8
0
100
AcDbCircle
10
-305.71412494652861
20
-430.1167734568923
30
0
40
5.5000000000093676
100
AcDbArc
50
69.473076558373805
51
133.34176308417602
0
LINE
5
332
100
AcDbEntity
8
0
100
AcDbLine
10
-310.81412421852804
20
-427.91677363289136
30
0
11
-322.81412325852813
21
-427.91677363289136
31
0
0
LINE
5
333
100
AcDbEntity
8
0
100
AcDbLine
10
-322.81412325852813
20
-427.91677363289136
30
0
11
-322.81412325852807
21
-418.3745761308702
31
0
0
LINE
5
334
100
AcDbEntity
8
0
100
AcDbLine
10
-328.91412277052808
20
-418.3745761308702
30
0
11
-322.81412325852807
21
-418.3745761308702
31
0
0
LINE
5
335
100
AcDbEntity
8
0
100
AcDbLine
10
-328.91412277052808
20
-409.57457683487019
30
0
11
-328.91412277052808
21
-418.3745761308702
31
0
0
LINE
5
336
100
AcDbEntity
8
0
100
AcDbLine
10
-322.81412325852807
20
-409.57457683487019
30
0
11
-328.91412277052808
21
-409.57457683487019
31
0
0
LINE
5
337
100
AcDbEntity
8
0
100
AcDbLine
10
-322.81412325852807
20
-295.58181461737416
30
0
11
-322.81412325852807
21
-409.57457683487019
31
0
0
LINE
5
338
100
AcDbEntity
8
0
100
AcDbLine
10
-328.91412277052808
20
-295.58181461737416
30
0
11
-322.81412325852807
21
-295.58181461737416
31
0
0
LINE
5
339
100
AcDbEntity
8
0
100
AcDbLine
10
-328.91412277052808
20
-286.7818153213741
30
0
11
-328.91412277052808
21
-295.58181461737416
31
0
0
LINE
5
340
100
AcDbEntity
8
0
100
AcDbLine
10
-322.81412325852807
20
-286.7818153213741
30
0
11
-328.91412277052808
21
-286.7818153213741
31
0
0
LINE
5
341
100
AcDbEntity
8
0
100
AcDbLine
10
-322.81412325852807
20
-286.7818153213741
30
0
11
-322.81412325852807
21
-277.23181608537402
31
0
0
LINE
5
342
100
AcDbEntity
8
0
100
AcDbLine
10
-322.81412325852807
20
-277.23181608537402
30
0
11
-310.81412421852798
21
-277.23181608537402
31
0
0
ARC
5
343
100
AcDbEntity
8
0
100
AcDbCircle
10
-305.71412494652873
20
-275.03181626137484
30
0
40
5.5000000000000409
100
AcDbArc
50
226.65823691579763
51
290.52692344164325
0
ARC
5
344
100
AcDbEntity
8
0
100
AcDbCircle
10
-306.71412494652486
20
-279.5318162613753
30
0
40
2.9999999999913687
100
AcDbArc
50
-12.528807709217766
51
0
0
LINE
5
345
100
AcDbEntity
8
0
100
AcDbLine
10
-303.71412462652819
20
-279.53181626137484
30
0
11
-303.71412462652819
21
-277.23181608537402
31
0
0
LINE
5
346
100
AcDbEntity
8
0
100
AcDbLine
10
-303.71412462652819
20
-277.23181608537402
30
0
11
-301.7141249465285
21
-277.23181608537402
31
0
0
LINE
5
347
100
AcDbEntity
8
0
100
AcDbLine
10
-301.7141249465285
20
-277.23181608537402
30
0
11
-301.71412494652856
21
-272.83181643737396
31
0
0
LINE
5
348
100
AcDbEntity
8
0
100
AcDbLine
10
-301.71412494652856
20
-272.83181643737396
30
0
11
-303.71412462652825
21
-272.83181643737396
31
0
0
LINE
5
349
100
AcDbEntity
8
0
100
AcDbLine
10
-303.71412462652825
20
-272.83181643737396
30
0
11
-303.71412462652819
21
-270.5318162613749
31
0
0
ARC
5
350
100
AcDbEntity
8
0
100
AcDbCircle
10
-306.71412494653043
20
-270.53181626137518
30
0
40
3.0000000000006466
100
AcDbArc
50
0
51
12.52880770937734
0
ARC
5
351
100
AcDbEntity
8
0
100
AcDbCircle
10
-305.71412494652873
20
-275.03181626137484
30
0
40
5.5000000000093676
100
AcDbArc
50
69.473076558374373
51
133.34176308417685
0
LINE
5
352
100
AcDbEntity
8
0
100
AcDbLine
10
-310.81412421852798
20
-272.83181643737396
30
0
11
-322.81412325852807
21
-272.83181643737396
31
0
0
LINE
5
353
100
AcDbEntity
8
0
100
AcDbLine
10
-322.81412325852807
20
-272.83181643737396
30
0
11
-322.81412325852807
21
-263.28181720137394
31
0
0
LINE
5
354
100
AcDbEntity
8
0
100
AcDbLine
10
-328.91412277052808
20
-263.28181720137394
30
0
11
-322.81412325852807
21
-263.28181720137394
31
0
0
LINE
5
355
100
AcDbEntity
8
0
100
AcDbLine
10
-328.91412277052808
20
-254.48181790537387
30
0
11
-328.91412277052808
21
-263.28181720137394
31
0
0
LINE
5
356
100
AcDbEntity
8
0
100
AcDbLine
10
-322.81412325852807
20
-254.48181790537387
30
0
11
-328.91412277052808
21
-254.48181790537387
31
0
0
LINE
5
357
100
AcDbEntity
8
0
100
AcDbLine
10
-322.81412325852807
20
-135.58176968207337
30
0
11
-322.81412325852807
21
-254.48181790537387
31
0
0
LINE
5
358
100
AcDbEntity
8
0
100
AcDbLine
10
-328.91412277052808
20
-135.58176968207337
30
0
11
-322.81412325852807
21
-135.58176968207337
31
0
0
LINE
5
359
100
AcDbEntity
8
0
100
AcDbLine
10
-328.91412277052808
20
-126.78177038607328
30
0
11
-328.91412277052808
21
-135.58176968207337
31
0
0
LINE
5
360
100
AcDbEntity
8
0
100
AcDbLine
10
-322.81412325852796
20
-126.78177038607328
30
0
11
-328.91412277052808
21
-126.78177038607328
31
0
0
LINE
5
361
100
AcDbEntity
8
0
100
AcDbLine
10
-322.81412325852796
20
-117.22627009488417
30
0
11
-322.81412325852796
21
-126.78177038607328
31
0
0
LINE
5
362
100
AcDbEntity
8
0
100
AcDbLine
10
-322.81412325852796
20
-117.22627009488417
30
0
11
-310.81412421852792
21
-117.22627009488417
31
0
0
ENDSEC
0
SECTION
2
OBJECTS
0
DICTIONARY
5
C
100
AcDbDictionary
3
ACAD_GROUP
350
D
3
ACAD_MLINESTYLE
350
17
0
DICTIONARY
5
D
100
AcDbDictionary
0
DICTIONARY
5
1A
330
C
100
AcDbDictionary
0
DICTIONARY
5
17
100
AcDbDictionary
0
ENDSEC
0
EOF
