0
SECTION
2
HEADER
9
$INSUNITS
70
4
9
$ACADVER
1
AC1014
9
$HANDSEED
5
FFFF
0
ENDSEC
0
SECTION
2
TABLES
0
TABLE
2
VPORT
5
8
100
AcDbSymbolTable
0
ENDTAB
0
TABLE
2
LTYPE
5
5
100
AcDbSymbolTable
0
LTYPE
5
14
100
AcDbSymbolTableRecord
100
AcDbLinetypeTableRecord
2
BYBLOCK
70
0
0
LTYPE
5
15
100
AcDbSymbolTableRecord
100
AcDbLinetypeTableRecord
2
BYLAYER
70
0
0
ENDTAB
0
TABLE
2
LAYER
5
2
100
AcDbSymbolTable
70
2
0
LAYER
5
50
100
AcDbSymbolTableRecord
100
AcDbLayerTableRecord
2
0
70
0
6
CONTINUOUS
0
ENDTAB
0
TABLE
2
STYLE
5
3
100
AcDbSymbolTable
70
1
0
STYLE
5
11
100
AcDbSymbolTableRecord
100
AcDbTextStyleTableRecord
2
STANDARD
70
0
0
ENDTAB
0
TABLE
2
VIEW
5
6
100
AcDbSymbolTable
70
0
0
ENDTAB
0
TABLE
2
UCS
5
7
100
AcDbSymbolTable
70
0
0
ENDTAB
0
TABLE
2
APPID
5
9
100
AcDbSymbolTable
70
2
0
APPID
5
12
100
AcDbSymbolTableRecord
100
AcDbRegAppTableRecord
2
ACAD
70
0
0
ENDTAB
0
TABLE
2
DIMSTYLE
5
A
100
AcDbSymbolTable
70
1
0
ENDTAB
0
TABLE
2
BLOCK_RECORD
5
1
100
AcDbSymbolTable
70
1
0
BLOCK_RECORD
5
1F
100
AcDbSymbolTableRecord
100
AcDbBlockTableRecord
2
*MODEL_SPACE
0
BLOCK_RECORD
5
1B
100
AcDbSymbolTableRecord
100
AcDbBlockTableRecord
2
*PAPER_SPACE
0
ENDTAB
0
ENDSEC
0
SECTION
2
BLOCKS
0
BLOCK
5
20
100
AcDbEntity
100
AcDbBlockBegin
2
*MODEL_SPACE
0
ENDBLK
5
21
100
AcDbEntity
100
AcDbBlockEnd
0
BLOCK
5
1C
100
AcDbEntity
100
AcDbBlockBegin
2
*PAPER_SPACE
0
ENDBLK
5
1D
100
AcDbEntity
100
AcDbBlockEnd
0
ENDSEC
0
SECTION
2
ENTITIES
0
LWPOLYLINE
5
100
100
AcDbEntity
8
0
100
AcDbPolyline
90
26
70
1
43
0.0
10
0.10457771778835223
20
32.413313032693409
10
0.10457771778841884
20
41.955510534714591
10
-5.9954217942115884
20
41.955510534714591
10
-5.9954217942115884
20
50.75550983071453
10
0.10457771778841662
20
50.75550983071453
10
0.1045777177884144
20
57.627450662582604
10
25.504575685788321
20
57.627450662582604
10
25.504575685788321
20
0.29828520420958959
10
0.10457771778836111
20
0.2982852042097317
10
0.10457771778835889
20
9.6555131187146479
10
-5.9954217942115795
20
9.6555131187145768
10
-5.9954217942115795
20
18.455512414714516
10
0.10457771778835445
20
18.455512414714516
10
0.10457771778835223
20
28.013313384693468
10
12.104576757788408
20
28.013313384693475
42
0.13163941167252186
10
13.429658473071269
20
26.213313528693355
42
0.28612541373140937
10
19.133137210338429
20
25.062521835226079
42
0.054721759448779578
10
19.204576029788836
20
25.713313208692504
10
19.204576349788152
20
28.013313384693479
10
21.204576029787859
20
28.013313384693479
10
21.204576029787859
20
32.413313032693409
10
19.204576349788148
20
32.413313032693409
10
19.204576029786772
20
34.713313208692604
42
0.054721759448282045
10
19.133137210332031
20
35.364104582151292
42
0.28612541373112094
10
13.429658473073115
20
34.213312888693466
42
0.17831105640542633
10
12.104576757788408
20
32.413313032693409
0
LWPOLYLINE
5
101
100
AcDbEntity
8
0
100
AcDbPolyline
90
24
70
1
43
0.0
10
52.678961090323504
20
29.572047097833511
10
52.858719701987354
20
30.006198513645366
10
52.91998653262106
20
30.472081530917769
10
52.858586348965076
20
30.937946991931717
10
52.678703472067021
20
31.372046935398146
10
52.392596622716894
20
31.744798167554009
10
52.0197635098841
20
32.030798307928343
10
51.585612094072289
20
32.210556919592221
10
51.119729076799878
20
32.271823750225899
10
50.653863615785902
20
32.210423566569908
10
50.219763672319424
20
32.030540689671838
10
49.847012440163581
20
31.744433840321733
10
49.561012299789226
20
31.371600727488946
10
49.381253688125383
20
30.937449311677128
10
49.319986857491678
20
30.471566294404724
10
49.381387041147669
20
30.005700833390776
10
49.561269918045724
20
29.571600889924277
10
49.847376767395843
20
29.198849657768413
10
50.220209880228637
20
28.912849517394115
10
50.654361296040456
20
28.733090905730236
10
51.120244313312867
20
28.671824075096559
10
51.586109774326857
20
28.733224258752514
10
52.020209717793335
20
28.91310713565062
10
52.392960949949163
20
29.199213985000689
0
LWPOLYLINE
5
102
100
AcDbEntity
8
0
100
AcDbPolyline
90
4
70
1
43
0.0
10
47.869264108622758
20
18.821558693165201
10
47.869264108622772
20
9.8215594131651329
10
54.369263588622758
20
9.8215594131651329
10
54.369263588622744
20
18.821558693165201
0
LWPOLYLINE
5
103
100
AcDbEntity
8
0
100
AcDbPolyline
90
4
70
1
43
0.0
10
54.369263588622744
20
51.121556109165276
10
47.869264108622751
20
51.121556109165276
10
47.869264108622751
20
42.121556829165279
10
54.369263588622744
20
42.121556829165279
0
LWPOLYLINE
5
104
100
AcDbEntity
8
0
100
AcDbPolyline
90
4
70
1
43
0.0
10
60.155103547097291
20
57.541366841132771
10
41.550714213963964
20
57.541366841132771
10
41.550714213963964
20
0.11042585624291945
10
60.155103547097291
20
0.11042585624291945
0
ENDSEC
0
SECTION
2
OBJECTS
0
DICTIONARY
5
C
100
AcDbDictionary
3
ACAD_GROUP
350
D
3
ACAD_MLINESTYLE
350
17
0
DICTIONARY
5
D
100
AcDbDictionary
0
DICTIONARY
5
1A
330
C
100
AcDbDictionary
0
DICTIONARY
5
17
100
AcDbDictionary
0
ENDSEC
0
EOF
