0
SECTION
2
HEADER
9
$INSUNITS
70
4
9
$ACADVER
1
AC1014
9
$HANDSEED
5
FFFF
0
ENDSEC
0
SECTION
2
TABLES
0
TABLE
2
VPORT
5
8
100
AcDbSymbolTable
0
ENDTAB
0
TABLE
2
LTYPE
5
5
100
AcDbSymbolTable
0
LTYPE
5
14
100
AcDbSymbolTableRecord
100
AcDbLinetypeTableRecord
2
BYBLOCK
70
0
0
LTYPE
5
15
100
AcDbSymbolTableRecord
100
AcDbLinetypeTableRecord
2
BYLAYER
70
0
0
ENDTAB
0
TABLE
2
LAYER
5
2
100
AcDbSymbolTable
70
2
0
LAYER
5
50
100
AcDbSymbolTableRecord
100
AcDbLayerTableRecord
2
0
70
0
6
CONTINUOUS
0
ENDTAB
0
TABLE
2
STYLE
5
3
100
AcDbSymbolTable
70
1
0
STYLE
5
11
100
AcDbSymbolTableRecord
100
AcDbTextStyleTableRecord
2
STANDARD
70
0
0
ENDTAB
0
TABLE
2
VIEW
5
6
100
AcDbSymbolTable
70
0
0
ENDTAB
0
TABLE
2
UCS
5
7
100
AcDbSymbolTable
70
0
0
ENDTAB
0
TABLE
2
APPID
5
9
100
AcDbSymbolTable
70
2
0
APPID
5
12
100
AcDbSymbolTableRecord
100
AcDbRegAppTableRecord
2
ACAD
70
0
0
ENDTAB
0
TABLE
2
DIMSTYLE
5
A
100
AcDbSymbolTable
70
1
0
ENDTAB
0
TABLE
2
BLOCK_RECORD
5
1
100
AcDbSymbolTable
70
1
0
BLOCK_RECORD
5
1F
100
AcDbSymbolTableRecord
100
AcDbBlockTableRecord
2
*MODEL_SPACE
0
BLOCK_RECORD
5
1B
100
AcDbSymbolTableRecord
100
AcDbBlockTableRecord
2
*PAPER_SPACE
0
ENDTAB
0
ENDSEC
0
SECTION
2
BLOCKS
0
BLOCK
5
20
100
AcDbEntity
100
AcDbBlockBegin
2
*MODEL_SPACE
0
ENDBLK
5
21
100
AcDbEntity
100
AcDbBlockEnd
0
BLOCK
5
1C
100
AcDbEntity
100
AcDbBlockBegin
2
*PAPER_SPACE
0
ENDBLK
5
1D
100
AcDbEntity
100
AcDbBlockEnd
0
ENDSEC
0
SECTION
2
ENTITIES
0
LINE
5
100
100
AcDbEntity
8
0
100
AcDbLine
10
369.99997040000233
20
-4.9999995999999314
30
0
11
369.99997040000233
21
-364.99997080000236
31
0
0
LINE
5
101
100
AcDbEntity
8
0
100
AcDbLine
10
364.99997080000236
20
-369.99997040000233
30
0
11
4.9999995999999669
21
-369.99997040000233
31
0
0
LINE
5
102
100
AcDbEntity
8
0
100
AcDbLine
10
7.1054273576010019e-14
20
-364.99997080000236
30
0
11
9.7334629123769733e-16
21
-5
31
0
0
LINE
5
103
100
AcDbEntity
8
0
100
AcDbLine
10
26.999997840000063
20
-1.9999998399999797
30
0
11
24.999998000000048
21
3.5527136788005009e-14
31
0
0
LINE
5
104
100
AcDbEntity
8
0
100
AcDbLine
10
24.999998000000048
20
3.5527136788005009e-14
30
0
11
26.999997840000063
21
-1.9999998399999797
31
0
0
LINE
5
105
100
AcDbEntity
8
0
100
AcDbLine
10
344.99997240000209
20
3.5527136788005009e-14
30
0
11
342.99997256000211
21
-1.9999998399999797
31
0
0
LINE
5
106
100
AcDbEntity
8
0
100
AcDbLine
10
342.99997256000211
20
-1.9999998399999797
30
0
11
26.999997840000063
21
-1.9999998399999797
31
0
0
CIRCLE
5
107
100
AcDbEntity
8
0
100
AcDbCircle
10
49.999996000000294
20
-5.9999995199999798
30
0
40
1.7999998560000292
0
LINE
5
108
100
AcDbEntity
8
0
100
AcDbLine
10
5
20
7.1054279260352217e-15
30
0
11
24.999998000000048
21
3.5527136788005009e-14
31
0
0
LINE
5
109
100
AcDbEntity
8
0
100
AcDbLine
10
344.99997240000209
20
3.5527136788005009e-14
30
0
11
364.9999708000023
21
3.5527136788005009e-14
31
0
0
CIRCLE
5
110
100
AcDbEntity
8
0
100
AcDbCircle
10
42.983183139723039
20
-25.010300849267484
30
0
40
1.7999998560000661
0
CIRCLE
5
111
100
AcDbEntity
8
0
100
AcDbCircle
10
19.975815159637005
20
-20.006839782966225
30
0
40
1.7999998560000141
0
CIRCLE
5
112
100
AcDbEntity
8
0
100
AcDbCircle
10
29.982737292239548
20
-40.020684048171169
30
0
40
1.7999998560000483
0
CIRCLE
5
113
100
AcDbEntity
8
0
100
AcDbCircle
10
9.9688930270344596
20
-40.020684048171198
30
0
40
1.7999998560000394
0
CIRCLE
5
114
100
AcDbEntity
8
0
100
AcDbCircle
10
43.025231678232558
20
-184.99685668212979
30
0
40
1.799999856000011
0
CIRCLE
5
115
100
AcDbEntity
8
0
100
AcDbCircle
10
10.004447361798452
20
-360.01345035929177
30
0
40
1.799999855999975
0
CIRCLE
5
116
100
AcDbEntity
8
0
100
AcDbCircle
10
30.022895553632701
20
-360.01345035929171
30
0
40
1.7999998559999737
0
CIRCLE
5
117
100
AcDbEntity
8
0
100
AcDbCircle
10
43.025231678232487
20
-339.99500216745759
30
0
40
1.7999998559999784
0
CIRCLE
5
118
100
AcDbEntity
8
0
100
AcDbCircle
10
340.00324162515255
20
-359.99033060890275
30
0
40
1.7999998560000205
0
CIRCLE
5
119
100
AcDbEntity
8
0
100
AcDbCircle
10
359.97756940452268
20
-360.02334602671988
30
0
40
1.7999998559999952
0
CIRCLE
5
120
100
AcDbEntity
8
0
100
AcDbCircle
10
327.01201800254057
20
-339.98838924843517
30
0
40
1.7999998560000854
0
CIRCLE
5
121
100
AcDbEntity
8
0
100
AcDbCircle
10
326.99925099356841
20
-184.99971904850511
30
0
40
1.7999998560000241
0
CIRCLE
5
122
100
AcDbEntity
8
0
100
AcDbCircle
10
340.01417473677776
20
-39.991031213547387
30
0
40
1.7999998560000232
0
CIRCLE
5
123
100
AcDbEntity
8
0
100
AcDbCircle
10
359.99301877465967
20
-39.946235599112654
30
0
40
1.799999856000001
0
CIRCLE
5
124
100
AcDbEntity
8
0
100
AcDbCircle
10
350.00359675571872
20
-19.967391561230688
30
0
40
1.7999998560000363
0
CIRCLE
5
125
100
AcDbEntity
8
0
100
AcDbCircle
10
326.99997384000204
20
-24.999998000000048
30
0
40
1.7992769911310447
0
CIRCLE
5
126
100
AcDbEntity
8
0
100
AcDbCircle
10
319.99997440000203
20
-5.9999995199999256
30
0
40
1.7999998560000607
0
CIRCLE
5
127
100
AcDbEntity
8
0
100
AcDbCircle
10
139.99998880000084
20
-5.9999995199999976
30
0
40
1.7999998559999844
0
CIRCLE
5
128
100
AcDbEntity
8
0
100
AcDbCircle
10
229.99998160000129
20
-5.9999995199999701
30
0
40
1.799999855999965
0
LINE
5
129
100
AcDbEntity
8
0
100
AcDbLine
10
364.9999708000023
20
3.5527136788005009e-14
30
0
11
369.99997040000233
21
-4.9999995999999314
31
0
0
LINE
5
130
100
AcDbEntity
8
0
100
AcDbLine
10
364.9999708000023
20
3.5527136788005009e-14
30
0
11
369.99997040000233
21
-4.9999995999999314
31
0
0
LINE
5
131
100
AcDbEntity
8
0
100
AcDbLine
10
364.99997080000236
20
-369.99997040000233
30
0
11
369.99997040000233
21
-364.99997080000236
31
0
0
LINE
5
132
100
AcDbEntity
8
0
100
AcDbLine
10
364.99997080000236
20
-369.99997040000233
30
0
11
369.99997040000233
21
-364.99997080000236
31
0
0
LINE
5
133
100
AcDbEntity
8
0
100
AcDbLine
10
7.1054273576010019e-14
20
-364.99997080000236
30
0
11
4.9999995999999669
21
-369.99997040000233
31
0
0
LINE
5
134
100
AcDbEntity
8
0
100
AcDbLine
10
7.1054273576010019e-14
20
-364.99997080000236
30
0
11
4.9999995999999669
21
-369.99997040000233
31
0
0
LWPOLYLINE
5
135
100
AcDbEntity
8
0
100
AcDbPolyline
90
4
70
1
43
0.0
10
46.249996300000262
20
-36.649939332700434
10
39.749996820000248
20
-36.649939332700434
10
39.749996820000248
20
-45.649938612700538
10
46.249996300000262
20
-45.649938612700538
0
LWPOLYLINE
5
136
100
AcDbEntity
8
0
100
AcDbPolyline
90
4
70
1
43
0.0
10
46.249996300000262
20
-164.349986852001
10
39.749996820000248
20
-164.349986852001
10
39.749996820000248
20
-173.34998613200105
10
46.249996300000262
20
-173.34998613200105
0
LWPOLYLINE
5
137
100
AcDbEntity
8
0
100
AcDbPolyline
90
4
70
1
43
0.0
10
46.249996300000262
20
-196.64998426800122
10
39.749996820000248
20
-196.64998426800122
10
39.749996820000248
20
-205.64998354800127
10
46.249996300000262
20
-205.64998354800127
0
LWPOLYLINE
5
138
100
AcDbEntity
8
0
100
AcDbPolyline
90
4
70
1
43
0.0
10
46.249996300000262
20
-319.44274578149731
10
39.749996820000248
20
-319.44274578149731
10
39.749996820000248
20
-328.44274506149736
10
46.249996300000262
20
-328.44274506149736
0
LWPOLYLINE
5
139
100
AcDbEntity
8
0
100
AcDbPolyline
90
4
70
1
43
0.0
10
46.249996300000262
20
-351.74274319749742
10
39.749996820000248
20
-351.74274319749742
10
39.749996820000248
20
-360.74274247749747
10
46.249996300000262
20
-360.74274247749747
0
LWPOLYLINE
5
140
100
AcDbEntity
8
0
100
AcDbPolyline
90
4
70
1
43
0.0
10
330.24997358000206
20
-351.74274319749736
10
323.74997410000208
20
-351.74274319749736
10
323.74997410000208
20
-360.74274247749747
10
330.24997358000206
20
-360.74274247749747
0
LWPOLYLINE
5
141
100
AcDbEntity
8
0
100
AcDbPolyline
90
4
70
1
43
0.0
10
330.24997358000206
20
-319.44274578149725
10
323.74997410000208
20
-319.44274578149725
10
323.74997410000208
20
-328.44274506149736
10
330.24997358000206
20
-328.44274506149736
0
LWPOLYLINE
5
142
100
AcDbEntity
8
0
100
AcDbPolyline
90
4
70
1
43
0.0
10
330.24997358000206
20
-196.64998426800116
10
323.74997410000208
20
-196.64998426800116
10
323.74997410000208
20
-205.64998354800125
10
330.24997358000206
20
-205.64998354800125
0
LWPOLYLINE
5
143
100
AcDbEntity
8
0
100
AcDbPolyline
90
4
70
1
43
0.0
10
330.24997358000206
20
-164.349986852001
10
323.74997410000208
20
-164.349986852001
10
323.74997410000208
20
-173.34998613200102
10
330.24997358000206
20
-173.34998613200102
0
LWPOLYLINE
5
144
100
AcDbEntity
8
0
100
AcDbPolyline
90
4
70
1
43
0.0
10
330.24997358000206
20
-36.649939332700399
10
323.74997410000208
20
-36.649939332700399
10
323.74997410000208
20
-45.649938612700502
10
330.24997358000206
20
-45.649938612700502
0
LWPOLYLINE
5
145
100
AcDbEntity
8
0
100
AcDbPolyline
90
4
70
1
43
0.0
10
353.55993152737739
20
-14.036819734515795
10
345.56396245015617
20
-14.036819734515795
42
-0.99999999999999989
10
345.56396245015617
20
-6.0368203745158056
10
353.55993152737739
20
-6.0368203745158056
42
-0.99999999999999989
0
LINE
5
146
100
AcDbEntity
8
0
100
AcDbLine
10
341.56396277015619
20
-10.0368200545158
30
0
11
357.55993120737742
21
-10.0368200545158
31
0
0
LWPOLYLINE
5
147
100
AcDbEntity
8
0
100
AcDbPolyline
90
4
70
1
43
0.0
10
24.022437597679378
20
-14.036819734515831
10
16.026468520457975
20
-14.036819734515831
42
-0.99999999999999989
10
16.026468520457975
20
-6.0368203745158411
10
24.022437597679378
20
-6.0368203745158411
42
-0.99999999999999989
0
LINE
5
148
100
AcDbEntity
8
0
100
AcDbLine
10
12.02646884045798
20
-10.036820054515836
30
0
11
28.022437277679373
21
-10.036820054515836
31
0
0
LINE
5
149
100
AcDbEntity
8
0
100
AcDbLine
10
59.999995200000384
20
-329.99997360000214
30
0
11
309.99997520000193
21
-329.99997360000214
31
0
0
LINE
5
150
100
AcDbEntity
8
0
100
AcDbLine
10
314.99997480000195
20
-324.99997400000206
30
0
11
314.99997480000195
21
-44.999996400000128
31
0
0
LINE
5
151
100
AcDbEntity
8
0
100
AcDbLine
10
54.999995600000204
20
-44.999996400000214
30
0
11
54.999995600000204
21
-324.99997400000211
31
0
0
LINE
5
152
100
AcDbEntity
8
0
100
AcDbLine
10
54.999995600000204
20
-44.999996400000214
30
0
11
54.999995600000204
21
-324.99997400000211
31
0
0
LINE
5
153
100
AcDbEntity
8
0
100
AcDbLine
10
314.99997480000195
20
-324.99997400000206
30
0
11
314.99997480000195
21
-44.999996400000128
31
0
0
LINE
5
154
100
AcDbEntity
8
0
100
AcDbLine
10
59.999995200000384
20
-329.99997360000214
30
0
11
309.99997520000193
21
-329.99997360000214
31
0
0
LINE
5
155
100
AcDbEntity
8
0
100
AcDbLine
10
154.99998760000091
20
-39.999996800000197
30
0
11
109.99999120000062
21
-39.999996800000176
31
0
0
LINE
5
156
100
AcDbEntity
8
0
100
AcDbLine
10
54.999995600000204
20
-324.99997400000211
30
0
11
59.999995200000384
21
-329.99997360000214
31
0
0
LINE
5
157
100
AcDbEntity
8
0
100
AcDbLine
10
54.999995600000204
20
-44.999996400000214
30
0
11
59.999995200000384
21
-39.999996800000218
31
0
0
LINE
5
158
100
AcDbEntity
8
0
100
AcDbLine
10
179.99998560000114
20
-14.999998800000114
30
0
11
154.99998760000091
21
-39.999996800000197
31
0
0
LINE
5
159
100
AcDbEntity
8
0
100
AcDbLine
10
154.99998760000091
20
-39.999996800000197
30
0
11
179.99998560000114
21
-14.999998800000114
31
0
0
LINE
5
160
100
AcDbEntity
8
0
100
AcDbLine
10
189.99998480000113
20
-14.999998800000114
30
0
11
179.99998560000114
21
-14.999998800000114
31
0
0
LINE
5
161
100
AcDbEntity
8
0
100
AcDbLine
10
179.99998560000114
20
-14.999998800000114
30
0
11
189.99998480000113
21
-14.999998800000114
31
0
0
LINE
5
162
100
AcDbEntity
8
0
100
AcDbLine
10
214.99998280000128
20
-39.999996800000197
30
0
11
189.99998480000113
21
-14.999998800000114
31
0
0
LINE
5
163
100
AcDbEntity
8
0
100
AcDbLine
10
189.99998480000113
20
-14.999998800000114
30
0
11
214.99998280000128
21
-39.999996800000197
31
0
0
LINE
5
164
100
AcDbEntity
8
0
100
AcDbLine
10
309.99997520000193
20
-39.999996800000162
30
0
11
314.99997480000195
21
-44.999996400000128
31
0
0
LINE
5
165
100
AcDbEntity
8
0
100
AcDbLine
10
309.99997520000193
20
-329.99997360000214
30
0
11
314.99997480000195
21
-324.99997400000206
31
0
0
LINE
5
166
100
AcDbEntity
8
0
100
AcDbLine
10
94.999992400000508
20
-34.99999720000023
30
0
11
89.999992800000541
21
-39.999996800000218
31
0
0
LINE
5
167
100
AcDbEntity
8
0
100
AcDbLine
10
89.999992800000541
20
-39.999996800000218
30
0
11
94.999992400000508
21
-34.99999720000023
31
0
0
LINE
5
168
100
AcDbEntity
8
0
100
AcDbLine
10
109.99999120000062
20
-39.999996800000176
30
0
11
104.99999160000066
21
-34.999997200000209
31
0
0
LINE
5
169
100
AcDbEntity
8
0
100
AcDbLine
10
104.99999160000066
20
-34.999997200000209
30
0
11
104.99999160000066
21
-19.934454942428417
31
0
0
LINE
5
170
100
AcDbEntity
8
0
100
AcDbLine
10
94.999992400000508
20
-34.99999720000023
30
0
11
94.999992400000579
21
-19.934454942428239
31
0
0
ARC
5
171
100
AcDbEntity
8
0
100
AcDbCircle
10
99.999992000000617
20
-19.934454942428264
30
0
40
4.999999600000038
100
AcDbArc
50
0
51
180
0
LINE
5
172
100
AcDbEntity
8
0
100
AcDbLine
10
264.9999788000016
20
-34.999997200000195
30
0
11
259.99997920000163
21
-39.999996800000162
31
0
0
LINE
5
173
100
AcDbEntity
8
0
100
AcDbLine
10
259.99997920000163
20
-39.999996800000162
30
0
11
264.9999788000016
21
-34.999997200000195
31
0
0
LINE
5
174
100
AcDbEntity
8
0
100
AcDbLine
10
279.99997760000173
20
-39.999996800000176
30
0
11
274.99997800000176
21
-34.999997200000195
31
0
0
LINE
5
175
100
AcDbEntity
8
0
100
AcDbLine
10
274.99997800000176
20
-34.999997200000195
30
0
11
274.99997800000176
21
-19.934454942428204
31
0
0
ARC
5
176
100
AcDbEntity
8
0
100
AcDbCircle
10
269.99997840000174
20
-19.934454942428193
30
0
40
4.9999996000000024
100
AcDbArc
50
0
51
180
0
LINE
5
177
100
AcDbEntity
8
0
100
AcDbLine
10
264.99997880000183
20
-19.934454942428204
30
0
11
264.9999788000016
21
-34.999997200000195
31
0
0
LINE
5
178
100
AcDbEntity
8
0
100
AcDbLine
10
89.999992800000541
20
-39.999996800000218
30
0
11
59.999995200000384
21
-39.999996800000218
31
0
0
LINE
5
179
100
AcDbEntity
8
0
100
AcDbLine
10
309.99997520000193
20
-39.999996800000162
30
0
11
279.99997760000173
21
-39.999996800000176
31
0
0
LINE
5
180
100
AcDbEntity
8
0
100
AcDbLine
10
259.99997920000163
20
-39.999996800000162
30
0
11
214.99998280000128
21
-39.999996800000197
31
0
0
LINE
5
181
100
AcDbEntity
8
0
100
AcDbLine
10
154.99998760000091
20
-39.999996800000197
30
0
11
109.99999120000062
21
-39.999996800000176
31
0
0
LINE
5
182
100
AcDbEntity
8
0
100
AcDbLine
10
9.7334629123769733e-16
20
-5
30
0
11
5
21
7.1054279260352217e-15
31
0
0
ENDSEC
0
SECTION
2
OBJECTS
0
DICTIONARY
5
C
100
AcDbDictionary
3
ACAD_GROUP
350
D
3
ACAD_MLINESTYLE
350
17
0
DICTIONARY
5
D
100
AcDbDictionary
0
DICTIONARY
5
1A
330
C
100
AcDbDictionary
0
DICTIONARY
5
17
100
AcDbDictionary
0
ENDSEC
0
EOF
