<?xml version="1.0" encoding="utf-8"?>
<!-- Generator: Adobe Illustrator 20.1.0, SVG Export Plug-In . SVG Version: 6.00 Build 0)  -->
<svg version="1.0" id="Layer_1" xmlns="http://www.w3.org/2000/svg" xmlns:xlink="http://www.w3.org/1999/xlink" x="0px" y="0px"
	 viewBox="0 0 512 512" style="enable-background:new 0 0 512 512;" xml:space="preserve">
<style type="text/css">
	.st0{fill:#FF0000;}
	.st1{fill:#FFFFFF;}
</style>
<g id="LWPOLYLINE_3_">
	<rect class="st0" width="512" height="512"/>
</g>
<g id="LWPOLYLINE">
	<polygon class="st1" points="104,104 184,104 248.8,212 200.8,292 184,264 184,408 104,408 104,392 120,392 120,384 104,384 
		104,368 136,368 136,360 104,360 104,344 120,344 120,336 104,336 104,320 120,320 120,312 104,312 104,296 136,296 136,288 
		104,288 104,272 120,272 120,264 104,264 104,248 120,248 120,240 104,240 104,224 136,224 136,216 104,216 104,200 120,200 
		120,192 104,192 104,176 120,176 120,168 104,168 104,152 136,152 136,144 104,144 104,128 120,128 120,120 104,120 	"/>
</g>
<path class="st1" d="M328,104L208,304l48,80l72-120v144h80V104H328z M256,312c-4.4,0-8-3.6-8-8c0-4.4,3.6-8,8-8s8,3.6,8,8
	C264,308.4,260.4,312,256,312z M376,368c0,4.4-3.6,8-8,8s-8-3.6-8-8V144c0-4.4,3.6-8,8-8s8,3.6,8,8V368z"/>
</svg>
