0
SECTION
2
HEADER
9
$INSUNITS
70
4
9
$ACADVER
1
AC1014
9
$HANDSEED
5
FFFF
0
ENDSEC
0
SECTION
2
TABLES
0
TABLE
2
VPORT
5
8
100
AcDbSymbolTable
0
ENDTAB
0
TABLE
2
LTYPE
5
5
100
AcDbSymbolTable
0
LTYPE
5
14
100
AcDbSymbolTableRecord
100
AcDbLinetypeTableRecord
2
BYBLOCK
70
0
0
LTYPE
5
15
100
AcDbSymbolTableRecord
100
AcDbLinetypeTableRecord
2
BYLAYER
70
0
0
ENDTAB
0
TABLE
2
LAYER
5
2
100
AcDbSymbolTable
70
2
0
LAYER
5
50
100
AcDbSymbolTableRecord
100
AcDbLayerTableRecord
2
0
70
0
6
CONTINUOUS
0
ENDTAB
0
TABLE
2
STYLE
5
3
100
AcDbSymbolTable
70
1
0
STYLE
5
11
100
AcDbSymbolTableRecord
100
AcDbTextStyleTableRecord
2
STANDARD
70
0
0
ENDTAB
0
TABLE
2
VIEW
5
6
100
AcDbSymbolTable
70
0
0
ENDTAB
0
TABLE
2
UCS
5
7
100
AcDbSymbolTable
70
0
0
ENDTAB
0
TABLE
2
APPID
5
9
100
AcDbSymbolTable
70
2
0
APPID
5
12
100
AcDbSymbolTableRecord
100
AcDbRegAppTableRecord
2
ACAD
70
0
0
ENDTAB
0
TABLE
2
DIMSTYLE
5
A
100
AcDbSymbolTable
70
1
0
ENDTAB
0
TABLE
2
BLOCK_RECORD
5
1
100
AcDbSymbolTable
70
1
0
BLOCK_RECORD
5
1F
100
AcDbSymbolTableRecord
100
AcDbBlockTableRecord
2
*MODEL_SPACE
0
BLOCK_RECORD
5
1B
100
AcDbSymbolTableRecord
100
AcDbBlockTableRecord
2
*PAPER_SPACE
0
ENDTAB
0
ENDSEC
0
SECTION
2
BLOCKS
0
BLOCK
5
20
100
AcDbEntity
100
AcDbBlockBegin
2
*MODEL_SPACE
0
ENDBLK
5
21
100
AcDbEntity
100
AcDbBlockEnd
0
BLOCK
5
1C
100
AcDbEntity
100
AcDbBlockBegin
2
*PAPER_SPACE
0
ENDBLK
5
1D
100
AcDbEntity
100
AcDbBlockEnd
0
ENDSEC
0
SECTION
2
ENTITIES
0
LWPOLYLINE
5
100
100
AcDbEntity
8
0
100
AcDbPolyline
90
4
70
1
43
0.0
10
54.186666666666675
20
0
10
0
20
0
10
0
20
-54.186666666666675
10
54.186666666666675
20
-54.186666666666675
0
LWPOLYLINE
5
101
100
AcDbEntity
8
0
100
AcDbPolyline
90
55
70
1
43
0.0
10
19.473333333333336
20
-11.006666666666669
10
11.006666666666669
20
-11.006666666666669
10
11.006666666666669
20
-12.700000000000003
10
12.700000000000003
20
-12.700000000000003
10
12.700000000000003
20
-13.546666666666669
10
11.006666666666669
20
-13.546666666666669
10
11.006666666666669
20
-15.240000000000002
10
14.393333333333336
20
-15.240000000000002
10
14.393333333333336
20
-16.08666666666667
10
11.006666666666669
20
-16.08666666666667
10
11.006666666666669
20
-17.780000000000001
10
12.700000000000003
20
-17.780000000000001
10
12.700000000000003
20
-18.626666666666669
10
11.006666666666669
20
-18.626666666666672
10
11.006666666666669
20
-20.320000000000004
10
12.700000000000003
20
-20.320000000000004
10
12.700000000000003
20
-21.166666666666671
10
11.006666666666669
20
-21.166666666666671
10
11.006666666666669
20
-22.860000000000007
10
14.393333333333336
20
-22.860000000000007
10
14.393333333333336
20
-23.706666666666671
10
11.006666666666669
20
-23.706666666666671
10
11.006666666666669
20
-25.400000000000006
10
12.700000000000003
20
-25.400000000000006
10
12.700000000000003
20
-26.24666666666667
10
11.006666666666669
20
-26.24666666666667
10
11.006666666666669
20
-27.940000000000005
10
12.700000000000003
20
-27.940000000000005
10
12.700000000000003
20
-28.786666666666672
10
11.006666666666669
20
-28.786666666666672
10
11.006666666666669
20
-30.480000000000004
10
14.393333333333336
20
-30.480000000000004
10
14.393333333333336
20
-31.326666666666672
10
11.006666666666669
20
-31.326666666666672
10
11.006666666666669
20
-33.020000000000003
10
12.700000000000003
20
-33.020000000000003
10
12.700000000000003
20
-33.866666666666674
10
11.006666666666669
20
-33.866666666666674
10
11.006666666666669
20
-35.560000000000002
10
12.700000000000003
20
-35.560000000000002
10
12.700000000000003
20
-36.406666666666673
10
11.006666666666669
20
-36.406666666666673
10
11.006666666666669
20
-38.100000000000009
10
14.393333333333336
20
-38.100000000000009
10
14.393333333333336
20
-38.946666666666673
10
11.006666666666669
20
-38.946666666666673
10
11.006666666666669
20
-40.640000000000008
10
12.700000000000003
20
-40.640000000000001
10
12.700000000000003
20
-41.486666666666672
10
11.006666666666669
20
-41.486666666666672
10
11.006666666666668
20
-43.180000000000007
10
19.473333333333336
20
-43.180000000000007
10
19.473333333333336
20
-27.940000000000005
10
21.251333333333339
20
-30.903333333333336
10
26.331333333333337
20
-22.436666666666667
0
LWPOLYLINE
5
102
100
AcDbEntity
8
0
100
AcDbPolyline
90
7
70
1
43
0.0
10
22.013333333333335
20
-32.173333333333346
10
34.713333333333338
20
-11.006666666666669
10
43.180000000000007
20
-11.006666666666668
10
43.180000000000007
20
-43.180000000000007
10
34.713333333333338
20
-43.180000000000007
10
34.713333333333338
20
-27.940000000000005
10
27.093333333333337
20
-40.640000000000008
0
SPLINE
5
103
100
AcDbEntity
8
0
100
AcDbSpline
70
1064
71
3
72
8
73
4
74
0
42
0.000000001
43
0.0000000001
44
0.0000000001
40
0
40
0
40
0
40
0
40
1
40
1
40
1
40
1
10
27.093333333333337
20
-33.020000000000003
30
0
10
26.627667312622076
20
-33.020000000000003
30
0
10
26.24666666666667
20
-32.6389993540446
30
0
10
26.24666666666667
20
-32.173333333333339
30
0
0
SPLINE
5
104
100
AcDbEntity
8
0
100
AcDbSpline
70
1064
71
3
72
8
73
4
74
0
42
0.000000001
43
0.0000000001
44
0.0000000001
40
0
40
0
40
0
40
0
40
1
40
1
40
1
40
1
10
26.24666666666667
20
-32.173333333333339
30
0
10
26.24666666666667
20
-31.707667312622078
30
0
10
26.627667312622076
20
-31.326666666666672
30
0
10
27.093333333333337
20
-31.326666666666672
30
0
0
SPLINE
5
105
100
AcDbEntity
8
0
100
AcDbSpline
70
1064
71
3
72
8
73
4
74
0
42
0.000000001
43
0.0000000001
44
0.0000000001
40
0
40
0
40
0
40
0
40
1
40
1
40
1
40
1
10
27.093333333333337
20
-31.326666666666672
30
0
10
27.558999354044602
20
-31.326666666666672
30
0
10
27.940000000000005
20
-31.707667312622078
30
0
10
27.940000000000005
20
-32.173333333333339
30
0
0
SPLINE
5
106
100
AcDbEntity
8
0
100
AcDbSpline
70
1064
71
3
72
8
73
4
74
0
42
0.000000001
43
0.0000000001
44
0.0000000001
40
0
40
0
40
0
40
0
40
1
40
1
40
1
40
1
10
27.940000000000005
20
-32.173333333333339
30
0
10
27.940000000000005
20
-32.6389993540446
30
0
10
27.558999354044602
20
-33.020000000000003
30
0
10
27.093333333333337
20
-33.020000000000003
30
0
0
SPLINE
5
107
100
AcDbEntity
8
0
100
AcDbSpline
70
1064
71
3
72
8
73
4
74
0
42
0.000000001
43
0.0000000001
44
0.0000000001
40
0
40
0
40
0
40
0
40
1
40
1
40
1
40
1
10
39.793333333333337
20
-38.946666666666673
30
0
10
39.793333333333337
20
-39.41233268737794
30
0
10
39.41233268737794
20
-39.793333333333337
30
0
10
38.946666666666673
20
-39.793333333333337
30
0
0
SPLINE
5
108
100
AcDbEntity
8
0
100
AcDbSpline
70
1064
71
3
72
8
73
4
74
0
42
0.000000001
43
0.0000000001
44
0.0000000001
40
0
40
0
40
0
40
0
40
1
40
1
40
1
40
1
10
38.946666666666673
20
-39.793333333333337
30
0
10
38.481000645955412
20
-39.793333333333337
30
0
10
38.100000000000009
20
-39.41233268737794
30
0
10
38.100000000000009
20
-38.946666666666673
30
0
0
LINE
5
109
100
AcDbEntity
8
0
100
AcDbLine
10
38.100000000000009
20
-38.946666666666673
30
0
11
38.100000000000009
21
-15.24
31
0
0
SPLINE
5
110
100
AcDbEntity
8
0
100
AcDbSpline
70
1064
71
3
72
8
73
4
74
0
42
0.000000001
43
0.0000000001
44
0.0000000001
40
0
40
0
40
0
40
0
40
1
40
1
40
1
40
1
10
38.100000000000009
20
-15.240000000000002
30
0
10
38.100000000000009
20
-14.774333979288741
30
0
10
38.481000645955412
20
-14.393333333333336
30
0
10
38.946666666666673
20
-14.393333333333336
30
0
0
SPLINE
5
111
100
AcDbEntity
8
0
100
AcDbSpline
70
1064
71
3
72
8
73
4
74
0
42
0.000000001
43
0.0000000001
44
0.0000000001
40
0
40
0
40
0
40
0
40
1
40
1
40
1
40
1
10
38.946666666666673
20
-14.393333333333336
30
0
10
39.41233268737794
20
-14.393333333333336
30
0
10
39.793333333333337
20
-14.774333979288741
30
0
10
39.793333333333337
20
-15.240000000000002
30
0
0
LINE
5
112
100
AcDbEntity
8
0
100
AcDbLine
10
39.793333333333337
20
-15.240000000000002
30
0
11
39.793333333333337
21
-38.946666666666673
31
0
0
ENDSEC
0
SECTION
2
OBJECTS
0
DICTIONARY
5
C
100
AcDbDictionary
3
ACAD_GROUP
350
D
3
ACAD_MLINESTYLE
350
17
0
DICTIONARY
5
D
100
AcDbDictionary
0
DICTIONARY
5
1A
330
C
100
AcDbDictionary
0
DICTIONARY
5
17
100
AcDbDictionary
0
ENDSEC
0
EOF
