0
SECTION
2
HEADER
9
$INSUNITS
70
4
9
$ACADVER
1
AC1014
9
$HANDSEED
5
FFFF
0
ENDSEC
0
SECTION
2
TABLES
0
TABLE
2
VPORT
5
8
100
AcDbSymbolTable
0
ENDTAB
0
TABLE
2
LTYPE
5
5
100
AcDbSymbolTable
0
LTYPE
5
14
100
AcDbSymbolTableRecord
100
AcDbLinetypeTableRecord
2
BYBLOCK
70
0
0
LTYPE
5
15
100
AcDbSymbolTableRecord
100
AcDbLinetypeTableRecord
2
BYLAYER
70
0
0
ENDTAB
0
TABLE
2
LAYER
5
2
100
AcDbSymbolTable
70
2
0
LAYER
5
50
100
AcDbSymbolTableRecord
100
AcDbLayerTableRecord
2
0
70
0
6
CONTINUOUS
0
ENDTAB
0
TABLE
2
STYLE
5
3
100
AcDbSymbolTable
70
1
0
STYLE
5
11
100
AcDbSymbolTableRecord
100
AcDbTextStyleTableRecord
2
STANDARD
70
0
0
ENDTAB
0
TABLE
2
VIEW
5
6
100
AcDbSymbolTable
70
0
0
ENDTAB
0
TABLE
2
UCS
5
7
100
AcDbSymbolTable
70
0
0
ENDTAB
0
TABLE
2
APPID
5
9
100
AcDbSymbolTable
70
2
0
APPID
5
12
100
AcDbSymbolTableRecord
100
AcDbRegAppTableRecord
2
ACAD
70
0
0
ENDTAB
0
TABLE
2
DIMSTYLE
5
A
100
AcDbSymbolTable
70
1
0
ENDTAB
0
TABLE
2
BLOCK_RECORD
5
1
100
AcDbSymbolTable
70
1
0
BLOCK_RECORD
5
1F
100
AcDbSymbolTableRecord
100
AcDbBlockTableRecord
2
*MODEL_SPACE
0
BLOCK_RECORD
5
1B
100
AcDbSymbolTableRecord
100
AcDbBlockTableRecord
2
*PAPER_SPACE
0
ENDTAB
0
ENDSEC
0
SECTION
2
BLOCKS
0
BLOCK
5
20
100
AcDbEntity
100
AcDbBlockBegin
2
*MODEL_SPACE
0
ENDBLK
5
21
100
AcDbEntity
100
AcDbBlockEnd
0
BLOCK
5
1C
100
AcDbEntity
100
AcDbBlockBegin
2
*PAPER_SPACE
0
ENDBLK
5
1D
100
AcDbEntity
100
AcDbBlockEnd
0
ENDSEC
0
SECTION
2
ENTITIES
0
LWPOLYLINE
5
100
100
AcDbEntity
8
0
100
AcDbPolyline
90
4
70
1
43
0.0
10
135.4666666666667
20
0
10
0
20
0
10
0
20
-135.4666666666667
10
135.4666666666667
20
-135.4666666666667
0
LWPOLYLINE
5
101
100
AcDbEntity
8
0
100
AcDbPolyline
90
55
70
1
43
0.0
10
48.683333333333337
20
-27.516666666666669
10
27.516666666666669
20
-27.516666666666669
10
27.516666666666669
20
-31.750000000000004
10
31.750000000000004
20
-31.750000000000004
10
31.750000000000004
20
-33.866666666666674
10
27.516666666666669
20
-33.866666666666674
10
27.516666666666673
20
-38.100000000000009
10
35.983333333333341
20
-38.100000000000009
10
35.983333333333334
20
-40.216666666666676
10
27.516666666666669
20
-40.216666666666669
10
27.516666666666669
20
-44.450000000000003
10
31.750000000000004
20
-44.450000000000003
10
31.750000000000004
20
-46.56666666666667
10
27.516666666666669
20
-46.56666666666667
10
27.516666666666669
20
-50.800000000000011
10
31.750000000000004
20
-50.800000000000011
10
31.750000000000004
20
-52.916666666666679
10
27.516666666666669
20
-52.916666666666671
10
27.516666666666673
20
-57.150000000000006
10
35.983333333333341
20
-57.150000000000006
10
35.983333333333334
20
-59.26666666666668
10
27.516666666666669
20
-59.266666666666666
10
27.516666666666669
20
-63.500000000000007
10
31.750000000000004
20
-63.500000000000007
10
31.750000000000004
20
-65.616666666666674
10
27.516666666666669
20
-65.616666666666674
10
27.516666666666669
20
-69.850000000000009
10
31.750000000000004
20
-69.850000000000009
10
31.750000000000004
20
-71.966666666666683
10
27.516666666666669
20
-71.966666666666669
10
27.516666666666673
20
-76.200000000000017
10
35.983333333333341
20
-76.200000000000017
10
35.983333333333334
20
-78.316666666666677
10
27.516666666666669
20
-78.316666666666663
10
27.516666666666669
20
-82.550000000000011
10
31.750000000000004
20
-82.550000000000026
10
31.750000000000004
20
-84.666666666666686
10
27.516666666666669
20
-84.666666666666671
10
27.516666666666669
20
-88.900000000000006
10
31.750000000000004
20
-88.90000000000002
10
31.750000000000004
20
-91.01666666666668
10
27.516666666666669
20
-91.01666666666668
10
27.516666666666673
20
-95.250000000000028
10
35.983333333333341
20
-95.250000000000028
10
35.983333333333334
20
-97.366666666666674
10
27.516666666666669
20
-97.366666666666674
10
27.516666666666669
20
-101.60000000000002
10
31.750000000000004
20
-101.60000000000002
10
31.750000000000004
20
-103.71666666666668
10
27.516666666666669
20
-103.71666666666668
10
27.516666666666669
20
-107.95000000000002
10
48.683333333333337
20
-107.95000000000002
10
48.683333333333337
20
-69.850000000000009
10
53.128333333333337
20
-77.258333333333354
10
65.828333333333347
20
-56.091666666666669
0
LWPOLYLINE
5
102
100
AcDbEntity
8
0
100
AcDbPolyline
90
7
70
1
43
0.0
10
55.033333333333339
20
-80.433333333333351
10
86.783333333333346
20
-27.516666666666669
10
107.95000000000002
20
-27.516666666666669
10
107.95000000000002
20
-107.95000000000002
10
86.783333333333346
20
-107.95000000000002
10
86.783333333333346
20
-69.850000000000009
10
67.733333333333348
20
-101.60000000000002
0
SPLINE
5
103
100
AcDbEntity
8
0
100
AcDbSpline
70
1064
71
3
72
8
73
4
74
0
42
0.000000001
43
0.0000000001
44
0.0000000001
40
0
40
0
40
0
40
0
40
1
40
1
40
1
40
1
10
67.733333333333348
20
-82.550000000000011
30
0
10
66.569168281555179
20
-82.550000000000011
30
0
10
65.616666666666674
20
-81.597498385111493
30
0
10
65.616666666666674
20
-80.433333333333351
30
0
0
SPLINE
5
104
100
AcDbEntity
8
0
100
AcDbSpline
70
1064
71
3
72
8
73
4
74
0
42
0.000000001
43
0.0000000001
44
0.0000000001
40
0
40
0
40
0
40
0
40
1
40
1
40
1
40
1
10
65.616666666666674
20
-80.433333333333351
30
0
10
65.616666666666674
20
-79.269168281555181
30
0
10
66.569168281555179
20
-78.316666666666677
30
0
10
67.733333333333348
20
-78.316666666666677
30
0
0
SPLINE
5
105
100
AcDbEntity
8
0
100
AcDbSpline
70
1064
71
3
72
8
73
4
74
0
42
0.000000001
43
0.0000000001
44
0.0000000001
40
0
40
0
40
0
40
0
40
1
40
1
40
1
40
1
10
67.733333333333348
20
-78.316666666666677
30
0
10
68.897498385111504
20
-78.316666666666677
30
0
10
69.850000000000009
20
-79.269168281555181
30
0
10
69.850000000000009
20
-80.433333333333351
30
0
0
SPLINE
5
106
100
AcDbEntity
8
0
100
AcDbSpline
70
1064
71
3
72
8
73
4
74
0
42
0.000000001
43
0.0000000001
44
0.0000000001
40
0
40
0
40
0
40
0
40
1
40
1
40
1
40
1
10
69.850000000000009
20
-80.433333333333351
30
0
10
69.850000000000009
20
-81.597498385111493
30
0
10
68.897498385111504
20
-82.550000000000011
30
0
10
67.733333333333348
20
-82.550000000000011
30
0
0
SPLINE
5
107
100
AcDbEntity
8
0
100
AcDbSpline
70
1064
71
3
72
8
73
4
74
0
42
0.000000001
43
0.0000000001
44
0.0000000001
40
0
40
0
40
0
40
0
40
1
40
1
40
1
40
1
10
99.483333333333348
20
-97.366666666666674
30
0
10
99.483333333333348
20
-98.53083171844483
30
0
10
98.53083171844483
20
-99.483333333333348
30
0
10
97.366666666666674
20
-99.483333333333348
30
0
0
SPLINE
5
108
100
AcDbEntity
8
0
100
AcDbSpline
70
1064
71
3
72
8
73
4
74
0
42
0.000000001
43
0.0000000001
44
0.0000000001
40
0
40
0
40
0
40
0
40
1
40
1
40
1
40
1
10
97.366666666666674
20
-99.483333333333348
30
0
10
96.202501614888533
20
-99.483333333333348
30
0
10
95.250000000000028
20
-98.53083171844483
30
0
10
95.250000000000028
20
-97.366666666666674
30
0
0
LINE
5
109
100
AcDbEntity
8
0
100
AcDbLine
10
95.250000000000043
20
-97.366666666666674
30
0
11
95.250000000000028
21
-38.100000000000009
31
0
0
SPLINE
5
110
100
AcDbEntity
8
0
100
AcDbSpline
70
1064
71
3
72
8
73
4
74
0
42
0.000000001
43
0.0000000001
44
0.0000000001
40
0
40
0
40
0
40
0
40
1
40
1
40
1
40
1
10
95.250000000000028
20
-38.100000000000009
30
0
10
95.250000000000028
20
-36.935834948221846
30
0
10
96.202501614888533
20
-35.983333333333341
30
0
10
97.366666666666674
20
-35.983333333333341
30
0
0
SPLINE
5
111
100
AcDbEntity
8
0
100
AcDbSpline
70
1064
71
3
72
8
73
4
74
0
42
0.000000001
43
0.0000000001
44
0.0000000001
40
0
40
0
40
0
40
0
40
1
40
1
40
1
40
1
10
97.366666666666674
20
-35.983333333333341
30
0
10
98.53083171844483
20
-35.983333333333341
30
0
10
99.483333333333348
20
-36.935834948221846
30
0
10
99.483333333333348
20
-38.100000000000009
30
0
0
LINE
5
112
100
AcDbEntity
8
0
100
AcDbLine
10
99.48333333333332
20
-38.100000000000009
30
0
11
99.483333333333348
21
-97.366666666666674
31
0
0
ENDSEC
0
SECTION
2
OBJECTS
0
DICTIONARY
5
C
100
AcDbDictionary
3
ACAD_GROUP
350
D
3
ACAD_MLINESTYLE
350
17
0
DICTIONARY
5
D
100
AcDbDictionary
0
DICTIONARY
5
1A
330
C
100
AcDbDictionary
0
DICTIONARY
5
17
100
AcDbDictionary
0
ENDSEC
0
EOF
